<?xml version="1.0" encoding="UTF-8" standalone="no"?>
<!-- Generator: Adobe Illustrator 17.1.0, SVG Export Plug-In . SVG Version: 6.00 Build 0)  -->

<svg
   xmlns:dc="http://purl.org/dc/elements/1.1/"
   xmlns:cc="http://creativecommons.org/ns#"
   xmlns:rdf="http://www.w3.org/1999/02/22-rdf-syntax-ns#"
   xmlns:svg="http://www.w3.org/2000/svg"
   xmlns="http://www.w3.org/2000/svg"
   xmlns:sodipodi="http://sodipodi.sourceforge.net/DTD/sodipodi-0.dtd"
   xmlns:inkscape="http://www.inkscape.org/namespaces/inkscape"
   version="1.1"
   id="Capa_1"
   x="0px"
   y="0px"
   viewBox="0 0 23.999999 23.999998"
   xml:space="preserve"
   sodipodi:docname="bird.svg"
   width="24"
   height="23.999998"
   inkscape:version="0.92.4 (5da689c313, 2019-01-14)"><metadata
   id="metadata11"><rdf:RDF><cc:Work
       rdf:about=""><dc:format>image/svg+xml</dc:format><dc:type
         rdf:resource="http://purl.org/dc/dcmitype/StillImage" /></cc:Work></rdf:RDF></metadata><defs
   id="defs9" /><sodipodi:namedview
   pagecolor="#ffffff"
   bordercolor="#666666"
   borderopacity="1"
   objecttolerance="10"
   gridtolerance="10"
   guidetolerance="10"
   inkscape:pageopacity="0"
   inkscape:pageshadow="2"
   inkscape:window-width="1920"
   inkscape:window-height="1039"
   id="namedview7"
   showgrid="false"
   inkscape:zoom="9.9426767"
   inkscape:cx="47.154192"
   inkscape:cy="25.278577"
   inkscape:window-x="0"
   inkscape:window-y="0"
   inkscape:window-maximized="1"
   inkscape:current-layer="Capa_1" />
    <g
   id="g4"
   transform="matrix(0.06800923,0,0,0.06319481,-0.91418255,0)">
<path
   d="m 366.314,97.749 c -0.129,-1.144 -1.544,-1.144 -2.389,-1.144 -6.758,0 -37.499,4.942 -62.82,13.081 -1.638,0.527 -2.923,0.783 -3.928,0.783 -1.961,0 -2.722,-0.928 -4.254,-3.029 -1.848,-2.533 -4.379,-6.001 -11.174,-8.914 -2.804,-1.202 -6.057,-1.812 -9.667,-1.812 -14.221,0 -32.199,9.312 -42.749,22.142 -0.066,0.08 -0.103,0.096 -0.107,0.096 -0.913,0 -4.089,-3.564 -9.577,-17.062 -4.013,-9.87 -8.136,-22.368 -10.504,-31.842 -3.553,-14.212 -13.878,-34.195 -20.71,-47.417 -2.915,-5.642 -5.218,-10.098 -5.797,-11.836 -0.447,-1.339 -1.15,-2.019 -2.091,-2.019 -0.604,0 -1.184,0.3 -1.773,0.917 -6.658,6.983 -20.269,65.253 -19.417,83.132 0.699,14.682 12.291,24.61 17.861,29.381 0.659,0.564 1.363,1.167 1.911,1.67 -2.964,-1.06 -9.171,-6.137 -17.406,-12.873 C 149.842,101.285 131.887,86.6 107.571,70.55 73.507,48.066 51.686,25.78 38.649,12.466 29.964,3.599 26.338,0 23.791,0 c -0.605,0 -1.707,0.227 -2.278,1.75 -2.924,7.798 0.754,88.419 37.074,132.002 20.279,24.335 46.136,36.829 63.246,45.097 9.859,4.764 17.647,8.527 18.851,12.058 0.273,0.803 0.203,1.573 -0.223,2.425 -1.619,3.238 -4.439,7.193 -8.011,12.202 -9.829,13.783 -24.682,34.613 -35.555,69.335 -4.886,15.601 -55.963,70.253 -69.247,83.537 -0.648,0.648 -15.847,15.917 -14.06,20.229 0.142,0.344 0.613,1.143 1.908,1.143 3.176,0 11.554,-5.442 24.902,-16.195 17.47,-14.073 29.399,-25.848 38.11,-34.452 8.477,-8.374 13.784,-13.596 17.427,-14.161 -0.333,1.784 -1.385,6.367 -4.576,17.926 -0.077,0.279 -0.238,0.938 0.127,1.418 l 0.355,0.576 h 0.495 c 0.001,0 0.002,0 0.003,0 0.773,0 1.172,-0.618 4.53,-4.786 10.244,-12.714 41.417,-51.561 84.722,-60.067 25.376,-4.985 56.886,-28.519 68.008,-63.854 16.822,-53.439 30.902,-87.056 105.176,-104.081 11.727,-2.689 11.653,-3.351 11.539,-4.353 z"
   id="path2"
   inkscape:connector-curvature="0" />
</g>
</svg>