<?xml version="1.0" encoding="UTF-8" standalone="no"?>
<svg
   xmlns:dc="http://purl.org/dc/elements/1.1/"
   xmlns:cc="http://creativecommons.org/ns#"
   xmlns:rdf="http://www.w3.org/1999/02/22-rdf-syntax-ns#"
   xmlns:svg="http://www.w3.org/2000/svg"
   xmlns="http://www.w3.org/2000/svg"
   id="svg14"
   viewBox="0 0 24 24"
   version="1.1"
   width="24px"
   height="24px">
  <metadata
     id="metadata20">
    <rdf:RDF>
      <cc:Work
         rdf:about="">
        <dc:format>image/svg+xml</dc:format>
        <dc:type
           rdf:resource="http://purl.org/dc/dcmitype/StillImage" />
        <dc:title>Stockholm-icons / Code / Github</dc:title>
      </cc:Work>
    </rdf:RDF>
  </metadata>
  <defs
     id="defs18" />
  <title
     id="title2">Stockholm-icons / Code / Github</title>
  <desc
     id="desc4">Created with Sketch.</desc>
  <g
     transform="rotate(180,12,12)"
     fill="none"
     id="ANYWAYS Logo">
    <rect
       id="rect6"
       width="24"
       height="24"
       x="0"
       y="0" />
    <path
       transform="rotate(180 12 12)"
       d="m3.5 4c-0.2761 0-0.5 0.2239-0.5 0.5v5.293c0 0.1326 0.0527 0.26 0.1465 0.353 0.1952 0.196 0.5118 0.196 0.707 0l2.1895-2.189 3.6816 3.682a2.1523 2.1183 0 0 1 1.7794 -1.049l-4.047-4.047 1.6895-1.6895c0.0938-0.0938 0.1465-0.2209 0.1465-0.3535 0-0.2761-0.2239-0.5-0.5-0.5h-5.293zm9.5 10.293a2.1523 2.1183 0 0 1 -1.418 0.529 2.1523 2.1183 0 0 1 -0.582 -0.08v5.258c0 0.552 0.448 1 1 1s1-0.448 1-1v-5.707z"
       fill="#ffc000"
       id="Combined-Shape"
       class="primary" />
    <path
       id="path9"
       d="m7.2448 17.145 2.0017 2.0017c0.093768 0.09377 0.14645 0.22094 0.14645 0.35355 0 0.27614-0.22386 0.5-0.5 0.5h-5.364c-0.27614 0-0.5-0.22386-0.5-0.5v-5.364c0-0.13261 0.052678-0.25978 0.14645-0.35355 0.19526-0.19526 0.51184-0.19526 0.70711 0l1.9432 1.9432 3.0284-2.5625 1.2919 1.5268z"
       fill="#ffc000"
       opacity=".3"
       class="primary" />
  </g>
  <ellipse
     id="ellipse12"
     fill="none"
     stroke-width="1.4226"
     cx="11.72"
     cy="12.61"
     stroke="#ffc000"
     ry="2.1183"
     rx="2.1523"
     class="primary" />
</svg>
