<?xml version="1.0" encoding="UTF-8"?>
<svg width="24px" height="24px" viewBox="0 0 24 24" version="1.1" xmlns="http://www.w3.org/2000/svg" xmlns:xlink="http://www.w3.org/1999/xlink">
    <!-- Generator: Sketch 50.2 (55047) - http://www.bohemiancoding.com/sketch -->
    <title>ic_access_time_black_24px</title>
    <desc>Created with Sketch.</desc>
    <defs></defs>
    <g id="Page-1" stroke="none" stroke-width="1" fill="none" fill-rule="evenodd">
        <g id="ic_access_time_black_24px" fill="#EBB916" fill-rule="nonzero">
            <path d="M11.988,0 C5.364,0 0,5.376 0,12 C0,18.624 5.364,24 11.988,24 C18.624,24 24,18.624 24,12 C24,5.376 18.624,0 11.988,0 Z M12,21.6 C6.696,21.6 2.4,17.304 2.4,12 C2.4,6.696 6.696,2.4 12,2.4 C17.304,2.4 21.6,6.696 21.6,12 C21.6,17.304 17.304,21.6 12,21.6 Z" id="Shape"></path>
            <polygon id="Shape" points="12.6 6 10.8 6 10.8 13.2 17.1 16.98 18 15.504 12.6 12.3"></polygon>
        </g>
    </g>
</svg>