<?xml version="1.0" encoding="UTF-8"?>
<svg width="30px" height="21px" viewBox="0 0 30 21" version="1.1" xmlns="http://www.w3.org/2000/svg" xmlns:xlink="http://www.w3.org/1999/xlink">
    <!-- Generator: Sketch 50.2 (55047) - http://www.bohemiancoding.com/sketch -->
    <title>ic_directions_bike_black_24px</title>
    <desc>Created with Sketch.</desc>
    <defs></defs>
    <g id="Page-1" stroke="none" stroke-width="1" fill="none" fill-rule="evenodd">
        <g id="ic_directions_bike_black_24px" transform="translate(0.000000, -1.000000)">
            <polygon id="Shape" points="6 0 30 0 30 24 6 24"></polygon>
            <path d="M21.5,5.5 C22.6,5.5 23.5,4.6 23.5,3.5 C23.5,2.4 22.6,1.5 21.5,1.5 C20.4,1.5 19.5,2.4 19.5,3.5 C19.5,4.6 20.4,5.5 21.5,5.5 Z M11,12 C8.2,12 6,14.2 6,17 C6,19.8 8.2,22 11,22 C13.8,22 16,19.8 16,17 C16,14.2 13.8,12 11,12 Z M11,20.5 C9.1,20.5 7.5,18.9 7.5,17 C7.5,15.1 9.1,13.5 11,13.5 C12.9,13.5 14.5,15.1 14.5,17 C14.5,18.9 12.9,20.5 11,20.5 Z M16.8,10.5 L19.2,8.1 L20,8.9 C21.3,10.2 23,11 25.1,11 L25.1,9 C23.6,9 22.4,8.4 21.5,7.5 L19.6,5.6 C19.1,5.2 18.6,5 18,5 C17.4,5 16.9,5.2 16.6,5.6 L13.8,8.4 C13.4,8.8 13.2,9.3 13.2,9.8 C13.2,10.4 13.4,10.9 13.8,11.2 L17,14 L17,19 L19,19 L19,12.8 L16.8,10.5 Z M25,12 C22.2,12 20,14.2 20,17 C20,19.8 22.2,22 25,22 C27.8,22 30,19.8 30,17 C30,14.2 27.8,12 25,12 Z M25,20.5 C23.1,20.5 21.5,18.9 21.5,17 C21.5,15.1 23.1,13.5 25,13.5 C26.9,13.5 28.5,15.1 28.5,17 C28.5,18.9 26.9,20.5 25,20.5 Z" id="Shape" fill="#ECB900" fill-rule="nonzero"></path>
            <path d="M5.52268051,20 L0,20" id="Path-2" stroke="#ECB900"></path>
            <path d="M5,18 L2.45049024,18" id="Path-2-Copy" stroke="#ECB900"></path>
        </g>
    </g>
</svg>