<?xml version="1.0" encoding="UTF-8"?>
<svg width="24px" height="21px" viewBox="0 0 24 21" version="1.1" xmlns="http://www.w3.org/2000/svg" xmlns:xlink="http://www.w3.org/1999/xlink">
    <!-- Generator: Sketch 50.2 (55047) - http://www.bohemiancoding.com/sketch -->
    <title>Group 2</title>
    <desc>Created with Sketch.</desc>
    <defs></defs>
    <g id="Page-1" stroke="none" stroke-width="1" fill="none" fill-rule="evenodd">
        <g id="Group-2" transform="translate(0.000000, -1.000000)">
            <g id="ic_directions_bike_black_24px">
                <polygon id="Shape" points="0 0 24 0 24 24 0 24"></polygon>
                <path d="M7,5.5 C8.1,5.5 9,4.6 9,3.5 C9,2.4 8.1,1.5 7,1.5 C5.9,1.5 5,2.4 5,3.5 C5,4.6 5.9,5.5 7,5.5 Z M5,12 C2.2,12 0,14.2 0,17 C0,19.8 2.2,22 5,22 C7.8,22 10,19.8 10,17 C10,14.2 7.8,12 5,12 Z M5,20.5 C3.1,20.5 1.5,18.9 1.5,17 C1.5,15.1 3.1,13.5 5,13.5 C6.9,13.5 8.5,15.1 8.5,17 C8.5,18.9 6.9,20.5 5,20.5 Z M19,12 C16.2,12 14,14.2 14,17 C14,19.8 16.2,22 19,22 C21.8,22 24,19.8 24,17 C24,14.2 21.8,12 19,12 Z M19,20.5 C17.1,20.5 15.5,18.9 15.5,17 C15.5,15.1 17.1,13.5 19,13.5 C20.9,13.5 22.5,15.1 22.5,17 C22.5,18.9 20.9,20.5 19,20.5 Z" id="Shape" fill="#ECB900" fill-rule="nonzero"></path>
            </g>
            <g id="Group" transform="translate(4.000000, 5.000000)" fill="#ECB900" fill-rule="nonzero">
                <path d="M15.4189536,3.87879552 L11.4364311,1.60492271 C11.0456468,1.38189739 10.5515845,1.39348667 10.1730567,1.63494535 L7.96687836,3.04080796 C6.41533259,2.53617209 4.91775363,1.34858959 3.84459322,0.570556062 C3.11395103,-0.0627482663 1.94017293,-0.230747296 1.4033552,0.384397441 C1.03261842,0.809003355 0.861311805,1.51275595 1.13323612,2.23621945 L1.46682321,1.3713119 C1.60430555,1.01478163 1.96221571,0.775421799 2.35784563,0.775421799 C2.47024481,0.775421799 2.58121882,0.794493933 2.68744222,0.832181928 C2.92563727,0.917048358 3.11509118,1.08550366 3.22112456,1.30697767 C3.32715794,1.52854293 3.33694417,1.77629815 3.24858302,2.00507249 L2.53162256,3.86465111 C2.60696706,3.92789029 2.68193152,3.98930438 2.75661095,4.0490759 L4.88193411,4.31946217 C5.13333583,4.35140115 5.35689904,4.4755069 5.51119851,4.66905711 C5.66549798,4.86260733 5.73219639,5.10214967 5.6989422,5.34369961 C5.68450038,5.44845946 5.65096114,5.54692277 5.6030751,5.63689943 C5.82122263,5.71948451 6.0508666,5.80115704 6.29457235,5.88328584 C6.85438299,6.02710251 7.35880163,5.97937654 7.77694939,5.82013792 C7.9046455,5.7894765 8.02930123,5.73901291 8.14531087,5.66518824 L10.864554,3.93217924 L14.2057456,5.83948382 C14.3960546,5.9481676 14.6051759,6 14.811542,6 C15.2165781,6 15.6112579,5.80070077 15.8333009,5.44198041 C16.1680281,4.90056909 15.9829448,4.20064917 15.4189536,3.87879552 Z" id="Shape"></path>
                <path d="M4.5,4.5 L2.60473435,4.3139225 L2,4 L2,4.3139225 L3,2 C3.14269424,1.62156176 2.99021344,1.14027054 2.60473435,1 C2.21925525,0.860003422 1.64288028,1.12156176 1.5,1.5 L1,2.5 L0.0460982575,4.55903066 C-0.0322254386,4.76697078 -0.00990039459,4.99975048 0.106654939,5.1897915 C0.223210273,5.37964987 0.42236827,5.50786591 0.646362879,5.53708894 L4.15790626,5.99360746 C4.19111477,5.99789959 4.22413723,6 4.2567876,6 C4.5342693,6 5.5,6 5.5,5.1897915 C5.5,4.78696507 4.90743205,4.55287542 4.5,4.5 Z" id="Shape"></path>
            </g>
        </g>
    </g>
</svg>