<?xml version="1.0" encoding="UTF-8" standalone="no"?>
<svg
   xmlns:dc="http://purl.org/dc/elements/1.1/"
   xmlns:cc="http://creativecommons.org/ns#"
   xmlns:rdf="http://www.w3.org/1999/02/22-rdf-syntax-ns#"
   xmlns:svg="http://www.w3.org/2000/svg"
   xmlns="http://www.w3.org/2000/svg"
   id="svg4121"
   version="1.1"
   viewBox="0 0 33.752663 8.7839899"
   height="8.7839899mm"
   width="33.752663mm">
  <defs
     id="defs4115" />
  <metadata
     id="metadata4118">
    <rdf:RDF>
      <cc:Work
         rdf:about="">
        <dc:format>image/svg+xml</dc:format>
        <dc:type
           rdf:resource="http://purl.org/dc/dcmitype/StillImage" />
        <dc:title></dc:title>
      </cc:Work>
    </rdf:RDF>
  </metadata>
  <g
     transform="translate(-85.554718,-154.90064)"
     id="layer1">
    <path
       id="path4965"
       d="M 85.754718,159.29264 H 119.10738"
       style="fill:none;stroke:#ebaeb3;stroke-width:1.41111;stroke-linecap:butt;stroke-linejoin:miter;stroke-miterlimit:10;stroke-opacity:1" />
    <path
       id="path4967"
       d="m 105.91817,159.29263 c 0,1.92512 -1.56131,3.48644 -3.48644,3.48644 -1.92649,0 -3.486432,-1.56132 -3.486432,-3.48644 0,-1.92512 1.559942,-3.48644 3.486432,-3.48644 1.92513,0 3.48644,1.56132 3.48644,3.48644"
       style="fill:#f5f5f8;fill-opacity:1;fill-rule:nonzero;stroke:none;stroke-width:0.352777" />
    <path
       id="path4969"
       d="m 105.91817,159.29264 c 0,1.92512 -1.56131,3.48644 -3.48643,3.48644 -1.9265,0 -3.486439,-1.56132 -3.486439,-3.48644 0,-1.92512 1.559939,-3.48644 3.486439,-3.48644 1.92512,0 3.48643,1.56132 3.48643,3.48644 z m 0,0"
       style="fill:none;stroke:#ebaeb3;stroke-width:1.41111;stroke-linecap:round;stroke-linejoin:round;stroke-miterlimit:10;stroke-opacity:1" />
  </g>
</svg>
