<?xml version="1.0" encoding="UTF-8" standalone="no"?>
<svg
   xmlns:dc="http://purl.org/dc/elements/1.1/"
   xmlns:cc="http://creativecommons.org/ns#"
   xmlns:rdf="http://www.w3.org/1999/02/22-rdf-syntax-ns#"
   xmlns:svg="http://www.w3.org/2000/svg"
   xmlns="http://www.w3.org/2000/svg"
   version="1.1"
   id="poster"
   x="0px"
   y="0px"
   viewBox="0 0 614.36 346.46999"
   xml:space="preserve"
   width="6.3995833in"
   height="3.6090624in"><metadata
   id="metadata51"><rdf:RDF><cc:Work
       rdf:about=""><dc:format>image/svg+xml</dc:format><dc:type
         rdf:resource="http://purl.org/dc/dcmitype/StillImage" /><dc:title></dc:title></cc:Work></rdf:RDF></metadata><defs
   id="defs49" />
<style
   type="text/css"
   id="style2">
	.st0{fill:#FDC300;}
	.st1{fill:#4EAF46;}
	.st2{fill:#E84C0A;}
	.st3{fill:#F6F7F8;}
</style>
<g
   id="g44"
   transform="translate(-118.02,-251.96)">
	<path
   class="st0"
   d="m 236.87,598.43 c -65.53,0 -118.85,-53.31 -118.85,-118.85 0,-65.54 53.31,-118.85 118.85,-118.85 65.53,0 118.85,53.31 118.85,118.85 0,65.54 -53.32,118.85 -118.85,118.85 z m 0,-234.69 c -63.88,0 -115.85,51.97 -115.85,115.85 0,63.88 51.97,115.85 115.85,115.85 63.88,0 115.85,-51.97 115.85,-115.85 0,-63.88 -51.97,-115.85 -115.85,-115.85 z"
   id="path4" />
	<path
   class="st1"
   d="m 236.87,572.58 c -51.28,0 -93,-41.72 -93,-93 0,-51.28 41.72,-93 93,-93 51.28,0 93,41.72 93,93 0,51.28 -41.72,93 -93,93 z m 0,-183 c -49.63,0 -90,40.37 -90,90 0,49.63 40.37,90 90,90 49.63,0 90,-40.37 90,-90 0,-49.63 -40.38,-90 -90,-90 z"
   id="path6" />
	<path
   class="st2"
   d="m 236.87,545.63 c -36.42,0 -66.05,-29.63 -66.05,-66.05 0,-36.42 29.63,-66.05 66.05,-66.05 36.42,0 66.05,29.63 66.05,66.05 0,36.42 -29.63,66.05 -66.05,66.05 z m 0,-129.1 c -34.77,0 -63.05,28.28 -63.05,63.05 0,34.77 28.28,63.05 63.05,63.05 34.77,0 63.05,-28.28 63.05,-63.05 0,-34.77 -28.29,-63.05 -63.05,-63.05 z"
   id="path8" />
	<path
   class="st1"
   d="m 613.53,598.43 c -65.53,0 -118.85,-53.31 -118.85,-118.85 0,-65.54 53.31,-118.85 118.85,-118.85 65.53,0 118.85,53.31 118.85,118.85 0,65.54 -53.32,118.85 -118.85,118.85 z m 0,-234.69 c -63.88,0 -115.85,51.97 -115.85,115.85 0,63.88 51.97,115.85 115.85,115.85 63.88,0 115.85,-51.97 115.85,-115.85 0,-63.88 -51.98,-115.85 -115.85,-115.85 z"
   id="path10" />
	<path
   class="st2"
   d="m 613.53,572.58 c -51.28,0 -93,-41.72 -93,-93 0,-51.28 41.72,-93 93,-93 51.28,0 93,41.72 93,93 0,51.28 -41.72,93 -93,93 z m 0,-183 c -49.63,0 -90,40.37 -90,90 0,49.63 40.37,90 90,90 49.63,0 90,-40.37 90,-90 0,-49.63 -40.38,-90 -90,-90 z"
   id="path12" />
	<path
   class="st0"
   d="m 613.53,545.63 c -36.42,0 -66.05,-29.63 -66.05,-66.05 0,-36.42 29.63,-66.05 66.05,-66.05 36.42,0 66.05,29.63 66.05,66.05 0,36.42 -29.63,66.05 -66.05,66.05 z m 0,-129.1 c -34.77,0 -63.05,28.28 -63.05,63.05 0,34.77 28.28,63.05 63.05,63.05 34.77,0 63.05,-28.28 63.05,-63.05 0,-34.77 -28.29,-63.05 -63.05,-63.05 z"
   id="path14" />
	<rect
   x="386.42001"
   y="293.29999"
   transform="matrix(0.7565,-0.654,0.654,0.7565,-166.8474,350.978)"
   width="3"
   height="212.5"
   id="rect16" />
	<polygon
   points="511.58,252.84 615.22,479.31 612.49,480.56 509.26,254.96 461.55,254.96 461.55,251.96 511.18,251.96 "
   id="polygon18" />
	<path
   d="M 458.33,481.43 H 234.81 l 1.1,-2.18 81.48,-161.48 h 223.3 z m -218.65,-3 h 216.8 L 535.82,320.78 H 319.23 Z"
   id="path20" />
	<rect
   x="288.54001"
   y="287.20999"
   width="64.459999"
   height="3"
   id="rect22" />
	<circle
   class="st3"
   cx="237.24001"
   cy="479.57999"
   r="7.6799998"
   id="circle24" />
	<path
   d="m 237.24,488.77 c -5.06,0 -9.18,-4.12 -9.18,-9.18 0,-5.06 4.12,-9.18 9.18,-9.18 5.06,0 9.18,4.12 9.18,9.18 0,5.06 -4.11,9.18 -9.18,9.18 z m 0,-15.37 c -3.41,0 -6.18,2.77 -6.18,6.18 0,3.41 2.77,6.18 6.18,6.18 3.41,0 6.18,-2.77 6.18,-6.18 0,-3.41 -2.77,-6.18 -6.18,-6.18 z"
   id="path26" />
	<circle
   class="st3"
   cx="457.39999"
   cy="479.57999"
   r="7.6799998"
   id="circle28" />
	<path
   d="m 457.4,488.77 c -5.06,0 -9.18,-4.12 -9.18,-9.18 0,-5.06 4.12,-9.18 9.18,-9.18 5.06,0 9.18,4.12 9.18,9.18 0,5.06 -4.11,9.18 -9.18,9.18 z m 0,-15.37 c -3.41,0 -6.18,2.77 -6.18,6.18 0,3.41 2.77,6.18 6.18,6.18 3.41,0 6.18,-2.77 6.18,-6.18 0,-3.41 -2.77,-6.18 -6.18,-6.18 z"
   id="path30" />
	<circle
   class="st3"
   cx="613.53003"
   cy="479.57999"
   r="7.6799998"
   id="circle32" />
	<path
   d="m 613.53,488.77 c -5.06,0 -9.18,-4.12 -9.18,-9.18 0,-5.06 4.12,-9.18 9.18,-9.18 5.06,0 9.18,4.12 9.18,9.18 0,5.06 -4.12,9.18 -9.18,9.18 z m 0,-15.37 c -3.41,0 -6.18,2.77 -6.18,6.18 0,3.41 2.77,6.18 6.18,6.18 3.41,0 6.18,-2.77 6.18,-6.18 0,-3.41 -2.77,-6.18 -6.18,-6.18 z"
   id="path34" />
	<circle
   class="st3"
   cx="538.25"
   cy="319.28"
   r="7.6799998"
   id="circle36" />
	<path
   d="m 538.25,328.47 c -5.06,0 -9.18,-4.12 -9.18,-9.18 0,-5.06 4.12,-9.18 9.18,-9.18 5.06,0 9.18,4.12 9.18,9.18 0,5.06 -4.11,9.18 -9.18,9.18 z m 0,-15.37 c -3.41,0 -6.18,2.77 -6.18,6.18 0,3.41 2.77,6.18 6.18,6.18 3.41,0 6.18,-2.77 6.18,-6.18 0,-3.41 -2.77,-6.18 -6.18,-6.18 z"
   id="path38" />
	<circle
   class="st3"
   cx="319.14999"
   cy="319.28"
   r="7.6799998"
   id="circle40" />
	<path
   d="m 319.15,328.47 c -5.06,0 -9.18,-4.12 -9.18,-9.18 0,-5.06 4.12,-9.18 9.18,-9.18 5.06,0 9.18,4.12 9.18,9.18 0,5.06 -4.12,9.18 -9.18,9.18 z m 0,-15.37 c -3.41,0 -6.18,2.77 -6.18,6.18 0,3.41 2.77,6.18 6.18,6.18 3.41,0 6.18,-2.77 6.18,-6.18 0,-3.41 -2.77,-6.18 -6.18,-6.18 z"
   id="path42" />
</g>
</svg>
