<?xml version="1.0" encoding="UTF-8" standalone="no"?>
<svg
   xmlns:dc="http://purl.org/dc/elements/1.1/"
   xmlns:cc="http://creativecommons.org/ns#"
   xmlns:rdf="http://www.w3.org/1999/02/22-rdf-syntax-ns#"
   xmlns:svg="http://www.w3.org/2000/svg"
   xmlns="http://www.w3.org/2000/svg"
   xmlns:sodipodi="http://sodipodi.sourceforge.net/DTD/sodipodi-0.dtd"
   xmlns:inkscape="http://www.inkscape.org/namespaces/inkscape"
   inkscape:export-ydpi="151.45445"
   inkscape:export-xdpi="151.45445"
   inkscape:export-filename="/data/work/anyways/projects/genk/cycling-frontend/instances/genk/assets/img/network1-icon.svg.50.png"
   width="8.3839798mm"
   height="8.3853598mm"
   viewBox="0 0 8.3839798 8.3853598"
   version="1.1"
   id="svg4155"
   inkscape:version="1.0 (1.0+r73+1)"
   sodipodi:docname="network1-icon.svg">
  <defs
     id="defs4149" />
  <sodipodi:namedview
     id="base"
     pagecolor="#ffffff"
     bordercolor="#666666"
     borderopacity="1.0"
     inkscape:pageopacity="0.0"
     inkscape:pageshadow="2"
     inkscape:zoom="2.8"
     inkscape:cx="7.8521494"
     inkscape:cy="18.701473"
     inkscape:document-units="mm"
     inkscape:current-layer="layer1"
     inkscape:document-rotation="0"
     showgrid="false"
     fit-margin-top="0"
     fit-margin-left="0"
     fit-margin-right="0"
     fit-margin-bottom="0"
     inkscape:window-width="1853"
     inkscape:window-height="1025"
     inkscape:window-x="67"
     inkscape:window-y="27"
     inkscape:window-maximized="1" />
  <metadata
     id="metadata4152">
    <rdf:RDF>
      <cc:Work
         rdf:about="">
        <dc:format>image/svg+xml</dc:format>
        <dc:type
           rdf:resource="http://purl.org/dc/dcmitype/StillImage" />
        <dc:title></dc:title>
      </cc:Work>
    </rdf:RDF>
  </metadata>
  <g
     inkscape:label="Layer 1"
     inkscape:groupmode="layer"
     id="layer1"
     transform="translate(-109.80035,-115.06067)">
    <path
       style="fill:#f5f5f8;fill-opacity:1;fill-rule:nonzero;stroke:none;stroke-width:0.352777"
       d="m 117.47878,119.25403 c 0,1.92512 -1.56132,3.48644 -3.48644,3.48644 -1.92649,0 -3.48643,-1.56132 -3.48643,-3.48644 0,-1.9265 1.55994,-3.48782 3.48643,-3.48782 1.92512,0 3.48644,1.56132 3.48644,3.48782"
       id="path4927" />
    <path
       style="fill:none;stroke:#fdc200;stroke-width:1.41111;stroke-linecap:round;stroke-linejoin:round;stroke-miterlimit:10;stroke-opacity:1"
       d="m 117.47878,119.25405 c 0,1.92511 -1.56132,3.48643 -3.48644,3.48643 -1.92649,0 -3.48643,-1.56132 -3.48643,-3.48643 0,-1.9265 1.55994,-3.48782 3.48643,-3.48782 1.92512,0 3.48644,1.56132 3.48644,3.48782 z m 0,0"
       id="path4929" />
    <g
       style="fill:#fdc200;fill-opacity:1"
       id="g4933"
       transform="matrix(1.5395853,0,0,1.5395853,-110.76889,-1139.8919)">
      <g
         id="use4931"
         transform="matrix(0.26458333,0,0,0.26458333,144.9863,818.81403)">
        <path
           id="path4734"
           d="M 3.265625,-5.140625 V 0 h 2.15625 v -8.359375 h -1.6875 c -0.09375,1.3125 -1.296875,1.75 -2.46875,1.71875 v 1.5 z m 0,0"
           style="stroke:none" />
      </g>
    </g>
  </g>
</svg>
