<?xml version="1.0" encoding="UTF-8" standalone="no"?>
<svg
   xmlns:dc="http://purl.org/dc/elements/1.1/"
   xmlns:cc="http://creativecommons.org/ns#"
   xmlns:rdf="http://www.w3.org/1999/02/22-rdf-syntax-ns#"
   xmlns:svg="http://www.w3.org/2000/svg"
   xmlns="http://www.w3.org/2000/svg"
   xmlns:sodipodi="http://sodipodi.sourceforge.net/DTD/sodipodi-0.dtd"
   xmlns:inkscape="http://www.inkscape.org/namespaces/inkscape"
   sodipodi:docname="network7.svg"
   inkscape:version="1.0 (1.0+r73+1)"
   id="svg8000"
   version="1.1"
   viewBox="0 0 33.352661 8.3839798"
   height="8.3839798mm"
   width="33.352661mm">
  <defs
     id="defs7994" />
  <sodipodi:namedview
     inkscape:window-maximized="1"
     inkscape:window-y="27"
     inkscape:window-x="67"
     inkscape:window-height="1025"
     inkscape:window-width="1853"
     showgrid="false"
     inkscape:document-rotation="0"
     inkscape:current-layer="layer1"
     inkscape:document-units="mm"
     inkscape:cy="22.423247"
     inkscape:cx="68.730893"
     inkscape:zoom="22.4"
     inkscape:pageshadow="2"
     inkscape:pageopacity="0.0"
     borderopacity="1.0"
     bordercolor="#666666"
     pagecolor="#ffffff"
     id="base" />
  <metadata
     id="metadata7997">
    <rdf:RDF>
      <cc:Work
         rdf:about="">
        <dc:format>image/svg+xml</dc:format>
        <dc:type
           rdf:resource="http://purl.org/dc/dcmitype/StillImage" />
        <dc:title></dc:title>
      </cc:Work>
    </rdf:RDF>
  </metadata>
  <g
     transform="translate(-67.990338,-110.71277)"
     id="layer1"
     inkscape:groupmode="layer"
     inkscape:label="Layer 1">
    <path
       id="path4985"
       d="M 67.990338,114.90476 H 101.343"
       style="fill:none;stroke:#4cae45;stroke-width:1.41111;stroke-linecap:butt;stroke-linejoin:miter;stroke-miterlimit:10;stroke-opacity:1" />
    <path
       id="path4987"
       d="m 88.153793,114.90474 c 0,1.92512 -1.561317,3.48644 -3.486439,3.48644 -1.926495,0 -3.486436,-1.56132 -3.486436,-3.48644 0,-1.92512 1.559941,-3.48643 3.486436,-3.48643 1.925122,0 3.486439,1.56131 3.486439,3.48643"
       style="fill:#f5f5f8;fill-opacity:1;fill-rule:nonzero;stroke:none;stroke-width:0.352777" />
    <path
       id="path4989"
       d="m 88.153794,114.90476 c 0,1.92512 -1.561318,3.48644 -3.486437,3.48644 -1.926497,0 -3.486436,-1.56132 -3.486436,-3.48644 0,-1.92512 1.559939,-3.48643 3.486436,-3.48643 1.925119,0 3.486437,1.56131 3.486437,3.48643 z m 0,0"
       style="fill:none;stroke:#4cae45;stroke-width:1.41111;stroke-linecap:round;stroke-linejoin:round;stroke-miterlimit:10;stroke-opacity:1" />
    <g
       transform="matrix(0.39766898,0,0,0.39766898,83.115357,116.4011)"
       style="fill:#4cae45;fill-opacity:1"
       id="use4991">
      <path
         style="stroke:none"
         d="m 0.71875,-6.515625 h 4.015625 v 0.03125 C 4.46875,-6.328125 3.625,-5.296875 3.046875,-4.015625 2.296875,-2.5625 1.984375,-0.984375 1.9375,0 h 2.203125 c 0.015625,-1.09375 0.1875,-2.546875 0.875,-4.015625 0.5625,-1.25 1.421875,-2.40625 1.78125,-2.703125 V -8.359375 H 0.71875 Z m 0,0"
         id="path8577" />
    </g>
  </g>
</svg>
