<?xml version="1.0" encoding="UTF-8" standalone="no"?>
<svg
   xmlns:dc="http://purl.org/dc/elements/1.1/"
   xmlns:cc="http://creativecommons.org/ns#"
   xmlns:rdf="http://www.w3.org/1999/02/22-rdf-syntax-ns#"
   xmlns:svg="http://www.w3.org/2000/svg"
   xmlns="http://www.w3.org/2000/svg"
   xmlns:sodipodi="http://sodipodi.sourceforge.net/DTD/sodipodi-0.dtd"
   xmlns:inkscape="http://www.inkscape.org/namespaces/inkscape"
   inkscape:export-ydpi="151.47932"
   inkscape:export-xdpi="151.47932"
   inkscape:export-filename="/data/work/anyways/projects/genk/cycling-frontend/instances/genk/assets/img/network7-icon.svg.50.png"
   width="8.3839827mm"
   height="8.3839798mm"
   viewBox="0 0 8.3839826 8.3839798"
   version="1.1"
   id="svg8000"
   inkscape:version="1.0 (1.0+r73+1)"
   sodipodi:docname="network7-icon.svg">
  <defs
     id="defs7994" />
  <sodipodi:namedview
     fit-margin-bottom="0"
     fit-margin-right="0"
     fit-margin-left="0"
     fit-margin-top="0"
     id="base"
     pagecolor="#ffffff"
     bordercolor="#666666"
     borderopacity="1.0"
     inkscape:pageopacity="0.0"
     inkscape:pageshadow="2"
     inkscape:zoom="7.919596"
     inkscape:cx="-8.7459881"
     inkscape:cy="30.174466"
     inkscape:document-units="mm"
     inkscape:current-layer="layer1"
     inkscape:document-rotation="0"
     showgrid="false"
     inkscape:window-width="1853"
     inkscape:window-height="1025"
     inkscape:window-x="67"
     inkscape:window-y="27"
     inkscape:window-maximized="1" />
  <metadata
     id="metadata7997">
    <rdf:RDF>
      <cc:Work
         rdf:about="">
        <dc:format>image/svg+xml</dc:format>
        <dc:type
           rdf:resource="http://purl.org/dc/dcmitype/StillImage" />
        <dc:title></dc:title>
      </cc:Work>
    </rdf:RDF>
  </metadata>
  <g
     inkscape:label="Layer 1"
     inkscape:groupmode="layer"
     id="layer1"
     transform="translate(-80.475366,-110.71277)">
    <path
       style="fill:#f5f5f8;fill-opacity:1;fill-rule:nonzero;stroke:none;stroke-width:0.352777"
       d="m 88.153793,114.90474 c 0,1.92512 -1.561317,3.48644 -3.486439,3.48644 -1.926495,0 -3.486436,-1.56132 -3.486436,-3.48644 0,-1.92512 1.559941,-3.48643 3.486436,-3.48643 1.925122,0 3.486439,1.56131 3.486439,3.48643"
       id="path4987" />
    <path
       style="fill:none;stroke:#4cae45;stroke-width:1.41111;stroke-linecap:round;stroke-linejoin:round;stroke-miterlimit:10;stroke-opacity:1"
       d="m 88.153794,114.90476 c 0,1.92512 -1.561318,3.48644 -3.486437,3.48644 -1.926497,0 -3.486436,-1.56132 -3.486436,-3.48644 0,-1.92512 1.559939,-3.48643 3.486436,-3.48643 1.925119,0 3.486437,1.56131 3.486437,3.48643 z m 0,0"
       id="path4989" />
    <g
       id="use4991"
       style="fill:#4cae45;fill-opacity:1"
       transform="matrix(0.39766898,0,0,0.39766898,83.115357,116.4011)">
      <path
         id="path8577"
         d="m 0.71875,-6.515625 h 4.015625 v 0.03125 C 4.46875,-6.328125 3.625,-5.296875 3.046875,-4.015625 2.296875,-2.5625 1.984375,-0.984375 1.9375,0 h 2.203125 c 0.015625,-1.09375 0.1875,-2.546875 0.875,-4.015625 0.5625,-1.25 1.421875,-2.40625 1.78125,-2.703125 V -8.359375 H 0.71875 Z m 0,0"
         style="stroke:none" />
    </g>
  </g>
</svg>
