<?xml version="1.0" encoding="UTF-8" standalone="no"?>
<svg
   xmlns:dc="http://purl.org/dc/elements/1.1/"
   xmlns:cc="http://creativecommons.org/ns#"
   xmlns:rdf="http://www.w3.org/1999/02/22-rdf-syntax-ns#"
   xmlns:svg="http://www.w3.org/2000/svg"
   xmlns="http://www.w3.org/2000/svg"
   xmlns:sodipodi="http://sodipodi.sourceforge.net/DTD/sodipodi-0.dtd"
   xmlns:inkscape="http://www.inkscape.org/namespaces/inkscape"
   inkscape:export-ydpi="151.47937"
   inkscape:export-xdpi="151.47937"
   inkscape:export-filename="/data/work/anyways/projects/genk/cycling-frontend/instances/genk/assets/img/network5-icon.svg.50.png"
   width="8.3839798mm"
   height="8.3839903mm"
   viewBox="0 0 8.3839798 8.3839903"
   version="1.1"
   id="svg6739"
   inkscape:version="1.0 (1.0+r73+1)"
   sodipodi:docname="network5-icon.svg">
  <defs
     id="defs6733" />
  <sodipodi:namedview
     id="base"
     pagecolor="#ffffff"
     bordercolor="#666666"
     borderopacity="1.0"
     inkscape:pageopacity="0.0"
     inkscape:pageshadow="2"
     inkscape:zoom="11.2"
     inkscape:cx="13.113861"
     inkscape:cy="6.2561662"
     inkscape:document-units="mm"
     inkscape:current-layer="layer1"
     inkscape:document-rotation="0"
     showgrid="false"
     inkscape:window-width="1853"
     inkscape:window-height="1025"
     inkscape:window-x="67"
     inkscape:window-y="27"
     inkscape:window-maximized="1" />
  <metadata
     id="metadata6736">
    <rdf:RDF>
      <cc:Work
         rdf:about="">
        <dc:format>image/svg+xml</dc:format>
        <dc:type
           rdf:resource="http://purl.org/dc/dcmitype/StillImage" />
        <dc:title></dc:title>
      </cc:Work>
    </rdf:RDF>
  </metadata>
  <g
     inkscape:label="Layer 1"
     inkscape:groupmode="layer"
     id="layer1"
     transform="translate(-99.374175,-177.23657)">
    <path
       style="fill:#f5f5f8;fill-opacity:1;fill-rule:nonzero;stroke:none;stroke-width:0.352777"
       d="m 107.0526,181.42856 c 0,1.92512 -1.56131,3.48644 -3.48644,3.48644 -1.92649,0 -3.48643,-1.56132 -3.48643,-3.48644 0,-1.92512 1.55994,-3.48643 3.48643,-3.48643 1.92513,0 3.48644,1.56131 3.48644,3.48643"
       id="path4967" />
    <path
       style="fill:none;stroke:#ebaeb3;stroke-width:1.41111;stroke-linecap:round;stroke-linejoin:round;stroke-miterlimit:10;stroke-opacity:1"
       d="m 107.0526,181.42857 c 0,1.92512 -1.56131,3.48644 -3.48643,3.48644 -1.9265,0 -3.48644,-1.56132 -3.48644,-3.48644 0,-1.92512 1.55994,-3.48644 3.48644,-3.48644 1.92512,0 3.48643,1.56132 3.48643,3.48644 z m 0,0"
       id="path4969" />
    <g
       style="fill:#ebaeb3;fill-opacity:1"
       id="g4973"
       transform="matrix(1.4497105,0,0,1.4497105,-108.03235,-1170.0382)">
      <g
         id="use4971"
         transform="matrix(0.26458333,0,0,0.26458333,144.9863,933.24268)">
        <path
           id="path7318"
           d="m 0.265625,-2.59375 c 0.125,2 1.5625,2.703125 3.375,2.703125 1.953125,0 3.4375,-1.03125 3.4375,-3.09375 0,-1.75 -1.09375,-2.734375 -2.8125,-2.734375 -0.625,0 -1.203125,0.203125 -1.625,0.609375 h -0.03125 l 0.3125,-1.53125 h 3.71875 v -1.71875 h -5.28125 l -0.8125,4.71875 h 1.84375 c 0.328125,-0.5 0.75,-0.625 1.328125,-0.625 0.84375,0 1.328125,0.5625 1.328125,1.375 0,0.8125 -0.609375,1.34375 -1.40625,1.34375 -0.609375,0 -1.328125,-0.390625 -1.34375,-1.046875 z m 0,0"
           style="stroke:none" />
      </g>
    </g>
  </g>
</svg>
