<?xml version="1.0" encoding="UTF-8" standalone="no"?>
<svg
   xmlns:dc="http://purl.org/dc/elements/1.1/"
   xmlns:cc="http://creativecommons.org/ns#"
   xmlns:rdf="http://www.w3.org/1999/02/22-rdf-syntax-ns#"
   xmlns:svg="http://www.w3.org/2000/svg"
   xmlns="http://www.w3.org/2000/svg"
   xmlns:sodipodi="http://sodipodi.sourceforge.net/DTD/sodipodi-0.dtd"
   xmlns:inkscape="http://www.inkscape.org/namespaces/inkscape"
   sodipodi:docname="network3.svg"
   inkscape:version="1.0 (1.0+r73+1)"
   id="svg5437"
   version="1.1"
   viewBox="0 0 33.352661 8.3839798"
   height="8.3839798mm"
   width="33.352661mm">
  <defs
     id="defs5431" />
  <sodipodi:namedview
     inkscape:window-maximized="1"
     inkscape:window-y="27"
     inkscape:window-x="67"
     inkscape:window-height="1025"
     inkscape:window-width="1853"
     fit-margin-bottom="0"
     fit-margin-right="0"
     fit-margin-left="0"
     fit-margin-top="0"
     showgrid="false"
     inkscape:document-rotation="0"
     inkscape:current-layer="layer1"
     inkscape:document-units="mm"
     inkscape:cy="-32.306406"
     inkscape:cx="12.615993"
     inkscape:zoom="2.8"
     inkscape:pageshadow="2"
     inkscape:pageopacity="0.0"
     borderopacity="1.0"
     bordercolor="#666666"
     pagecolor="#ffffff"
     id="base" />
  <metadata
     id="metadata5434">
    <rdf:RDF>
      <cc:Work
         rdf:about="">
        <dc:format>image/svg+xml</dc:format>
        <dc:type
           rdf:resource="http://purl.org/dc/dcmitype/StillImage" />
        <dc:title></dc:title>
      </cc:Work>
    </rdf:RDF>
  </metadata>
  <g
     transform="translate(-118.63915,-184.04015)"
     id="layer1"
     inkscape:groupmode="layer"
     inkscape:label="Layer 1">
    <path
       id="path4945"
       d="m 118.63915,188.23214 h 33.35266"
       style="fill:none;stroke:#e64a07;stroke-width:1.41111;stroke-linecap:butt;stroke-linejoin:miter;stroke-miterlimit:10;stroke-opacity:1" />
    <path
       id="path4947"
       d="m 138.8026,188.23215 c 0,1.92649 -1.56131,3.48643 -3.48644,3.48643 -1.92649,0 -3.48643,-1.55994 -3.48643,-3.48643 0,-1.92513 1.55994,-3.48644 3.48643,-3.48644 1.92513,0 3.48644,1.56131 3.48644,3.48644"
       style="fill:#f5f5f8;fill-opacity:1;fill-rule:nonzero;stroke:none;stroke-width:0.352777" />
    <path
       id="path4949"
       d="m 138.8026,188.23214 c 0,1.9265 -1.56131,3.48644 -3.48643,3.48644 -1.9265,0 -3.48644,-1.55994 -3.48644,-3.48644 0,-1.92512 1.55994,-3.48643 3.48644,-3.48643 1.92512,0 3.48643,1.56131 3.48643,3.48643 z m 0,0"
       style="fill:none;stroke:#e64a07;stroke-width:1.41111;stroke-linecap:round;stroke-linejoin:round;stroke-miterlimit:10;stroke-opacity:1" />
    <g
       transform="matrix(1.4659855,0,0,1.4659855,-78.66458,-1094.5485)"
       id="g4953"
       style="fill:#e64a07;fill-opacity:1">
      <g
         transform="matrix(0.26458333,0,0,0.26458333,144.9863,876.02881)"
         id="use4951">
        <path
           style="stroke:none"
           d="m 3.078125,-3.703125 c 0.1875,0 0.359375,-0.015625 0.546875,-0.015625 0.8125,0 1.484375,0.21875 1.484375,1.140625 0,0.734375 -0.65625,1.03125 -1.359375,1.03125 -1.03125,0 -1.515625,-0.5 -1.5,-1.484375 H 0.34375 c -0.109375,2.140625 1.46875,3.140625 3.421875,3.140625 1.65625,0 3.390625,-0.796875 3.390625,-2.6875 C 7.15625,-3.5625 6.6875,-4.25 5.71875,-4.5 v -0.03125 c 0.765625,-0.125 1.171875,-0.890625 1.171875,-1.625 0,-1.703125 -1.671875,-2.3125 -3.125,-2.3125 -1.78125,0 -3.140625,0.96875 -3.1875,2.84375 h 1.90625 c -0.015625,-0.765625 0.46875,-1.1875 1.296875,-1.1875 0.65625,0 1.203125,0.296875 1.203125,0.84375 0,0.71875 -0.765625,0.875 -1.359375,0.875 -0.1875,0 -0.359375,-0.03125 -0.546875,-0.015625 z m 0,0"
           id="path6016" />
      </g>
    </g>
  </g>
</svg>
