<?xml version="1.0" encoding="UTF-8" standalone="no"?>
<svg
   xmlns:dc="http://purl.org/dc/elements/1.1/"
   xmlns:cc="http://creativecommons.org/ns#"
   xmlns:rdf="http://www.w3.org/1999/02/22-rdf-syntax-ns#"
   xmlns:svg="http://www.w3.org/2000/svg"
   xmlns="http://www.w3.org/2000/svg"
   xmlns:sodipodi="http://sodipodi.sourceforge.net/DTD/sodipodi-0.dtd"
   xmlns:inkscape="http://www.inkscape.org/namespaces/inkscape"
   inkscape:export-ydpi="151.47937"
   inkscape:export-xdpi="151.47937"
   inkscape:export-filename="/data/work/anyways/projects/genk/cycling-frontend/instances/genk/assets/img/network2-icon.svg.50.png"
   width="8.3839798mm"
   height="8.3839903mm"
   viewBox="0 0 8.3839799 8.3839903"
   version="1.1"
   id="svg4775"
   inkscape:version="1.0 (1.0+r73+1)"
   sodipodi:docname="network2-icon.svg">
  <defs
     id="defs4769" />
  <sodipodi:namedview
     id="base"
     pagecolor="#ffffff"
     bordercolor="#666666"
     borderopacity="1.0"
     inkscape:pageopacity="0.0"
     inkscape:pageshadow="2"
     inkscape:zoom="5.6"
     inkscape:cx="-19.116749"
     inkscape:cy="34.482393"
     inkscape:document-units="mm"
     inkscape:current-layer="layer1"
     inkscape:document-rotation="0"
     showgrid="false"
     inkscape:window-width="1853"
     inkscape:window-height="1025"
     inkscape:window-x="67"
     inkscape:window-y="27"
     inkscape:window-maximized="1"
     fit-margin-top="0"
     fit-margin-left="0"
     fit-margin-right="0"
     fit-margin-bottom="0" />
  <metadata
     id="metadata4772">
    <rdf:RDF>
      <cc:Work
         rdf:about="">
        <dc:format>image/svg+xml</dc:format>
        <dc:type
           rdf:resource="http://purl.org/dc/dcmitype/StillImage" />
        <dc:title></dc:title>
      </cc:Work>
    </rdf:RDF>
  </metadata>
  <g
     inkscape:label="Layer 1"
     inkscape:groupmode="layer"
     id="layer1"
     transform="translate(-108.4456,-205.20681)">
    <path
       style="fill:#f5f5f8;fill-opacity:1;fill-rule:nonzero;stroke:none;stroke-width:0.352777"
       d="m 116.12403,209.3988 c 0,1.92512 -1.56132,3.48644 -3.48644,3.48644 -1.92649,0 -3.48643,-1.56132 -3.48643,-3.48644 0,-1.92512 1.55994,-3.48644 3.48643,-3.48644 1.92512,0 3.48644,1.56132 3.48644,3.48644"
       id="path4937" />
    <path
       style="fill:none;stroke:#2b87c2;stroke-width:1.41111;stroke-linecap:round;stroke-linejoin:round;stroke-miterlimit:10;stroke-opacity:1"
       d="m 116.12403,209.39881 c 0,1.92512 -1.56132,3.48644 -3.48644,3.48644 -1.92649,0 -3.48643,-1.56132 -3.48643,-3.48644 0,-1.92512 1.55994,-3.48644 3.48643,-3.48644 1.92512,0 3.48644,1.56132 3.48644,3.48644 z m 0,0"
       id="path4939" />
    <g
       style="fill:#2b87c2;fill-opacity:1"
       id="g4943"
       transform="matrix(1.4990803,0,0,1.4990803,-106.16024,-1059.4575)">
      <g
         id="use4941"
         transform="matrix(0.26458333,0,0,0.26458333,144.9863,847.42139)">
        <path
           id="path5354"
           d="M 7.09375,0 V -1.734375 H 3.125 c 0.53125,-0.515625 0.875,-0.71875 1.5,-1.125 1.234375,-0.75 2.390625,-1.359375 2.390625,-2.953125 0,-1.796875 -1.484375,-2.65625 -3.140625,-2.65625 -2.09375,0 -3.40625,1.40625 -3.28125,3.484375 H 2.5 C 2.515625,-5.90625 2.8125,-6.6875 3.890625,-6.6875 c 0.640625,0 1.078125,0.40625 1.078125,1.046875 0,0.5625 -0.453125,0.96875 -1.09375,1.390625 C 3.234375,-3.84375 2.40625,-3.40625 1.6875,-2.78125 0.859375,-2.078125 0.390625,-1.0625 0.390625,0 Z m 0,0"
           style="stroke:none" />
      </g>
    </g>
  </g>
</svg>
