<?xml version="1.0" encoding="UTF-8" standalone="no"?>
<svg
   xmlns:dc="http://purl.org/dc/elements/1.1/"
   xmlns:cc="http://creativecommons.org/ns#"
   xmlns:rdf="http://www.w3.org/1999/02/22-rdf-syntax-ns#"
   xmlns:svg="http://www.w3.org/2000/svg"
   xmlns="http://www.w3.org/2000/svg"
   xmlns:sodipodi="http://sodipodi.sourceforge.net/DTD/sodipodi-0.dtd"
   xmlns:inkscape="http://www.inkscape.org/namespaces/inkscape"
   sodipodi:docname="network2.svg"
   inkscape:version="1.0 (1.0+r73+1)"
   id="svg4775"
   version="1.1"
   viewBox="0 0 33.352654 8.3839903"
   height="8.3839903mm"
   width="33.352654mm">
  <defs
     id="defs4769" />
  <sodipodi:namedview
     fit-margin-bottom="0"
     fit-margin-right="0"
     fit-margin-left="0"
     fit-margin-top="0"
     inkscape:window-maximized="1"
     inkscape:window-y="27"
     inkscape:window-x="67"
     inkscape:window-height="1025"
     inkscape:window-width="1853"
     showgrid="false"
     inkscape:document-rotation="0"
     inkscape:current-layer="layer1"
     inkscape:document-units="mm"
     inkscape:cy="34.482412"
     inkscape:cx="28.070762"
     inkscape:zoom="5.6"
     inkscape:pageshadow="2"
     inkscape:pageopacity="0.0"
     borderopacity="1.0"
     bordercolor="#666666"
     pagecolor="#ffffff"
     id="base" />
  <metadata
     id="metadata4772">
    <rdf:RDF>
      <cc:Work
         rdf:about="">
        <dc:format>image/svg+xml</dc:format>
        <dc:type
           rdf:resource="http://purl.org/dc/dcmitype/StillImage" />
        <dc:title></dc:title>
      </cc:Work>
    </rdf:RDF>
  </metadata>
  <g
     transform="translate(-95.960576,-205.20681)"
     id="layer1"
     inkscape:groupmode="layer"
     inkscape:label="Layer 1">
    <path
       id="path4935"
       d="M 95.960576,209.39881 H 129.31323"
       style="fill:none;stroke:#2b87c2;stroke-width:1.41111;stroke-linecap:butt;stroke-linejoin:miter;stroke-miterlimit:10;stroke-opacity:1" />
    <path
       id="path4937"
       d="m 116.12403,209.3988 c 0,1.92512 -1.56132,3.48644 -3.48644,3.48644 -1.92649,0 -3.48643,-1.56132 -3.48643,-3.48644 0,-1.92512 1.55994,-3.48644 3.48643,-3.48644 1.92512,0 3.48644,1.56132 3.48644,3.48644"
       style="fill:#f5f5f8;fill-opacity:1;fill-rule:nonzero;stroke:none;stroke-width:0.352777" />
    <path
       id="path4939"
       d="m 116.12403,209.39881 c 0,1.92512 -1.56132,3.48644 -3.48644,3.48644 -1.92649,0 -3.48643,-1.56132 -3.48643,-3.48644 0,-1.92512 1.55994,-3.48644 3.48643,-3.48644 1.92512,0 3.48644,1.56132 3.48644,3.48644 z m 0,0"
       style="fill:none;stroke:#2b87c2;stroke-width:1.41111;stroke-linecap:round;stroke-linejoin:round;stroke-miterlimit:10;stroke-opacity:1" />
    <g
       transform="matrix(1.4990803,0,0,1.4990803,-106.16024,-1059.4575)"
       id="g4943"
       style="fill:#2b87c2;fill-opacity:1">
      <g
         transform="matrix(0.26458333,0,0,0.26458333,144.9863,847.42139)"
         id="use4941">
        <path
           style="stroke:none"
           d="M 7.09375,0 V -1.734375 H 3.125 c 0.53125,-0.515625 0.875,-0.71875 1.5,-1.125 1.234375,-0.75 2.390625,-1.359375 2.390625,-2.953125 0,-1.796875 -1.484375,-2.65625 -3.140625,-2.65625 -2.09375,0 -3.40625,1.40625 -3.28125,3.484375 H 2.5 C 2.515625,-5.90625 2.8125,-6.6875 3.890625,-6.6875 c 0.640625,0 1.078125,0.40625 1.078125,1.046875 0,0.5625 -0.453125,0.96875 -1.09375,1.390625 C 3.234375,-3.84375 2.40625,-3.40625 1.6875,-2.78125 0.859375,-2.078125 0.390625,-1.0625 0.390625,0 Z m 0,0"
           id="path5354" />
      </g>
    </g>
  </g>
</svg>
