<?xml version="1.0" encoding="UTF-8" standalone="no"?>
<svg
   xmlns:dc="http://purl.org/dc/elements/1.1/"
   xmlns:cc="http://creativecommons.org/ns#"
   xmlns:rdf="http://www.w3.org/1999/02/22-rdf-syntax-ns#"
   xmlns:svg="http://www.w3.org/2000/svg"
   xmlns="http://www.w3.org/2000/svg"
   xmlns:sodipodi="http://sodipodi.sourceforge.net/DTD/sodipodi-0.dtd"
   xmlns:inkscape="http://www.inkscape.org/namespaces/inkscape"
   sodipodi:docname="network4.svg"
   inkscape:version="1.0 (1.0+r73+1)"
   id="svg6068"
   version="1.1"
   viewBox="0 0 33.352657 8.3839798"
   height="8.3839798mm"
   width="33.352657mm">
  <defs
     id="defs6062" />
  <sodipodi:namedview
     fit-margin-bottom="0"
     fit-margin-right="0"
     fit-margin-left="0"
     fit-margin-top="0"
     inkscape:window-maximized="1"
     inkscape:window-y="27"
     inkscape:window-x="67"
     inkscape:window-height="1025"
     inkscape:window-width="1853"
     showgrid="false"
     inkscape:document-rotation="0"
     inkscape:current-layer="layer1"
     inkscape:document-units="mm"
     inkscape:cy="-17.337507"
     inkscape:cx="38.214519"
     inkscape:zoom="3.959798"
     inkscape:pageshadow="2"
     inkscape:pageopacity="0.0"
     borderopacity="1.0"
     bordercolor="#666666"
     pagecolor="#ffffff"
     id="base" />
  <metadata
     id="metadata6065">
    <rdf:RDF>
      <cc:Work
         rdf:about="">
        <dc:format>image/svg+xml</dc:format>
        <dc:type
           rdf:resource="http://purl.org/dc/dcmitype/StillImage" />
        <dc:title></dc:title>
      </cc:Work>
    </rdf:RDF>
  </metadata>
  <g
     transform="translate(-61.942719,-143.97467)"
     id="layer1"
     inkscape:groupmode="layer"
     inkscape:label="Layer 1">
    <path
       id="path4955"
       d="M 61.942719,148.16667 H 95.295377"
       style="fill:none;stroke:#853d07;stroke-width:1.41111;stroke-linecap:butt;stroke-linejoin:miter;stroke-miterlimit:10;stroke-opacity:1" />
    <path
       id="path4957"
       d="m 82.106174,148.16665 c 0,1.92512 -1.561317,3.48644 -3.486439,3.48644 -1.926495,0 -3.486436,-1.56132 -3.486436,-3.48644 0,-1.92512 1.559941,-3.48644 3.486436,-3.48644 1.925122,0 3.486439,1.56132 3.486439,3.48644"
       style="fill:#f5f5f8;fill-opacity:1;fill-rule:nonzero;stroke:none;stroke-width:0.352777" />
    <path
       id="path4959"
       d="m 82.106175,148.16667 c 0,1.92512 -1.561318,3.48643 -3.486437,3.48643 -1.926497,0 -3.486436,-1.56131 -3.486436,-3.48643 0,-1.92512 1.559939,-3.48644 3.486436,-3.48644 1.925119,0 3.486437,1.56132 3.486437,3.48644 z m 0,0"
       style="fill:none;stroke:#853d07;stroke-width:1.41111;stroke-linecap:round;stroke-linejoin:round;stroke-miterlimit:10;stroke-opacity:1" />
    <g
       transform="matrix(1.5008976,0,0,1.5008976,-140.43702,-1208.1038)"
       id="g4963"
       style="fill:#853d07;fill-opacity:1">
      <g
         transform="matrix(0.26458333,0,0,0.26458333,144.9863,904.63672)"
         id="use4961">
        <path
           style="stroke:none"
           d="M 6.078125,-3.59375 V -8.359375 H 4.109375 L 0.375,-3.765625 v 1.90625 H 4.03125 V 0 H 6.078125 V -1.859375 H 7.15625 V -3.59375 Z m -4.125,0 2.109375,-2.6875 h 0.03125 v 2.6875 z m 0,0"
           id="path6647" />
      </g>
    </g>
  </g>
</svg>
