<?xml version="1.0" encoding="UTF-8" standalone="no"?>
<svg xmlns:rdf="http://www.w3.org/1999/02/22-rdf-syntax-ns#" xmlns="http://www.w3.org/2000/svg" data-name="Laag 1" viewBox="0 0 24 24" height="24" width="24" version="1.1" xmlns:cc="http://creativecommons.org/ns#" xmlns:dc="http://purl.org/dc/elements/1.1/">
 <metadata>
  <rdf:RDF>
   <cc:Work rdf:about="">
    <dc:format>image/svg+xml</dc:format>
    <dc:type rdf:resource="http://purl.org/dc/dcmitype/StillImage"/>
    <dc:title>logo</dc:title>
   </cc:Work>
  </rdf:RDF>
 </metadata>
 <defs>
  <style>.cls-1{fill:none;stroke:#2D4959;stroke-miterlimit:12;stroke-width:3px;}.cls-2{fill:#2D4959;}.cls-3{fill:#fff;}.cls-4{fill:#2D4959;}.cls-5{fill:#2D4959;fill-rule:evenodd;}.cls-6{fill:#2D4959;}</style>
 </defs>
 <title>logo</title>
 <g fill="#2d4959">
  <path d="m11.423 9.9109c-0.05224 0-0.09312 0.04281-0.14309 0.04958 0 0.0293 0.04315 0.04732 0.04769 0.08563 0.0045 0.0383 0 0.01577-0.05451 0.01802-0.05451 0.0022-0.06132-0.05634-0.11129-0.09915-0.02499 0-0.03407 0.04507-0.08631 0.04732-0.05224 0.0022-0.02499-0.04056-0.07722-0.0383-0.05224 0.0022 0.01363 0.04281-0.04089 0.04507-0.05451 0.0022-0.03407-0.04056-0.06132-0.0383-0.04316 0.04732-0.05905 0.11267-0.09312 0.15548-0.0159-0.01802-0.01363-0.05183-0.02044-0.10366h-0.10221v0.08788a0.50196 0.49799 0 0 1 -0.14991 0.0293v0.08788a0.49969 0.49574 0 0 1 -0.14764 0.0293c0 0.0293 0 0.06309-0.01136 0.08337s-0.0318-0.03155-0.03862-0.08112c-0.05678 0-0.11811 0.12394-0.14991 0.2028-0.0159 0-0.02953-0.03155-0.03407-0.06084h-0.09994a0.13855 0.13746 0 0 1 -0.10448 0.07211c0 0.07211-0.036345 0.13971-0.034066 0.19154 0.00227 0.05183 0.047694 0.04958 0.052243 0.08788-0.10448 0.04958-0.024987 0.11943-0.12492 0.22534-0.015898-0.03605-0.022717-0.08112-0.059053-0.1014v0.09239c0 0.05408 0.040885 0 0.045425 0.06309s-0.038615 0.06309-0.052243 0.1014c-0.015898 0-0.040885-0.04056-0.093123-0.03155a0.32253 0.31998 0 0 0 0.11357 0.08563l-0.013628 0.09464c-0.013628 0-0.024986-0.01126-0.031796-0.04056l-0.081769 0.03155a0.2135 0.21182 0 0 1 0.13401 0.05634c-0.020438 0.01352-0.043155 0.09689-0.14082 0.11267v0.08112h0.08858c0.020438 0.0383 0.063601 0.07211 0.068141 0.12619a0.25666 0.25463 0 0 1 -0.095395 0.169 0.084038 0.083375 0 0 0 0.074951 -0.04056h0.074951a1.3423 1.3317 0 0 1 -0.14082 0.13746 0.66776 0.66249 0 0 1 0.15218 0.01352c0 0.01577 0 0.02704-0.038615 0.0338 0 0.04958 0.043155 0.04732 0.047694 0.1014 0.00454 0.05409-0.038615 0.05633-0.031796 0.10816a0.15672 0.15548 0 0 1 0.16581 0.06084 0.40429 0.4011 0 0 0 -0.095395 0.14422h0.14536c0-0.0293 0-0.0383 0.04996-0.06535a0.42701 0.42363 0 0 1 0.12719 0.2366c0 0.05408-0.03862 0.05633-0.0318 0.10591 0.02953 0 0.0318-0.04507 0.04997-0.06535s0.04996 0 0.05678 0.05858h0.0795c0-0.0293 0-0.06084 0.02499-0.06309 0.02499-0.0022 0.0159 0.02028 0.02044 0.07436 0 0.10591 0 0.04732-0.07495 0.13971h0.08177c0-0.02704 0-0.0383 0.04769-0.06309a0.59281 0.58813 0 0 0 0.12265 0.20506c0.02726 0 0.05678-0.0293 0.07041-0.06985h0.05678c0.01817 0.01802 0.0159 0.03155 0.02272 0.06084 0.04997 0 0.05224-0.04507 0.08631-0.0676 0.01817 0.03605 0.06132 0.07211 0.06587 0.12394 0.0045 0.05183-0.03861 0.05634-0.03407 0.08562 0.0045 0.0293 0.03407-0.04507 0.04997-0.06535a0.26801 0.2659 0 0 1 0.2612 0.1307c0.02726 0 0.03407-0.02479 0.04769-0.04507h0.09539a0.31344 0.31096 0 0 0 -0.09539 0.13971c0.05451-0.02253 0.09539-0.09239 0.15218-0.15774l0.09767 0.01126c0 0.01352-0.04088 0.03155-0.06132 0.0676l0.1976-0.01352c0.02044 0.04056 0.02499 0.08563 0.06132 0.10591a0.68139 0.67601 0 0 1 0 -0.15098 0.19533 0.19379 0 0 1 0.11129 0.09915 0.24984 0.24787 0 0 1 0.15445 -0.11718c0.05451 0 0.02499 0.04056 0.0795 0.0383 0.05451-0.0022 0.08631-0.10365 0.17943-0.01577v-0.10816s-0.01817-0.01577 0.03407-0.01802c0.05224-0.0022 0.03407 0 0.04316 0.0383a0.28846 0.28618 0 0 1 0.18169 -0.05858c-0.01363-0.03605 0.02499-0.09915 0.04997-0.15098a0.061325 0.060841 0 0 1 0.05905 0.0383 0.29527 0.29294 0 0 1 0.13855 -0.05408c0-0.07211 0.03861-0.12844 0.03407-0.18027-0.0045-0.05183 0-0.07436-0.04997-0.08337a0.45426 0.45067 0 0 1 0.14309 -0.10816c0-0.02704-0.04542-0.0293-0.06814-0.06309 0.11129-0.09239 0.10675-0.13746 0.20215-0.18252v-0.09915c-0.02953 0-0.04315 0-0.06359-0.01352v-0.05633c0.01817-0.01802 0.0318-0.01577 0.06132-0.02028 0.02953-0.0045-0.02953-0.05858-0.06814-0.07211v-0.05408c0.01817-0.01802 0.07495-0.02028 0.10448-0.02479a0.097666 0.096895 0 0 0 -0.04542 -0.06986c0.01817-0.0383 0.03634-0.05859 0.07495-0.13746-0.0318 0-0.08404 0.03155-0.08631-0.02028-0.0023-0.05183 0-0.02253 0.04089-0.03155-0.02499-0.03155-0.05678-0.09689-0.11584-0.11041 0-0.01577 0.0318-0.02704 0.06132-0.0338 0.02953-0.0068-0.04542-0.03381-0.06587-0.04958-0.02044-0.01577 0-0.04958 0.05905-0.05858a0.84493 0.83825 0 0 0 -0.12038 -0.20055 0.25666 0.25463 0 0 1 0.09539 -0.169c-0.0318 0-0.05678 0.01803-0.09085 0.04056a1.4105 1.3993 0 0 1 -0.13401 -0.29068 0.74272 0.73685 0 0 1 -0.0159 0.15323c-0.0159 0-0.03635-0.04056-0.07495-0.05183 0.03862-0.03605 0.03407-0.09915 0.07495-0.14872 0-0.02479-0.04543-0.04507-0.05224-0.09464-0.07268 0-0.19533-0.06535-0.19988-0.10816-0.0045-0.04281 0.03862-0.04507 0.03407-0.07436h-0.10222a0.22713 0.22534 0 0 1 -0.02272 0.14872 1.817 1.8027 0 0 1 -0.03407 -0.25012 0.68139 0.67601 0 0 1 -0.36114 -0.17126c-0.02726 0-0.0318 0.04732-0.04769 0.0676h-0.07722c-0.01817-0.01803-0.01363 0-0.01817-0.05183-0.0045-0.05183 0.0159-0.05858 0.03634-0.09239-0.07495 0-0.09312 0.04281-0.13401 0.04507a0.42246 0.41913 0 0 0 -0.17035 -0.13745 0.37022 0.3673 0 0 1 -0.01363 0.10816c-0.0159 0-0.02953-0.03155-0.03407-0.06084-0.0045-0.0293-0.02953 0.04281-0.08631 0.0676-0.01817-0.01802-0.01363 0-0.0159-0.05183-0.0023-0.05183 0.03634-0.05858 0.05678-0.09464z" fill-rule="evenodd" class="cls-5" stroke-width=".22623"/>
  <polygon transform="matrix(.22713 0 0 .22534 -63.112 -3.0798)" points="343.93 87.72 343.94 87.72" class="cls-4"/>
  <polygon transform="matrix(.22713 0 0 .22534 -63.112 -3.0798)" points="319.8 89.4 319.8 89.41" class="cls-4"/>
  <g stroke-width=".22623">
   <path d="m14.06 16.004v0.06309h0.05905a0.17489 0.17351 0 0 0 -0.05905 -0.06309z" class="cls-4"/>
   <path d="m7.6412 15.849 0.043155-0.02479h-0.056783z" class="cls-4"/>
   <path d="m9.8852 16.356h0.088582l-0.013628-0.01577h-0.077221z" class="cls-4"/>
   <path d="m15.984 15.752a1.0107 1.0027 0 0 0 0.08631 -0.14422l0.05678 0.10366c0-0.09464 0.07041-0.1983 0.04997-0.28843 0.03634-0.01127 0.09767 0 0.09539 0.04281 0.05224-0.02479 0.15218-0.15098 0.22713-0.11267l-0.0159-0.01577a0.69275 0.68728 0 0 0 0.07495 -0.12394l0.0159-0.02028 0.04769 0.01577 0.04769 0.01577-0.0159-0.01803-0.04316-0.03381 0.08177-0.03605c0-0.08112 0.03407-0.15999 0.02953-0.24111l0.10448-0.02479-0.04316-0.04958a0.31344 0.31096 0 0 1 0.14082 -0.11267v-0.14422l0.05224 0.0383 0.09767-0.04958-0.06587-0.04958-0.01136-0.17126 0.11129 0.01127c-0.05678 0.02479-0.02953 0.09689 0 0.13295 0.03407-0.41687 0.04315-0.1645 0.22713-0.41687l-0.10902-0.01577v-0.07662l0.10448-0.02479a1.3878 1.3768 0 0 1 0 -0.22534l0.0318 0.04056h0.10221l-0.06587-0.04957v-0.07662c0.14536-0.06309 0.11357-0.24562 0.14309-0.3718l0.09312 0.03605c-0.01136-0.15548-0.04542-0.45067 0.11357-0.54531l-0.07041-0.06985v-0.05409l0.13401-0.25012c-0.09994-0.12394 0-0.13295-0.01817-0.25238l0.10448-0.02704c-0.04089-0.08563-0.11584-0.26139 0.02272-0.2997l-0.06587-0.08112-0.02726-0.0338 0.08177-0.03605 0.05905-0.11267-0.06814-0.04732 0.05905-0.03605v-0.10137l-0.10675-0.02704 0.10448-0.02253-0.01817-0.25012c-0.15899 0-0.01363-0.12619 0.03407-0.1645-0.04089-0.10366-0.22713-0.28618-0.07041-0.37631l-0.11584-0.10816v-0.07662c0.0477-0.03605 0.12719-0.04056 0.14309-0.10816h-0.133l-0.01817-0.0338a0.34297 0.34026 0 0 1 0.09767 -0.1307l-0.07041-0.06986 0.06132-0.0338-0.06587-0.04958 0.05905-0.05633v-0.14196c-0.09539 0-0.20669-0.14196-0.12265-0.22534h-0.15218a0.20442 0.2028 0 0 1 0.09994 -0.10365l-0.06587-0.04957 0.05905-0.03605v-0.1442h-0.08858l-0.07268-0.05183 0.03862-0.05633a0.36795 0.36505 0 0 0 -0.038 -0.1683l-0.0159 0.10816-0.10221-0.074361 0.06132-0.067601-0.10902-0.015773a0.22713 0.22534 0 0 1 0.102 -0.1059l-0.115-0.1037a2.294 2.2759 0 0 0 0.13628 -0.18478l-0.05224 0.063094h-0.07722c-0.0159 0.04056-0.03407-0.076614 0.01817-0.10591-0.06132 0-0.11584-0.038307-0.17716-0.031547l-0.01817-0.031547c0.09993-0.1645-0.04998-0.1014-0.05679-0.20055l0.04088-0.045067-0.05451-0.12168-0.04997 0.042814a0.19079 0.18928 0 0 1 -0.111 -0.1825l-0.08404 0.047321-0.02272-0.074361 0.10448-0.022534-0.05224-0.099148c-0.02272 0-0.14536 0-0.11129 0.049574a1.0198 1.0118 0 0 0 -0.15 -0.1037c-0.04089 0-0.07041-0.056334-0.08631-0.081121h-0.03407l0.06132-0.067601c-0.0477 0.011267-0.09994 0.036054-0.15218 0.047321v0.00901h-0.02726a0.15218 0.15098 0 0 1 -0.07722 0 0.19306 0.19154 0 0 0 0.02953 -0.038307 0.072682 0.072108 0 0 1 0 -0.036054h0.03407a0.20669 0.20506 0 0 1 0.0477 -0.060841l-0.07268 0.04056c-0.11357-0.10365-0.33161-0.11492-0.29527-0.31772-0.09539 0-0.18852-0.02704-0.28618-0.024787-0.06587-0.11267-0.22713-0.14647-0.2612-0.28392a0.17489 0.17351 0 0 1 -0.18625 0.04056l0.03634-0.069854h-0.06587l0.0159-0.10591-0.05224 0.042814a1.197 1.1875 0 0 0 -0.275 -0.0225 0.40656 0.40335 0 0 0 -0.181 -0.1555l0.0318-0.092388-0.08858 0.11267h-0.07722l-0.02499-0.10365h-0.10675v-0.051827h-0.08177v0.096895c0.0795 0.078868 0.20896 0.078868 0.16808 0.22534h0.08177l-0.04542-0.047321 0.08858-0.1014a0.34751 0.34476 0 0 1 -0.02953 0.25688 0.32707 0.32448 0 0 0 0.12719 -0.11267 0.71773 0.71206 0 0 1 0.10221 0.29068h0.13174a0.48152 0.47771 0 0 0 0.11129 0.11718l-0.03862 0.0338v0.1014l0.04997-0.065347c0.08631 0 0.17262 0.11492 0.25666 0.14872l-0.05905 0.087881 0.09312-0.042814 0.0159 0.040561-0.02499 0.096895 0.06587-0.065347a1.5649 1.5526 0 0 1 0.03862 0.31322 0.65868 0.65348 0 0 1 0.25666 -0.018027l-0.04089 0.0338c0.03407 0.060841 0.10675 0.081121 0.15899 0.12168a0.22713 0.22534 0 0 0 -0.14309 0.081121 0.30436 0.30195 0 0 1 0.1976 0.049574l-0.03407 0.090135c0.11356-0.01352 0.15445 0.11492 0.24757 0.15323l-0.08404 0.038307a0.29073 0.28843 0 0 1 0.05905 0.18027l0.06587-0.045067-0.0159 0.14422 0.10902 0.01352a0.53149 0.52729 0 0 0 -0.09767 0.13746l0.10902 0.01352-0.06132 0.0338 0.06587 0.049574-0.05905 0.090135c0.07041 0 0.15218-0.096895 0.2135-0.02028l-0.10448 0.022533c0 0.11943-0.10902 0.16224 0.04996 0.25012l-0.04088-0.07436 0.01363-0.07661h0.13401l-0.03861 0.05183 0.04542 0.05183-0.03634 0.05633v0.14422l0.06587-0.06535c0.04316 0.11042-0.02726 0.12168-0.05678 0.21407l0.04997-0.06309 0.09994 0.07211-0.10221 0.08563c0.02272 0.10366 0.16353 0.13971 0.16808 0.25012 0 0.0293-0.03634 0.08562-0.02953 0.13746a0.81313 0.8067 0 0 1 0.1976 0.04958l-0.04089 0.03155 0.04543 0.06986a0.55193 0.54757 0 0 0 -0.02953 0.14422h-0.11129a0.42246 0.41913 0 0 1 0.05678 0.13746h0.10675l-0.09767 0.13971h0.09085l0.07268 0.17802-0.0795 0.0676 0.04542 0.04958a0.37249 0.36955 0 0 1 -0.09085 0.24562h0.13628c0.03635 0.08788-0.04088 0.47997-0.02499 0.61066h-0.14991a0.14991 0.14872 0 0 1 0.04089 0.05408 0.10448 0.10365 0 0 1 -0.0318 0.12619l0.08858 0.01802-0.08404 0.0383c0.02499 0.05183 0.09085 0.08788 0.09539 0.14872a0.12492 0.12394 0 0 1 -0.13855 0.10816v0.1014l0.07268-0.0676h0.05451c0.07495 0.09689-0.09085 0.2659-0.12719 0.35378h-0.05451l-0.02272-0.04507 0.04088-0.0383-0.09994 0.04958 0.06814 0.04958v0.07662l-0.10448 0.06309c0.02272 0 0.14764 0 0.11811-0.04732h0.07495c-0.05224 0.08788-0.17943 0.09915-0.22713 0.18928h0.06814l0.01817 0.0338c-0.0318 0.04056-0.14309 0.20731-0.02726 0.21182l-0.08404 0.0338 0.06814 0.08563-0.10448 0.02253a0.31571 0.31322 0 0 0 0.04997 0.12844c-0.03634 0.04507-0.10448 0.08788-0.07495 0.15548l-0.14764 0.02704-0.03634 0.12168a0.17035 0.169 0 0 1 0.15445 0.04732l-0.14536 0.02704 0.04542 0.06309-0.14764 0.0293v0.14872l-0.09085-0.03605v0.1014l0.0636 0.01352-0.06132 0.03605a0.81994 0.81346 0 0 1 0 0.19154l-0.0318-0.0383h-0.13628c0.03407 0.08112 0 0.17126 0.01817 0.25463h-0.12038v0.0676c-0.06587 0.07436-0.22713-0.03155-0.22713 0.1352 0.10221-0.05183 0.09767-0.09915 0.22713-0.06309 0 0.09915-0.09767 0.15548-0.17035 0.20956l-0.02726-0.10591c-0.08177 0.1014-0.15218 0.20956-0.22713 0.31547l-0.09085-0.03605c0.06132 0.12393 0 0.18478-0.09994 0.22534a1.0357 1.0275 0 0 1 -0.18625 0.04056v0.14872l-0.03634-0.08112h-0.10221v0.06535a0.25439 0.25238 0 0 0 -0.14764 0.08337h0.15218a1.0789 1.0703 0 0 1 -0.09085 0.12168l-0.06132-0.07662h-0.08177v0.14872l-0.05678-0.05858h-0.07722a0.77452 0.7684 0 0 1 -0.18625 0.31096 0.36114 0.35829 0 0 0 -0.05905 -0.14647 0.79723 0.79093 0 0 1 -0.04316 0.17126l1.465-0.1014c0.09085-0.04281 0.18852-0.07887 0.27483-0.1307zm1.4423-4.0696a0.10675 0.10591 0 0 1 -0.10448 0.03605 0.10675 0.10591 0 0 1 0.10448 -0.03605zm-0.24984-0.77516a0.10675 0.10591 0 0 1 -0.10448 0.03605 0.10675 0.10591 0 0 1 0.10448 -0.0383zm-0.66095 3.4048a0.10675 0.10591 0 0 1 0.03634 0.10366 0.10675 0.10591 0 0 1 -0.03634 -0.10591z" class="cls-4"/>
   <path d="m8.4339 15.709-0.022713 0.06309h0.1612a0.22713 0.22534 0 0 1 -0.13855 -0.06309z" class="cls-4"/>
   <path d="m7.2709 15.529h0.079496c-0.11584-0.20956 0.10221-0.09239 0.10902-0.02479l-0.040884 0.04507c0 0.12844 0.14082 0.18703 0.20669 0.28392h0.056783l0.040884-0.02479v0.02028a0.25666 0.25463 0 0 0 0.07041 0.12394l0.081767-0.04958a0.82903 0.82248 0 0 1 0.03407 0.18928l0.061325-0.04732-0.013628 0.12619c0.095395-0.1014 0.22713 0.01127 0.30663 0.07662a0.34978 0.34702 0 0 0 -0.14763 0.05858 2.2395 2.2218 0 0 1 0.24076 0l-0.081767 0.08788a0.84947 0.84276 0 0 1 0.22713 0.05408l0.12719 0.04732a0.31798 0.31547 0 0 0 -0.095395 0.14196c0.2135-0.13295 0.16353-0.03605 0.36568 0l-0.061325 0.06986c0.029527 0 0.14082 0 0.13174-0.04958l0.024985 0.10366 0.047697-0.06535a0.22713 0.22534 0 0 1 0.10902 0.13971 0.15899 0.15774 0 0 1 0.15218 0.04507c-0.05224 0.03155-0.11811 0.04056-0.14309 0.1014 0.072682-0.07436 0.3089 0 0.3566 0.08563l0.084038-0.0676a0.50196 0.49799 0 0 0 0.018171 0.06084l1.3628-0.09464a0.20669 0.20506 0 0 0 0.02953 -0.08337h0.10221v0.09239h-0.148v-0.017l-1.3624 0.095a0.20896 0.20731 0 0 0 0.056783 0.08337l0.097666-0.04056-0.11129-0.03155a0.23849 0.2366 0 0 1 0.26347 0.06535l-0.056783 0.09689a0.24303 0.24111 0 0 0 0.10675 -0.15322 0.19533 0.19379 0 0 1 0.10902 0.13971c0.08858 0 0.22713-0.04507 0.24303 0.09013l0.07495-0.0676h0.05224c0.02272 0.06084 0.08631 0.09464 0.12719 0.14196a0.31344 0.31096 0 0 1 0.02726 -0.15323c0.01817 0.07436 0.08858 0.12619 0.09539 0.20506h0.0795l-0.04769-0.08563a0.36114 0.35829 0 0 1 0.15445 0l-0.05905 0.09014a0.14309 0.14196 0 0 1 0.11811 0.04056 0.99256 0.98472 0 0 0 0.12038 -0.11492 0.59735 0.59264 0 0 1 -0.01817 0.14647l0.05451-0.04281 0.03407 0.0383c0.05678 0 0.09994-0.04958 0.13174-0.09239a0.64732 0.64221 0 0 1 -0.0159 0.19154 0.60644 0.60165 0 0 0 0.14991 -0.20055l0.03635 0.08112 0.08858-0.04507 0.02272 0.1014 0.04997-0.06535 0.03634 0.05858h0.10221l0.05451-0.10816 0.05451 0.0383 0.06359-0.04507a0.24757 0.24562 0 0 0 0.08858 0.14422v-0.08788c0.05905-0.02028 0.14082-0.01803 0.17943-0.07211a0.59054 0.58588 0 0 1 -0.01817 0.14647l0.05451-0.04281h0.07722l0.02726 0.08337c0.10448-0.07662 0.26347-0.06309 0.34297-0.17351l0.03634 0.05859h0.10221l0.01363-0.06309 0.03635 0.05858h0.10221l-0.06814-0.08563c0.07268-0.0676 0.2135 0.02253 0.27028-0.07662l0.03634 0.08112c0.05224 0 0.09085-0.04507 0.14082-0.05183l0.01136-0.10591 0.03407 0.06084h0.09994c0.04543-0.07887 0.10902-0.09464 0.16126 0h0.0954c0.12038-0.09014 0.40429-0.1352 0.39294-0.32899l0.10448 0.08112c0.01817-0.01127 0.26574-0.18703 0.18625-0.05634 0.0795-0.0293 0.12038-0.12619 0.14764-0.2028 0.09994 0.07662 0.14082 0.0293 0.19079-0.01577 0.04769-0.04281 0.10675-0.08563 0.22713-0.01577l-0.04315-0.07211c0.04088-0.06309 0.12719-0.11718 0.18852-0.04732v-0.07887l-0.06587-0.04732a2.3258 2.3074 0 0 1 0.36341 -0.04507l-0.06587-0.04958v-0.11943c0.05678-0.04281 0.14764-0.05408 0.16126-0.1352l0.08858 0.05859-0.04088-0.06986a0.72228 0.71657 0 0 1 0.20442 -0.13295l-1.465 0.1014a0.43836 0.4349 0 0 0 0 0.04507 0.20215 0.20055 0 0 1 -0.06814 -0.04056c-0.02272-0.01803-0.04315-0.04056-0.06814-0.05634a0.28164 0.27942 0 0 1 0 0.06309 0.19079 0.18928 0 0 1 -0.02953 0.09013 0.34524 0.34251 0 0 0 -0.02044 -0.13971h-0.05905v0.04732l-0.04996-0.04281-0.02044-0.01803v0.08337l-0.15218-0.01352 0.04315 0.04958-0.05224 0.09915h-0.07495l-0.01817-0.03155v-0.09689a0.24984 0.24787 0 0 1 -0.09539 0.17802l-0.05905-0.1014v0.09239l-0.10675 0.02479-0.02726 0.10591-0.02272-0.10366h-0.09994a0.57237 0.56785 0 0 0 -0.03862 0.1352l-0.04316 0.01802c-0.04088-0.03155-0.13174-0.07887-0.13628 0l-0.02499-0.10365-0.04997 0.06535-0.06132-0.06084-0.08858 0.11267-0.09539-0.01126 0.04088-0.03155-0.0318-0.08112a0.22713 0.22534 0 0 1 -0.06359 0.1352c-0.12265-0.11717-0.21123 0.07211-0.2453 0.16675a0.13855 0.13746 0 0 1 -0.08404 -0.13971l-0.10902-0.01352 0.0318-0.09239-0.08631 0.11267-0.09312-0.0338 0.04769 0.06309-0.07495 0.02253-0.02272-0.08337h-0.09767c-0.04316 0.04732-0.10448 0.09014-0.12038 0.15774h-0.05451c-0.03634-0.05183-0.06814-0.11492-0.12719-0.14196l0.04315 0.06535a0.88354 0.87656 0 0 1 -0.25893 0.09915l0.01363-0.10816a0.17943 0.17802 0 0 1 -0.186 0.045l0.0795-0.03605v-0.10366c-0.17489 0.27266-0.35887-0.01802-0.56783 0-0.04542 0.04507-0.13174 0.08563-0.17262 0.01126h-0.24987c0.04089-0.0383 0.05451-0.09915 0.09767-0.13295-0.06132 0-0.10448 0.05634-0.11811 0.10816l-0.03407-0.06084-0.08177 0.09915c0.02726-0.1667-0.1976-0.0991-0.28164-0.17797h-0.088581c0 0.07436-0.056783 0.04507-0.077221 0-0.013628-0.0293 0-0.06309 0.063593-0.06986v-0.10365a1.5036 1.4917 0 0 0 -0.10675 0.15774l-0.034066-0.0383-0.052243 0.04281h-0.095396l0.097666-0.1352-0.07041-0.04056-0.049969 0.04281-0.10675-0.07662-0.047697 0.04507a0.20215 0.20055 0 0 1 -0.10675 -0.09689l-0.047697 0.06535a0.85855 0.85177 0 0 1 -0.14537 -0.06983l0.040884-0.03381-0.038612-0.07886-0.013628 0.08788c-0.1169-0.062-0.2123-0.053-0.2009-0.224l-0.11584-0.05858-0.047697 0.0676-0.03407-0.05859a0.42019 0.41687 0 0 0 -0.1159 -0.02h-0.1612v0.02479a0.10675 0.10591 0 0 1 0 -0.02253l-0.56556 0.0383 0.56556-0.0383a0.20669 0.20506 0 0 1 0.027256 -0.16675c-0.099938 0.04957-0.16581-0.09014-0.2612-0.09014a0.20896 0.20731 0 0 1 -0.022713 0.14872l-0.024984-0.14647h-0.090852c-0.047697-0.09013 0.027256-0.12168 0.068139-0.18928a0.91988 0.91261 0 0 1 -0.13401 0.04507v0.10591l-0.074953-0.01352 0.036341-0.08788c-0.022713 0-0.22713-0.08112-0.15899 0-0.072682-0.06986-0.17035-0.14196-0.049969-0.22534a0.26574 0.26364 0 0 0 -0.12492 0.04732c-0.043155 0-0.084038-0.03605-0.13628-0.0293l-0.013629-0.02479-0.43382 0.0293v0.06084a0.59963 0.59489 0 0 1 0.24984 0.31322zm4.6698 1.5345a0.10902 0.10816 0 0 1 0.10448 -0.03605 0.10902 0.10816 0 0 1 -0.10221 0.03605zm0.40202-0.0676h-0.10221v-0.05858h0.10221zm0.43836 0a0.10902 0.10816 0 0 1 0.10448 -0.03605 0.10902 0.10816 0 0 1 -0.10221 0.04507zm0.10675-0.04732c0-0.04958-0.05224-0.0676-0.04997-0.09689h0.0795c0.02953 0.04507 0.07268 0.04507 0.07495 0.09689zm-2.2713-0.28167a0.10675 0.10591 0 0 1 -0.10448 0.03605 0.10902 0.10816 0 0 1 0.10221 -0.02704zm-1.1111-0.142v-0.07887a0.35432 0.35152 0 0 1 0.10675 0.07211zm-1.7807-1.005c0.027256 0 0.059054 0 0 0.10366z" class="cls-4"/>
   <path d="m6.6849 14.578c0.013628 0 0.018171 0.0338 0.018171 0.06084v0.04056l-0.015899-0.01577-0.038612 0.06084a0.45426 0.45067 0 0 1 0.13174 0.04507v-0.1352h0.079496v0.04507h0.05224a0.45426 0.45067 0 0 1 -0.063597 -0.16675h-0.081767c0 0.03606-0.024985 0.05859-0.081767 0.06535z" class="cls-4"/>
   <path d="m6.9666 14.675h-0.056783l0.029527 0.04281a0.47697 0.47321 0 0 0 0.027256 -0.04281z" class="cls-4"/>
   <path d="m6.7872 14.83v-0.02704l-0.020442 0.01577c0 0.05408 0.059054 0.12844 0.03407 0.18252l0.031798-0.04281h0.074954l-0.015899 0.10591 0.049969-0.04281a0.17716 0.17576 0 0 0 0.10448 0.09464l-0.061325 0.05408v0.01577l0.43382-0.0293c-0.05224-0.1014 0-0.11943 0-0.22534h-0.1024v0.01802h0.022713v0.05858h-0.056783l-0.013628 0.02704-0.088581-0.08112h-0.036341v-0.01802a1.3628 1.352 0 0 1 -0.21123 -0.21181 0.87672 0.8698 0 0 0 -0.074954 0.10366z" class="cls-4"/>
   <path d="m6.6282 14.609 0.061325 0.06309 0.015899-0.02479l-0.063597-0.04732h0.013628l0.090852-0.06084h0.015899c0-0.0383-0.045426-0.08112-0.11129-0.10365l0.043155 0.06535-0.14764 0.0293 0.068139 0.07211-0.061325 0.0676z" class="cls-4"/>
   <path d="m6.8598 14.785a0.10675 0.10591 0 0 0 -0.038612 -0.10366 0.10675 0.10591 0 0 0 0.038612 0.10366z" class="cls-4"/>
   <path d="m6.7826 14.778v0.02479l0.020441-0.01577z" class="cls-4"/>
   <path d="m6.6577 14.58h0.027256a0.024984 0.024787 0 0 0 -0.027256 0z" class="cls-4"/>
   <path d="m7.2573 15.013h0.020442l0.020441-0.06535h-0.045426a0.18852 0.18703 0 0 1 -0.024984 -0.08337c-0.043155 0-0.065868 0.03605-0.08631 0.06535l0.024984 0.02253a0.10902 0.10816 0 0 1 0.090852 0.06084z" class="cls-4"/>
   <path d="m16.636 7.5989 0.08858-0.069854a1.5263 1.5143 0 0 1 -0.17943 0c0.02726 0.00901 0.0795 0.029294 0.09085 0.069854z" class="cls-4"/>
   <path d="m16.383 7.5111h0.02272v-0.083374h-0.04542l-0.02272 0.038307a0.14763 0.14647 0 0 0 0.04542 0.045067z" class="cls-4"/>
   <path d="m14.612 6.808v-0.1014c-0.02953 0-0.05451-0.042814-0.08404-0.036054s0.02499 0.036054 0.04542 0.051827c0.02044 0.015774-0.04088 0.042814-0.03407 0.092388z" class="cls-4"/>
   <path d="m16.638 7.6102z" class="cls-4"/>
   <path d="m16.538 7.5246z" class="cls-4"/>
   <path d="m8.0273 9.9312 0.065868 0.04958c-0.049969 0.04281-0.099937 0.11943-0.059054 0.18252v-0.0676c0.029527 0 0.08631 0 0.10902 0.01577l-0.040884-0.04958a0.39748 0.39434 0 0 0 0.068139 -0.22534c-0.018171 0 0.022713-0.01802 0.031798-0.01802a0.81086 0.80445 0 0 0 0.18398 0.0293l-0.0658-0.051v-0.07662l0.10448-0.024786a0.81767 0.81121 0 0 1 0 -0.19154l0.03407 0.04056c0.068139-0.03155 0.14082-0.05408 0.20442-0.09014l-0.11129-0.01803 0.011357-0.09464a0.10902 0.10816 0 0 0 0.090852 0.03605v-0.08337l0.072682 0.07887a0.96758 0.95993 0 0 1 0 -0.19379 0.10902 0.10816 0 0 0 0.090852 0.03605v-0.07887h-0.063597c0.018171-0.05859 0.10448-0.04056 0.054511-0.12619a1.0334 1.0253 0 0 1 0.22713 -0.0338l-0.0433-0.0497c0.0772-0.1938 0.1862-0.1082 0.293-0.1172l-0.045426-0.051827v-0.076614c0.061325-0.024787 0.16126-0.047321 0.20896 0.01352 0.029527-0.058587 0.12946-0.056334 0.08631-0.14196 0.1112-0.0609 0.2884-0.0609 0.3497-0.1894h0.056783l0.020438 0.060841 0.074951-0.067601 0.07041 0.060841v-0.0901c0.25666-0.20956 0.30435 0.10591 0.50196-0.20055l0.09539 0.011267a0.099938 0.099148 0 0 0 -0.0318 0.092388 0.22713 0.22534 0 0 1 0.15672 -0.11718c0.02726 0 0.04542 0.01352 0.0318 0.04056a0.46562 0.46194 0 0 0 0.12719 -0.094641v0.018027 0.024787c0 0.04056-0.03862 0.065347-0.0318 0.10591l0.04997-0.065347 0.03635 0.060841c0.05224-0.024787 0.09085-0.11267 0.14991-0.11718 0.05905-0.00451 0.13401 0.094641 0.16808-0.01352 0.04088 0 0 0.12168-0.01817 0.14872 0.0795 0 0.26574-0.085628 0.30663-0.02028l0.051-0.0451 0.05905 0.038307c0.06814-0.045067 0.22713-0.1983 0.293-0.074361l-0.10448 0.022534v0.078868a0.12492 0.12394 0 0 1 0.11356 0.058587l0.04542-0.065347c0.04315 0.04056 0.22713 0.11492 0.23849 0.1645-0.02044 0 0 0.096895 0 0.10816v-0.060841c0.08404-0.054081 0.16808 0 0.22713 0.051827h0.07722l0.01136-0.085628 0.09767 0.054081-0.03861 0.031547 0.04542 0.072108-0.03634 0.072107c0.02726 0 0.19306 0 0.15672-0.051827l0.1976 0.21182a0.079496 0.078868 0 0 1 -0.03407 0.074361h0.0795a0.22713 0.22534 0 0 1 0.02272 -0.14872l0.02499 0.14422 0.09994 0.038307c-0.09539-0.15323 0.05906-0.085628 0.11357-0.0338v0.056334a0.14991 0.14872 0 0 0 -0.10221 0.081121c0.04542 0 0.08858 0 0.11356 0.03831l0.04996-0.04507 0.09767 0.01127-0.06132 0.0676c0.19306-0.01352 0.09994 0.10591 0.07495 0.10816v0.1014l0.04769-0.06535a0.40656 0.40335 0 0 1 0.14309 0.06985l-0.03862 0.0338v0.1014h0.07722a0.11129 0.11041 0 0 1 0.15218 -0.06084c-0.03407 0.05408-0.09539 0.06985-0.14082 0.11042v0.09915h0.15218l-0.03862 0.06985c0.15445 0 0.08177 0.10591 0.04997 0.11042 0.02953 0.04732 0.09085 0.11943 0.15899 0.11267 0 0.02704-0.01363 0.04281-0.03861 0.02704l0.04542 0.05183v0.07662l-0.10448 0.06309c0.14764 0 0.10902-0.09915 0.2612 0.01802l-0.10448 0.02028v0.1014l0.08631-0.04732 0.02044 0.07211-0.10448 0.02479a0.43382 0.43039 0 0 0 0.15218 0.13295l-0.04088-0.05408v-0.09464c0.0318 0.04958 0.14536 0.09464 0.14991 0.15098 0 0.01577-0.09539 0.14196 0 0.12393a0.7677 0.76164 0 0 0 -0.13855 0.169l0.05451-0.04281 0.09766 0.05408 0.02726 0.37406c-0.13401 0.02028 0.09994 0.18928-0.02953 0.22534a0.28164 0.27942 0 0 1 0.05678 0.17802c0.04542-0.04281 0.09312 0 0.10902 0.04732l-0.10221 0.02253v0.14422a0.26801 0.2659 0 0 1 0.10675 0.02253 1.0562 1.0478 0 0 1 -0.21123 0.07662c0.13628 0.21182 0.09767 0.24787 0.12265 0.48222a0.10675 0.10591 0 0 0 -0.08858 -0.03605l0.06587 0.04732a0.47697 0.47321 0 0 1 -0.09767 0.13746l0.10902 0.01352c-0.02726 0.04056-0.08404 0.11267-0.14309 0.10591 0 0.02479 0 0.15323 0.04996 0.11718l-0.05451 0.07662-0.08858-0.08112c-0.01817 0.07211-0.09085 0.12619-0.09994 0.19604a0.11584 0.11492 0 0 0 0.08858 -0.06535c0.01363 0 0.0159 0.04958 0.0159 0.05183 0 0.05183-0.10902 0.15323-0.13628 0.20731l0.05451-0.04056h0.09539a0.66095 0.65573 0 0 0 -0.05224 0.13971l-0.09085-0.05859c0.01817 0.06986 0.22713 0.18252 0.07041 0.25238l-0.05905-0.10365-0.04315 0.06986 0.04542 0.04958-0.01136 0.09689-0.06587-0.06084 0.04316 0.09014-0.10221 0.02253 0.06587 0.04958v0.07436a0.45426 0.45067 0 0 0 -0.22713 0.32899 0.22713 0.22534 0 0 1 0.08858 -0.06535c0.06814 0.09464-0.03634 0.14196-0.05224 0.22534l-0.03407-0.06084-0.04997 0.06535-0.09312-0.05858v0.1014l0.10902 0.05634c0 0.08337-0.13628 0.09014-0.09539 0.19154a0.15445 0.15323 0 0 1 -0.07495 0.01803 0.2135 0.21182 0 0 0 -0.11811 -0.05408l0.04542 0.07211c-0.05451 0.09689-0.06587 0.22534-0.16126 0.2997l-0.02272-0.1014h-0.10445c0.16808 0.15774 0.03407 0.18478-0.03862 0.2997a0.22713 0.22534 0 0 0 -0.09312 -0.05634l-0.04088 0.1014 0.08631-0.04507 0.02272 0.07436-0.10448 0.02253a0.20669 0.20506 0 0 1 -0.02272 0.14872 0.24076 0.23886 0 0 0 -0.08177 -0.14422l-0.0159 0.10816-0.07041-0.03605 0.04315 0.04732c-0.04542 0.04507-0.03634 0.12619-0.09539 0.18027l0.07722-0.04056 0.03635 0.0383 0.14536-0.04056-0.15218-0.01352 0.05224-0.09915a0.070411 0.069854 0 0 1 0.05678 0.05859h0.07722c0.03861-0.09239 0.17716-0.12619 0.22713-0.22534l0.06814 0.06084-0.04315-0.08788a0.29527 0.29294 0 0 1 0.22713 0l-0.04088-0.05408 0.03862-0.03381-0.04542-0.07211c0.01817-0.07436 0.11811-0.09689 0.18398-0.08788a0.18398 0.18252 0 0 1 0.04542 -0.15098 0.3566 0.35378 0 0 0 0.05678 0.14647l0.01363-0.15323 0.08858 0.03605a0.73817 0.73234 0 0 1 0.0795 -0.14872 0.25893 0.25688 0 0 1 -0.15218 -0.02704c0.09539-0.04732 0.22713-0.06084 0.26347-0.18252l0.06814 0.0383a0.13174 0.1307 0 0 1 0.06132 -0.09239c-0.04542-0.04958-0.10221-0.1352-0.06359-0.20506l0.10675 0.09689h0.12038a0.35205 0.34927 0 0 1 -0.0159 -0.19154l0.06814 0.0383a0.25666 0.25463 0 0 1 0.09994 -0.16675 0.15672 0.15548 0 0 1 0 -0.22534l0.03407 0.04056 0.10221-0.0383-0.11129-0.01577a1.1697 1.1605 0 0 1 0.38385 -0.40561l-0.04769-0.04732 0.03862-0.0338-0.04542-0.07211 0.0068-0.07211 0.0318 0.04056h0.10221a0.14991 0.14872 0 0 0 0.03634 -0.10366l-0.0636 0.06535a0.94941 0.94191 0 0 1 -0.0886 -0.13071l0.10448-0.02253a0.22713 0.22534 0 0 0 -0.04997 -0.11492c0.01363-0.04507 0.08631-0.19154 0.14991-0.18928 0.02272 0 0.04997 0 0.03862 0.0383l0.07722-0.08112-0.05224 0.04056c-0.13175-0.04732-0.1272-0.11492-0.09768-0.25238a0.070411 0.069854 0 0 1 0.05678 0.05859h0.0795v-0.1014h-0.08404a0.22713 0.22534 0 0 1 0.07722 -0.10591l-0.04542-0.04958c0.08858 0.04507 0.02499-0.27491 0.02044-0.32448-0.0045-0.04958-0.13628-0.07436 0.08177-0.34702l-0.08858 0.04281c-0.0318-0.07436-0.04769-0.15323 0.03407-0.20055l-0.06814-0.0676a0.61325 0.60841 0 0 0 0.09539 -0.18252l-0.12038-0.04056v-0.11718l0.10448-0.05858-0.15218-0.01126 0.04769-0.0383-0.04542-0.06986a0.18398 0.18252 0 0 1 0.09994 -0.08563 0.19533 0.19379 0 0 1 -0.0795 -0.1983l-0.08631-0.01127a0.25666 0.25463 0 0 1 0.07949 -0.08337l-0.05224-0.09689-0.04997 0.04507h-0.09539l0.09994-0.1352-0.10902-0.01126c0.04542-0.04281 0.03634-0.12619 0.09539-0.18027h-0.15218l0.03634-0.05634-0.04542-0.05183 0.0795-0.09014-0.08858-0.01577 0.03861-0.0338c0-0.09464-0.10675-0.1307-0.0159-0.24562l-0.05451 0.04056-0.09767-0.01127 0.06132-0.06985c-0.11356 0-0.17489-0.04281-0.07495-0.14196-0.05451 0-0.09994-0.04281-0.14991-0.05859a0.10902 0.10816 0 0 0 0.06587 0.08788 0.27256 0.2704 0 0 0 -0.13628 0.06535v-0.01803-0.02479c0-0.02253 0-0.05183 0.03634-0.04732v-0.1442l-0.10675-0.01127a0.072682 0.072108 0 0 1 0.05905 -0.056335v-0.076614c-0.01817-0.011267-0.07268-0.045067-0.06814-0.076614a0.24757 0.24562 0 0 0 0.05451 -0.11718l-0.07268 0.042814a0.29981 0.29744 0 0 0 -0.1431 -0.029306v-0.0997h-0.14991a0.11357 0.11267 0 0 0 0.05678 -0.094641l-0.07041 0.067601-0.07949-0.076614c0.07495 0.038307 0.03407-0.14647 0.0318-0.17576l-0.04997 0.045067c-0.08854-0.042814-0.09536-0.15774-0.19757-0.19604l0.03862-0.031547v-0.1016c-0.05678 0.065347-0.15672 0.083374-0.15218-0.0338h-0.09085l-0.02499-0.10591-0.06132 0.047321v-0.1307c-0.04997 0.045067-0.18625 0.14872-0.24984 0.069854l0.10448-0.022534a0.43609 0.43265 0 0 1 0.03407 -0.14422h-0.08177c0.04542 0.042814 0 0.087881-0.04769 0.10591l-0.02499-0.10365c-0.02499 0-0.12265 0-0.09085 0.047321-0.02726-0.031547-0.08177-0.094641-0.06814-0.14196l-0.04997 0.065347h-0.05451c0 0.018027-0.01817-0.022534-0.01817-0.031547a0.079496 0.078868 0 0 1 0.03407 -0.074361 0.25893 0.25688 0 0 1 -0.14991 -0.02028 0.12946 0.12844 0 0 0 0.10221 -0.081121h-0.10221c0 0.099148-0.14991 0.074361-0.15672-0.015774 0-0.02704 0.0159-0.045067 0.04088-0.031547l-0.08631-0.094641v0.1509c-0.088-0.018-0.117-0.1465-0.106-0.2253a0.12946 0.12844 0 0 1 -0.18625 0l-0.01365 0.15098c-0.05678-0.015773-0.1658-0.11943-0.06132-0.14422-0.09539-0.01352-0.22713 0.063094-0.2453-0.096895l0.03634-0.04056a0.29073 0.28843 0 0 1 -0.17943 0.058587c0.10448 0.19154-0.05679 0.1014-0.10903 0.0338a0.34751 0.34476 0 0 0 0.09766 -0.13971h-0.10221a0.17943 0.17802 0 0 1 -0.05451 0.10816l-0.09539-0.011267 0.06132-0.031547v-0.1015h-0.05905v0.087881c-0.12946 0.092388-0.14991-0.018027-0.20442-0.083374l0.03634-0.038307c-0.06587 0.022534-0.06359 0.10816-0.12265 0.15774a0.26574 0.26364 0 0 0 -0.077 -0.1442c-0.12038 0.10816-0.14991 0-0.22713 0.015774-0.07722 0.015773-0.12946 0.20055-0.28391 0.02028a0.093124 0.092388 0 0 1 -0.05224 0.090135l-0.02726-0.12394h-0.08177c0.02726 0.11492-0.06132 0.11718-0.11129 0.1983a0.94259 0.93515 0 0 1 -0.14309 -0.069854l0.04089-0.0338-0.03862-0.078868a1.2083 1.1988 0 0 1 -0.05451 0.1983h-0.11811a0.41111 0.40786 0 0 0 -0.06132 -0.14872c-0.01817 0.056334-0.03634 0.12844-0.09312 0.15774l-0.02499-0.10365c-0.086309 0.036054-0.25666 0-0.2612 0.12394a0.60417 0.5994 0 0 1 -0.082 -0.1014c-0.1885-0.0157-0.1749 0.1645-0.2658 0.275l0.015899-0.14872a0.42019 0.41687 0 0 1 -0.1817 0.099148l0.045426 0.069854-0.013628 0.076614-0.031798-0.04056h-0.1022l-0.0113 0.1059-0.0682-0.0608 0.0409 0.0721c-0.03407 0.051827-0.12492 0.12394-0.17943 0.054081l0.084037 0.10366a0.45426 0.45067 0 0 1 -0.13174 0.083373 1.7444 1.7306 0 0 1 -0.10675 -0.14196c0 0.12619 0.14536 0.40335-0.16353 0.46419l0.045426 0.051827c0.011357 0.18252-0.2453 0.045068-0.24303 0.21182a0.11584 0.11492 0 0 0 0.088581 -0.067601c0.013628 0 0.015899 0.049574 0.015899 0.051827a0.45426 0.45067 0 0 1 -0.3362 0.4349c0 0.024787 0 0.11041 0.029527 0.12619h-0.1726c0.059055 0.06535 0.11357 0.1352 0.16353 0.20731l-0.10221 0.02253c0 0.06535 0.054511 0.11267 0.072682 0.17126l-0.10448 0.02479c0 0.08563-0.081767 0.22534 0.015899 0.28392l-0.10448 0.02253a0.41565 0.41237 0 0 1 -0.036341 0.14196l0.11129 0.01577a0.070411 0.069854 0 0 1 -0.05224 0.05183z" class="cls-4"/>
   <path d="m15.275 19.357a0.24757 0.24562 0 0 0 0.09085 -0.07436c-0.05451-0.0045-0.0795 0.04507-0.09085 0.07436z" class="cls-4"/>
   <path d="m14.153 18.645a0.10675 0.10591 0 0 0 0.10448 -0.03605 0.10675 0.10591 0 0 0 -0.10448 0.03605z" class="cls-4"/>
   <path d="m13.385 18.803a0.95849 0.95092 0 0 0 0.08631 0.04507c-0.0045-0.02253-0.04089-0.04958-0.08631-0.04507z" class="cls-4"/>
   <path d="m14.671 18.553 0.20442-0.01352-0.02044-0.02479c-0.02499 0.0068-0.11129 0.0383-0.18398 0.0383z" class="cls-4"/>
   <path d="m18.23 17.223s0.04769 0.02479 0.08631 0.04507c-0.0045-0.02253-0.0318-0.04958-0.08631-0.04507z" class="cls-4"/>
   <path d="m15.568 18.102z" class="cls-4"/>
   <path d="m7.9796 17.651c0-0.02028 0-0.0383 0.040884-0.04732l-0.17489 0.01126c-0.059054-0.08562-0.22713-0.19379-0.081767-0.29068-0.068139 0.02479-0.088581 0.1014-0.12719 0.15323a0.40884 0.40561 0 0 0 -0.2271 -0.151l0.036341-0.09014h-0.088581a0.62461 0.61968 0 0 0 -0.14309 -0.22534 0.13401 0.13295 0 0 0 -0.045426 -0.02028l0.061325-0.08563a0.81994 0.81346 0 0 1 -0.26347 -0.04732l0.038612-0.05408-0.040884-0.14422-0.015899 0.15323-0.03634-0.08337h-0.0908l-0.025-0.104-0.1067-0.011 0.0613-0.07h-0.1067l-0.013628-0.19154v-0.02253l-0.03407 0.02704-0.054511 0.04281a0.30663 0.3042 0 0 1 -0.01817 -0.03606l-0.90852 0.06309a0.52921 0.52503 0 0 0 0.086309 0.09013l-0.084038 0.04056c0.065868 0.07887 0.19079 0.10591 0.14763 0.22534l0.088581-0.06535c0 0.03155 0.027256 0.10591-0.020442 0.11492a0.52694 0.52278 0 0 0 0.15899 0.13295l-0.054511 0.10816 0.08631-0.0676 0.015899 0.0676v0.0338h0.1044a0.59054 0.58588 0 0 0 -0.0886 0.133 0.1817 0.18027 0 0 0 0.1067 -0.106h0.0546c0 0.02028 0.029527 0.09464-0.020442 0.07211 0.040884 0.02704 0.25439 0.18478 0.12492 0.22534h0.068139c0.072682 0.1014 0.16126 0.19379 0.24076 0.29068zm-0.7927-0.487a0.10902 0.10816 0 0 1 -0.036341 -0.10366 0.10675 0.10591 0 0 1 0.029527 0.1014z" class="cls-4"/>
  </g>
  <polygon transform="matrix(.22713 0 0 .22534 -63.112 -3.0798)" points="358.05 83.12 358.05 83.13" class="cls-4"/>
  <g stroke-width=".22623">
   <path d="m19.393 13.428h-0.06814l0.08631 0.04958a0.079496 0.078868 0 0 0 -0.01817 -0.04958z" class="cls-4"/>
   <path d="m19.225 13.44c-0.01136 0.02028-0.02726 0.04281-0.04088 0.06309l-0.06359-0.05634 0.03861 0.06985a0.54739 0.54306 0 0 0 -0.02953 0.14196l-0.10902 0.04056h0.10902c-0.07041 0.04732-0.07268 0.14422-0.13628 0.19604l0.0477 0.04958v0.07662c-0.05451 0.02479-0.12719 0.06535-0.14082 0.12844l0.05224-0.06309 0.05224 0.01127v0.11943c-0.04769 0.03605-0.08177-0.02028-0.15218-0.01352l0.04543 0.05183a0.45426 0.45067 0 0 1 -0.08858 0.28392c0.04543-0.04056 0.09539 0 0.11129 0.04732a0.86537 0.85853 0 0 1 -0.19079 0.03155v0.14872l-0.05905-0.06084-0.11356 0.12394c0.03861 0.04281 0.08177 0.1352 0.02499 0.18027l-0.07722-0.1014a4.5426 4.5067 0 0 1 -0.21123 0.45067l0.08631 0.01127a0.49969 0.49574 0 0 1 -0.08631 0.169 0.58145 0.57686 0 0 1 -0.08404 0.08788 0.10675 0.10591 0 0 1 0.03635 0.1014 0.10675 0.10591 0 0 1 -0.03635 -0.1014 0.50423 0.50025 0 0 1 -0.25439 0.12619v0.12844l-0.06814-0.03606c0.07041 0.06309 0.03634 0.17351 0.06132 0.25463h-0.15218a0.17035 0.169 0 0 1 -0.01363 0.15323 0.12038 0.11943 0 0 1 -0.12038 0.04732l-0.01363 0.10816-0.06814-0.06084a1.0834 1.0749 0 0 1 0 0.22534l-0.08858-0.05858-0.04315 0.06985 0.04542 0.06309-0.14763 0.0293-0.01136 0.10591-0.09085-0.03605v0.12619l-0.07041-0.08112s-0.07041 0.27942-0.11129 0.15774l-0.05678 0.04958-0.12038 0.10591h0.10448l0.01363-0.06084 0.07495 0.01127c-0.04997 0.15098-0.26347 0.14196-0.38158 0.37631l-0.08858-0.05859 0.04088 0.06985a0.77906 0.7729 0 0 0 -0.15672 0.15098l-0.03634-0.05859h-0.10448a0.47697 0.47321 0 0 0 0.11357 0.07887l-0.12038 0.0676-0.03862-0.08337c-0.08858 0.07662-0.1658 0.16675-0.2453 0.25238-0.20442 0.01352-0.12946-0.09464-0.22713 0.20731-0.04315-0.04281-0.09994-0.07211-0.14082-0.11943v0.06535a0.12719 0.12619 0 0 0 -0.10448 0.07211 0.28846 0.28618 0 0 0 0.13628 -0.05408 0.068139 0.067601 0 0 0 0.07041 0.04056v0.1014c-0.04997 0-0.05451-0.03606-0.10675-0.03155-0.05224 0.0045-0.04997 0.04732-0.10221 0.04732v-0.09914c-0.04542 0.07211-0.07495 0.17576-0.12719 0.22534l-0.02272-0.10366h-0.12265a0.45426 0.45067 0 0 1 -0.07495 0.15323l-0.07041-0.03605v0.06535l-0.03407 0.01802-0.07722-0.03831-0.13628 0.14422-0.01817 0.01803-0.01363-0.01577-0.20442 0.01352a0.37931 0.37631 0 0 1 -0.07041 0c-0.02044 0-0.03634 0-0.03862-0.02028v0.08337l-0.03407-0.0383c-0.11129 0.01577-0.20442 0.15999-0.32025 0.169l-0.04088-0.03831c-0.04542 0.0293-0.2771 0.1645-0.29981 0.06309a0.64278 0.6377 0 0 0 -0.10221 0.15548l-0.05678-0.0383-0.02953 0.04507-0.14309-0.13971c0 0.04958-0.11129 0.20956-0.1658 0.20506-0.02272 0-0.04997 0-0.04542-0.0383l-0.02953 0.04507-0.06359-0.08112a0.32934 0.32674 0 0 1 -0.33615 0.02253v0.06986c-0.05678 0.02253-0.16353 0.05183-0.20442-0.01352l-0.04997 0.04507-0.08858-0.03605-0.02726 0.11042a0.98802 0.98021 0 0 0 -0.12947 -0.20732l-0.01817 0.11042-0.0318-0.0383h-0.09994c-0.02272 0.20731-0.28164-0.03381-0.28164 0.10365l-0.02272-0.07436c0.0318-0.03831 0.08177-0.02704 0.10221-0.07886h-0.10448l-0.06814 0.10816-0.02272-0.1014c-0.05224 0-0.08858 0.07211-0.10902 0.11042-0.04089-0.0383-0.10221-0.05183-0.13855-0.09689a0.79041 0.78417 0 0 1 -0.09085 0.22534c-0.02272-0.03381-0.10448-0.17351-0.02499-0.18478-0.05224-0.07662-0.17943-0.04281-0.24984 0a0.33388 0.33124 0 0 1 -0.111 -0.138h-0.07722l-0.07495 0.11042-0.08177-0.09915h-0.10221l-0.02726 0.06309-0.02499-0.10365c-0.09085 0-0.16126 0.12168-0.21123 0v-0.02479l-0.02953 0.02704-0.02044 0.01803h-0.09539l0.05678-0.09239c-0.04542 0-0.0795 0.05409-0.09994 0.09464v0.01803l-0.04316-0.01352a0.70865 0.70305 0 0 0 -0.09994 -0.01577v-0.10816c-0.03862 0-0.22713 0-0.21577 0.05633l-0.018168-0.04281 0.031796-0.10591-0.10675-0.01127 0.059053-0.06986a0.68139 0.67601 0 0 0 -0.19079 0.15999l-0.015898-0.05183 0.056783-0.09689-0.1976 0.01352a0.88808 0.88107 0 0 1 -0.074953 -0.18928l-0.049969 0.04281-0.093124-0.03381 0.045426 0.06309-0.074953 0.02253-0.056783-0.08112-0.013628 0.08563c-0.0878-0.046-0.106-0.15-0.1627-0.224-0.0659 0.124-0.1499-0.077-0.1908 0.056l-0.0273-0.104c-0.097666 0.04958-0.16126-0.04958-0.19988-0.12393l0.099938-0.1014a2.0146 1.9987 0 0 1 -0.20896 0.05408l-0.024985 0.10591-0.027256-0.14647c-0.031798 0-0.14082 0-0.12946 0.05183-0.10221-0.11267-0.027256-0.13295-0.03634-0.25238l-0.05224 0.06535c-0.12719 0-0.13174-0.07887-0.038612-0.14196l-0.090852 0.04281-0.022713-0.10366-0.049969 0.06535a0.18398 0.18252 0 0 1 -0.1499 -0.057l-1.3424 0.093a1.7557 1.7419 0 0 1 0.10902 0.14422l-0.038612 0.03605 0.049969-0.04281a1.2242 1.2146 0 0 1 0.26347 0.22534l-0.10448 0.06084c0.097666 0 0.18398-0.05408 0.28164-0.05859a1.0107 1.0027 0 0 0 0.14536 0.22534h0.12946l0.029527 0.14647h0.12719a0.82676 0.82023 0 0 1 -0.077224 0.13295 1.6671 1.654 0 0 1 0.30208 0l-0.056788 0.09239 0.072682-0.0676h0.054511c0.03407 0.0383 0.086309 0.04732 0.12946 0.07211l-0.038612 0.03381v0.11943a0.37931 0.37631 0 0 1 0.19306 -0.01352l-0.038612 0.0676a1.0425 1.0343 0 0 0 0.17943 0.08337c0.040884 0.01352 0.077224 0.01577 0.086309 0a0.047697 0.047321 0 0 0 0 -0.02704l0.020441 0.02704c0.045426 0.06309 0.079496 0.13746 0.12946 0.20055a0.36795 0.36505 0 0 0 0.12265 -0.09464c0.020442 0.06309 0.022713 0.14196 0.077224 0.18703 0.093124-0.09464 0.17489-0.02704 0.25666 0.0383l-0.03407 0.09239c0.031798-0.03381 0.13855-0.08112 0.15445 0l0.12492-0.11492 0.015899 0.05183-0.059054 0.09464c0.2135 0.09464 0.18398-0.0676 0.30436 0l-0.038612 0.0338c0 0.13971 0.22713 0.06535 0.30663 0.09689v0.01352l-0.047694 0.07887c0.038615 0 0.072681-0.04507 0.093124-0.08337l0.013628-0.0293a0.15445 0.15323 0 0 0 0.034066 0.02479 0.36114 0.35829 0 0 1 0.1047 0.073 0.48833 0.48447 0 0 1 -0.0299 -0.077h-0.0567 0.0567c-0.013628-0.05859 0.022717-0.04507 0.068141 0a0.49969 0.49574 0 0 1 0.11811 0.15548v-0.15099c0.04769 0.01802 0.13401 0.12394 0.04316 0.14422h0.12946l-0.0159 0.10591 0.05224-0.04281 0.03634 0.04056c0.07495-0.03605 0.12038-0.11267 0.18852-0.15999a0.11129 0.11041 0 0 1 -0.03862 0.15774v0.10136a1.3764 1.3655 0 0 1 0.22713 -0.12394l0.02726 0.10366c0.03407-0.05634 0.10675-0.06985 0.14991-0.11718h0.09539l-0.10221 0.11042 0.10902 0.06309-0.06587-0.06535c0.04769-0.03606 0.08404-0.02479 0.11811-0.08562a0.41792 0.41462 0 0 1 0.14309 0.06985l-0.05905 0.0676 0.07495-0.04281a0.86083 0.85403 0 0 0 0.20669 0.02704l-0.01363 0.10816c0.08404-0.05633 0.19988-0.07662 0.25893-0.16675l0.07495 0.01352-0.04088 0.03155 0.04315 0.09915c-0.0159-0.22534 0.12492-0.08337 0.20669-0.01577 0.04315-0.02479 0.09767-0.06084 0.10675-0.11492 0.19306 0.20506 0.36795-0.06309 0.40656 0.07662l0.07722-0.04958-0.04769-0.08788c0.0795-0.05408 0.22713 0.01352 0.30663 0.02479a0.35205 0.34927 0 0 1 -0.0795 0.12394 0.36114 0.35829 0 0 0 0.15445 -0.14422l0.07722 0.09915 0.01363-0.10816h0.05451c0.09994 0.22534 0.15218 0.03155 0.25893-0.06084l0.02726 0.14647h0.10221l-0.06587-0.04958 0.07495-0.09915h0.05451l0.02726 0.10591c0.06587-0.03155 0.10221-0.10366 0.14536-0.15774 0.04315 0.04056 0.10675 0.0383 0.15218 0.07436l0.04769-0.04507 0.09312 0.03605v-0.06985a0.45426 0.45067 0 0 1 0.13401 -0.09014 0.37022 0.3673 0 0 0 0.06132 0.14647c0-0.06309 0.06587-0.09689 0.0795-0.15774l0.07041 0.06084v-0.09014c0.02272 0 0.09539-0.03155 0.07722 0.02028 0.04542-0.04056 0.11129-0.04958 0.15218-0.09689l0.03634 0.08112 0.06587-0.04507 0.08177 0.1014c0.01817-0.1014 0.24076-0.40335 0.33161-0.23886v-0.14872l0.09539 0.01127-0.05905 0.09014a0.33388 0.33124 0 0 0 0.12946 -0.12619l0.02499-0.0293h0.12038l0.0159 0.02704 0.04315 0.07662a0.22713 0.22534 0 0 1 0.02726 -0.08112 1.3196 1.3092 0 0 0 0.0886 -0.14195h0.07495l0.06132 0.10365a0.95395 0.94641 0 0 1 0.05224 -0.15323l0.08858 0.03605a0.58145 0.57686 0 0 1 0.05451 -0.1983l0.05905 0.06309c0.02499-0.0338 0.16808-0.2028 0.18398-0.07887l0.05224-0.04507 0.05678 0.0383a0.42928 0.42589 0 0 0 0.19306 -0.16224l0.06814 0.06084c-0.09766-0.20506 0.08858-0.32448 0.24303-0.22534v-0.15097l0.03407 0.06084h0.10221l0.05451-0.11042 0.08631 0.0383c0.02953-0.09915 0.07041-0.22534 0.18852-0.25238l0.03862 0.04056-0.04542-0.05183 0.05451-0.09689 0.08858 0.0383 0.04315-0.04732-0.04315-0.04958v-0.09464a0.80404 0.79769 0 0 0 0.13628 0.09689c-0.01136-0.22534 0.24984-0.18027 0.25666-0.36054l0.07268 0.08112v-0.13293a0.52694 0.52278 0 0 0 0.15672 -0.22534h0.09312c-0.06132 0-0.01817 0.06535 0 0.09239 0-0.14872 0.14309-0.24562 0.19306-0.37857l0.03407 0.06084h0.14309l-0.03634-0.09689-0.01136-0.03155 0.10448-0.02479c0-0.04732-0.12719-0.22534-0.02044-0.18928l0.09312 0.03606a0.23849 0.2366 0 0 1 0.09085 -0.15548 0.5224 0.51827 0 0 1 -0.0159 0.14872c0.06132-0.05634 0.11129-0.14647 0.02272-0.20731l0.11356-0.1014 0.07722 0.03381c0-0.02028 0-0.14422-0.04769-0.09013a0.31571 0.31322 0 0 1 0.14082 -0.11267v-0.18028c-0.12946 0.02479-0.02953-0.17351 0.08177 0l-0.08858-0.11492c0.03407-0.10591 0.07268-0.1352 0.18625-0.11042a0.25439 0.25238 0 0 1 -0.05678 -0.30646 0.47697 0.47321 0 0 0 0.02272 -0.17576l-0.10902-0.02479a0.27256 0.2704 0 0 0 0.14536 -0.07436l-0.09539-0.11042 0.08177-0.03605-0.04543-0.06985a0.70638 0.7008 0 0 0 0.16353 -0.45067l-0.04769-0.04958 0.04089-0.04507-0.0477-0.04958 0.03635-0.0383-0.04542-0.04958 0.01136-0.09689 0.08858 0.05859a0.45426 0.45067 0 0 1 0.03862 -0.14422l-0.11129-0.01577 0.10221-0.10366-0.04543-0.04732a0.39975 0.39659 0 0 1 0.07495 -0.14872l-0.05224-0.09464c-0.08177 0.11492-0.18625 0.05408 0-0.09014l0.03634 0.0383-0.04315-0.05183 0.03634-0.08788-0.08631-0.01352 0.04769-0.09239zm-12.452 4.394a0.39521 0.39209 0 0 1 -0.088581 -0.09464h0.081767zm0.24303 0.22534v-0.08337a0.40884 0.40561 0 0 0 0.14763 0.04056zm4.3155 1.8387a0.10902 0.10816 0 0 1 0.10448 -0.03605 0.10902 0.10816 0 0 1 -0.09539 0.0293zm1.8965-0.01803a0.10902 0.10816 0 0 1 -0.03862 -0.10366 0.10902 0.10816 0 0 1 0.0477 0.09689zm-0.586-0.81572a0.10675 0.10591 0 0 1 0.03862 0.1014 0.10675 0.10591 0 0 1 -0.02953 -0.10816zm-0.31117-0.01577a0.10902 0.10816 0 0 1 -0.10448 0.03606 0.10902 0.10816 0 0 1 0.11356 -0.04281zm-1.0584 0.0293a0.10902 0.10816 0 0 1 -0.10448 0.03605 0.10902 0.10816 0 0 1 0.11356 -0.04281zm-0.16581-0.13971v0.14422c-0.04088-0.04507-0.06359-0.10591-0.09085-0.13746zm-1.6329-0.45v0.1014a0.45426 0.45067 0 0 1 -0.109 -0.094zm-0.7904 0.606h-0.0999v-0.05859h0.0999zm7.6452-0.37631v-0.1014h0.14536c-0.05451 0.0293-0.11356 0.04958-0.14536 0.09915zm1.817-1.672h-0.10221v-0.05858h0.10221zm0.32252-1.9672h0.102v0.05858h-0.10221zm0.04769 0.20731a0.10675 0.10591 0 0 1 -0.03634 -0.10366 0.10675 0.10591 0 0 1 0.03862 0.1014zm0.58145-0.45067a0.10902 0.10816 0 0 1 0.10448 -0.03605 0.10902 0.10816 0 0 1 -0.09312 0.03155z" class="cls-4"/>
   <path d="m6.526 16.378c-0.0477-0.128-0.0455-0.329-0.2272-0.329l0.063597-0.0338a0.34751 0.34476 0 0 1 -0.1226 -0.178l-0.077224 0.01127a0.29527 0.29294 0 0 0 -0.11129 -0.11717l0.038612-0.0338v-0.09915l-0.11129-0.06535 0.10221-0.08337a0.90852 0.90135 0 0 1 -0.19533 0l0.038612-0.0676c-0.043155 0.04281-0.093124 0-0.10902-0.04732l0.10448-0.02479v-0.141h-0.1023l-0.027256 0.06309c-0.059054 0 0.018171-0.15098 0.015899-0.16224 0-0.09915-0.14536-0.06535-0.20215-0.11267l0.14764-0.02704v-0.09689c-0.043155-0.0383-0.10902-0.03605-0.15445-0.06986l0.10448-0.02028v-0.1014l-0.17262 0.01126a0.94259 0.93515 0 0 1 0.013628 -0.14872l-0.05224 0.04281h-0.0955a0.69275 0.68728 0 0 0 0.05 -0.133l0.079496 0.05408 0.024985-0.06084 0.018171-0.04281-0.05224 0.04056a0.16581 0.1645 0 0 1 -0.1113 -0.18l-0.063597 0.04507-0.022713-0.07211 0.079496-0.07887c-0.11811 0.04958-0.099937-0.08112-0.047697-0.04958-0.056783-0.08112-0.19533-0.19604-0.063597-0.28392l-0.072682 0.04056-0.079496-0.08112c0-0.07662 0.077224-0.13069 0.072682-0.20731-0.00454-0.07662-0.05224-0.15774-0.063597-0.23886a0.22713 0.22534 0 0 1 -0.14991 -0.02479l0.10221-0.02028-0.068139-0.07211 0.063597-0.0383c-0.16126-0.09464-0.072681-0.1014-0.079495-0.21182l-0.045426-0.04056a0.62461 0.61968 0 0 1 0.099937 -0.11942c-0.2271 0.017-0.0795-0.127-0.0159-0.21h-0.1067l0.038612-0.05859a0.22713 0.22534 0 0 1 -0.05224 -0.11492l-0.5542 0.0383 0.5542-0.0383a0.11584 0.11492 0 0 1 0.011356 -0.06986l0.093124 0.03381v-0.1014c-0.054511 0-0.099937-0.0383-0.15218-0.05183 0.027256-0.169 0.047697-0.17126-0.022713-0.34026l0.084039-0.0383a0.43836 0.4349 0 0 0 -0.0977 -0.154v-0.07887l0.081767-0.02253c-0.043155-0.04732-0.074954-0.13746 0-0.18252-0.14309 0.10816-0.084038-0.04281-0.049969-0.11041l-0.047698-0.07211 0.13855-0.18478-0.10902-0.01352 0.03407-0.09915h0.11129c-0.052239-0.03606-0.059053-0.1307-0.14309-0.09239l-0.015899-0.04281c0.038612-0.06309 0.099937-0.15548 0.1817-0.16675a0.31117 0.30871 0 0 0 -0.159 -0.123l0.10448-0.02028a0.7677 0.76164 0 0 1 0.013628 -0.14422l-0.72682 0.04958v0.10366l-0.0931-0.057a0.30208 0.2997 0 0 0 0.1135 0.126l-0.1521-0.014c0.040884 0.04507 0.049969 0.11267 0.097666 0.15323l-0.084038 0.03605c0 0.02028 0 0.15323 0.049969 0.11042-0.038612 0.04056-0.047698 0.09689-0.088581 0.1352a0.2771 0.27491 0 0 0 0.12265 -0.1059c0.029527 0.07887 0 0.11717-0.063597 0.15999l0.045426 0.04732a1.2379 1.2281 0 0 1 -0.17943 0.20956h0.081767c-0.031798-0.15323 0.19079 0.0293 0 0.04958l0.065868 0.04732a0.43609 0.43265 0 0 1 -0.095394 0.15097v0.09915c0.15445 0 0.15445 0.09689 0.05224 0.10816v0.07887l0.063597 0.01352v0.07887l-0.10448 0.02479 0.045426 0.05183-0.040884 0.0338c0 0.02253 0 0.15323 0.05224 0.11492l-0.079496 0.09239h0.081767c-0.031798-0.15323 0.19079 0.0293 0 0.04958l0.065868 0.04958a0.22713 0.22534 0 0 1 -0.045426 0.12168c-0.022713 0.04281-0.027256 0.08112 0.063597 0.1352v0.07662l-0.10675 0.02704c0.12492 0.19379 0.15445 0.13295 0.07041 0.36955l0.10902 0.01352a0.19306 0.19154 0 0 1 -0.097666 0.14647l0.068139 0.04732-0.059054 0.09014 0.074953-0.04281h0.074953l-0.079496 0.08112v0.09915l0.08631 0.01126v0.07887l-0.081767 0.02253c0 0.05859 0.063597 0.36054 0.024985 0.38983l0.095395 0.10591-0.081767 0.07436c0.11811 0 0.11584-0.09239 0.23849 0l0.00227 0.11492-0.07041-0.03605a1.2469 1.2371 0 0 1 0.099937 0.22534c0.011357 0.04958 0 0.08337-0.036341 0.0676 0.15445 0.15999 0.05224 0.12168 0.065868 0.28618l0.05224-0.06535 0.099937 0.07436-0.013628 0.07436-0.090852-0.03155 0.11584 0.08788-0.038612 0.08788 0.15218 0.01352-0.061325 0.03381 0.068139 0.07211-0.061325 0.0338a0.20215 0.20055 0 0 1 -0.03407 0.15548l0.05224 0.09464 0.08631-0.0676 0.027256 0.14647c0.031798 0 0.14082 0 0.13174-0.05183 0 0.03155 0.029527 0.10591-0.020441 0.11492a0.18852 0.18703 0 0 1 0.015899 0.22534h0.13401c0.027256 0.07436 0.12492 0.18478 0.038612 0.25688 0.11811-0.05183 0.097666 0.07887 0.045426 0.04958a0.71773 0.71206 0 0 0 0.15899 0.10591l-0.038612 0.0338v0.1014a0.22713 0.22534 0 0 1 0.16353 0.10363zm-1.5899-1.0974a0.10675 0.10591 0 0 1 -0.03634 -0.10365 0.10675 0.10591 0 0 1 0.047698 0.10365z" class="cls-4"/>
   <path d="m5.3812 16.423a0.10448 0.10365 0 0 0 0.10448 -0.03605 0.10675 0.10591 0 0 0 -0.10448 0.03605z" class="cls-4"/>
   <path d="m5.195 13.721c0.05224-0.09464 0.018171-0.10816 0-0.10366z" class="cls-4"/>
   <path d="m19.336 13.433h0.06814c-0.03407-0.03605-0.08858-0.02479 0-0.19379a0.12946 0.12844 0 0 1 -0.11356 -0.0383l-0.09539 0.05183v0.1014l0.06359 0.01126a0.27483 0.27266 0 0 1 -0.0318 0.07887h0.09085zm-0.03407-0.08788a0.10675 0.10591 0 0 1 -0.03634 -0.10366 0.10675 0.10591 0 0 1 0.02499 0.10366z" class="cls-4"/>
   <path d="m19.109 13.257c0.01136 0.03155-0.03407 0.07887-0.05451 0.14422 0.0318 0 0.05678-0.02028 0.10221-0.05183-0.01136-0.0022-0.02726-0.1014-0.0477-0.09239z" class="cls-4"/>
   <path d="m5.5902 6.8981c0.038612 0 0.040884 0.04056 0.07041 0.036054 0.029527-0.00451-0.024985-0.0338-0.045426-0.051827a0.33161 0.32899 0 0 1 0.027256 -0.083374c-0.0478 0.0384-0.1318 0.0429-0.2272 0.1015a1.2697 1.2596 0 0 1 0.15218 0.083374c0.011357-0.031547 0.00454-0.065347 0.022714-0.085628z" class="cls-4"/>
   <path d="m4.7521 8.142a0.10675 0.10591 0 0 0 -0.1045 0.0361 0.10675 0.10591 0 0 0 0.1045 -0.0361z" class="cls-4"/>
   <path d="m4.8883 10.071a0.13401 0.13295 0 0 1 0.14763 0.03831c0-0.07211 0-0.20731 0.095395-0.22534v-0.07887h-0.1067a0.18625 0.18478 0 0 0 -0.015899 -0.22534l0.10675-0.02704-0.070411-0.10816 0.054511-0.11718c-0.043155 0.04281-0.093124 0-0.11129-0.04957l0.10448-0.02253c0-0.05183 0.038612-0.09464 0.03407-0.14647h-0.1023l-0.022713 0.10591-0.027256-0.13295a0.37931 0.37631 0 0 0 0.14764 -0.06084l-0.11129-0.01803v-0.074361l0.031798-0.018027 0.074954 0.0338 0.040884-0.049574c-0.1066-0.1125-0.1293-0.1599-0.0317-0.2906l0.056783 0.1014v-0.1036c-0.079496 0.02704-0.020441-0.12394 0-0.14872h-0.084c0.0499-0.1014 0.1453-0.1826 0.1726-0.2952-0.086309 0.11492-0.18852 0.049574 0-0.092388l0.038612 0.038307-0.045426-0.051827 0.036341-0.054081-0.045426-0.051827 0.038612-0.0338-0.043155-0.049574c0.015899-0.1307 0.2135-0.38307 0.072681-0.49123 0.05224-0.063094 0.10221-0.081121 0.072682-0.17351h0.1067a0.33615 0.3335 0 0 0 -0.05 -0.1285l0.036341-0.056334-0.05224 0.045067-0.093124-0.036054v0.1352l-0.1068 0.0248 0.0659 0.0495a0.44063 0.43715 0 0 1 -0.13401 0.24562h0.08631a2.1237 2.1069 0 0 0 -0.1704 0.1533l-0.059054-0.11943-0.043155 0.069854 0.045426 0.051827-0.038612 0.0338 0.049969 0.12844-0.10448 0.024787 0.068139 0.085628a0.35887 0.35603 0 0 1 -0.15218 0l0.029527-0.092388c-0.027255 0.042814-0.095395 0.076614-0.090852 0.1352 0.00454 0.058587 0.07041 0.063094 0.072682 0.11267 0.00227 0.049574-0.077224 0.081121-0.054511 0.14872a0.55647 0.55207 0 0 0 -0.1906 0.0653 0.13174 0.1307 0 0 1 0.1499 0.1893l-0.0386-0.0811h-0.1023l0.043155 0.047321a0.82221 0.81572 0 0 1 -0.1408 0.142l0.11129 0.015774-0.038612 0.031547 0.047698 0.072107-0.040884 0.0338c0 0.029294 0 0.14647 0.05224 0.12619l-0.14764 0.029294 0.043155 0.04732a0.19533 0.19379 0 0 1 -0.1408 0.1104c0 0.05183-0.038612 0.09464-0.031798 0.14647l0.049969-0.06535 0.05224 0.01127v0.07661c-0.054512 0.02479-0.12719 0.06309-0.14082 0.12844h0.1522a0.088581 0.087881 0 0 0 -0.056783 0.12394l-0.14764 0.02704-0.040884 0.04957a0.96758 0.95993 0 0 0 0.11584 0.12394l-0.14763 0.02479c0.059054 0.05183 0 0.22534 0.054511 0.19604l-0.14082 0.14196 0.11129 0.02704-0.10221 0.08563c0.049969 0 0.14991-0.04732 0.15218 0.03605l-0.088581 0.11267-0.095395-0.05634v0.10366h0.086309l0.72682-0.04958a0.29754 0.29519 0 0 0 -0.0364 -0.211zm0.036341-0.16224c0.049969-0.0293 0.07041-0.04281 0.059054-0.09014 0.029527 0 0.031798 0.18252 0.031798 0.18252h-0.084zm-0.5496-0.0137h-0.1022a0.50423 0.50025 0 0 1 0.090852 -0.15098zm-0.079496-0.29744a0.10902 0.10816 0 0 1 0.10448 -0.03605 0.10675 0.10591 0 0 1 -0.10675 0.03605zm0.3407-1.0095a0.10902 0.10816 0 0 1 0.10448 -0.036054 0.10675 0.10591 0 0 1 -0.10675 0.036054zm0.26347 1.681a0.10675 0.10591 0 0 1 -0.036341 -0.10366 0.10675 0.10591 0 0 1 0.031798 0.10366z" class="cls-4"/>
   <path d="m12.177 21.031h-0.10221v0.04507l0.0477 0.01127a0.45426 0.45067 0 0 0 0.05451 -0.05634z" class="cls-6"/>
   <path d="m15.788 20.387a1.1357 1.1267 0 0 0 -0.27256 0.11943l0.29754-0.02028h-0.08404z" class="cls-6"/>
   <path d="m9.1357 20.549a0.15445 0.15323 0 0 0 -0.061325 0l0.031798 0.01803a0.065868 0.065348 0 0 0 0.029527 -0.01803z" class="cls-6"/>
   <path d="m15.997 20.475h0.01817a0.063597 0.063094 0 0 0 -0.01817 -0.01803v0.01803z" class="cls-6"/>
   <path d="m16.749 20.015c-0.04088-0.04056-0.10221-0.05183-0.13855-0.09689l0.04088 0.07662a0.14763 0.14647 0 0 1 -0.08177 0.03605 0.22713 0.22534 0 0 1 -0.09085 0.15323c-0.03634 0 0-0.12168 0.02044-0.14647h-0.08177l-0.04089 0.04281c0 0.04507 0.05678 0.08788 0.09312 0.11267l-0.06587 0.09915c-0.16808-0.32223-0.28618-0.04056-0.38839 0.11267l-0.03407-0.0383h-0.09994l-0.05451 0.10816h-0.01363l-0.29754 0.02028a0.19306 0.19154 0 0 0 -0.07495 0.09464 0.24984 0.24787 0 0 1 -0.10221 -0.07887c-0.14082 0.04507-0.22713 0.13295-0.39294 0.11492v0.10591l-0.05678-0.0383-0.0954 0.11267a0.15672 0.15548 0 0 1 -0.03634 -0.08112l-0.05224 0.04507a0.11811 0.11718 0 0 0 -0.09312 -0.0338v0.13069s0 0.01352-0.04315 0.01803a0.049969 0.049574 0 0 1 -0.04997 -0.05859h-0.14536l0.04769 0.08788-0.12038 0.0676a0.16808 0.16675 0 0 1 -0.03862 -0.08337 0.47925 0.47546 0 0 0 -0.14536 -0.05408l0.04542 0.07436-0.05224 0.07436c-0.07268-0.04507-0.17035-0.03155-0.2453-0.0676v0.08112l0.0636 0.02704c-0.10221 0.04281-0.293 0.04732-0.31571-0.09239a1.9897 1.9739 0 0 0 -0.14991 0.13971 0.11811 0.11718 0 0 0 -0.09312 -0.0338v0.10591l-0.18625-0.09464c-0.03407 0-0.09312 0.11267-0.14763 0.01352v0.14872c-0.10221-0.05408-0.22713-0.07662-0.31117-0.17126l-0.08404 0.09239a0.090852 0.090135 0 0 1 -0.06132 -0.07887c-0.06587 0.02479-0.05678 0.10366-0.08858 0.15323l-0.10675-0.09915-0.04769 0.04732h-0.07722l-0.02272-0.04507 0.04088-0.0383-0.04769 0.04281a0.16353 0.16224 0 0 0 -0.09085 -0.0338 0.36341 0.36054 0 0 1 -0.04315 0.04281v-0.05409a0.095395 0.094641 0 0 1 -0.04088 -0.02704c0.07722 0.12844-0.18625 0.05408-0.31798 0.10816a0.61325 0.60841 0 0 0 -0.09312 -0.07887l-0.01136 0.08563c-0.08404-0.05634-0.22713-0.05409-0.24303-0.18027l0.04088-0.0383a0.19988 0.1983 0 0 1 -0.09767 0.04958l0.06587 0.04958c0.01363 0.18478-0.12492 0.05633-0.23849 0.0676l-0.02953-0.14647c-0.07495 0-0.16353-0.04056-0.22713 0l0.08858 0.01802-0.03634 0.06986c0.04542-0.04281 0.09085 0 0.11129 0.04507a0.47016 0.46645 0 0 1 -0.22713 0.01352l0.06132-0.09014c-0.0318 0-0.14309 0-0.13174 0.04958-0.03635-0.03606 0-0.14872 0-0.19154-0.0795 0.05408-0.15672 0.10591-0.22713 0.1645-0.01363 0-0.0159-0.04958-0.0159-0.05183a0.10221 0.1014 0 0 1 0.03407 -0.07436c-0.04315 0.02704-0.12038 0.0383-0.09085-0.01577-0.04316 0.02479-0.09767 0.06535-0.10902 0.11492a0.45426 0.45067 0 0 1 -0.08177 -0.10591l0.03635-0.04056c-0.08177 0.07662-0.33161 0.12844-0.33615 0.06535a0.090852 0.090135 0 0 1 0.011358 -0.04507 0.097666 0.096895 0 0 0 0.015898 -0.06535 0.20215 0.20055 0 0 1 -0.081769 0.0676 0.53149 0.52729 0 0 0 -0.0795 0.04958 0.33842 0.33575 0 0 1 -0.029526 -0.04281c-0.022717-0.0383-0.047695-0.09013-0.031796-0.12394l-0.0795 0.0676a0.68139 0.67601 0 0 0 -0.27256 -0.04281l0.040884-0.03155-0.040884-0.14422-0.018171 0.08788h-0.077224l-0.022713-0.04507 0.040884-0.0383-0.047697 0.04281c-0.056763-0.04056-0.11809-0.07436-0.17941-0.10816a0.13174 0.1307 0 0 1 -0.074953 0.01127 0.077224 0.076614 0 0 1 0.043155 -0.03155 1.3855 1.3746 0 0 1 -0.2135 -0.14422l-0.047697 0.04732-0.03407-0.04056c-0.027255 0-0.14536 0-0.11584 0.04958h-0.097658l0.061325-0.0338v-0.08112c-0.03407 0-0.18625 0-0.17035 0.05409-0.024984-0.06535-0.074953-0.11718-0.099938-0.18478l-0.049969 0.04507a0.11584 0.11492 0 0 0 -0.093124 -0.03381v0.08337c-0.061325-0.0383-0.12719-0.12619-0.045426-0.18252l-0.05224 0.04056a1.1538 1.1447 0 0 1 -0.20215 -0.06986l-0.013628 0.08563c-0.040883-0.03155-0.10902-0.11267-0.072681-0.16225l-0.022713 0.02028c-0.031798-0.02253-0.065868-0.03155-0.061325-0.07662l-0.049969 0.04281a0.16581 0.1645 0 0 1 -0.084037 -0.09917h-0.1315s-0.013628 0-0.018171-0.04281c-0.00454-0.04281 0.038612-0.06535 0.031798-0.10591a0.22713 0.22534 0 0 1 -0.088581 0.0676l-0.022713-0.10365-0.047697 0.04281a0.22713 0.22534 0 0 0 -0.17262 -0.0293 0.11357 0.11267 0 0 1 -0.015899 -0.02253l-1.0857 0.07436a0.28846 0.28618 0 0 1 0.088581 0.1645h0.10675l0.013628 0.19154 0.05224-0.04507a0.5701 0.56559 0 0 0 0.14082 0.04732c-0.03634 0.05858-0.11584 0.07211-0.14082 0.13971a1.3423 1.3317 0 0 1 0.36795 0l-0.061325 0.09013c0.031798 0 0.14309 0 0.13174-0.04957l0.029527 0.14647a0.79723 0.79093 0 0 1 0.19306 0l-0.040884 0.0338 0.038612 0.07887a0.095395 0.094641 0 0 1 0.05224 -0.09014l0.029527 0.14422h0.084038l-0.081767 0.07436h0.079496a0.22713 0.22534 0 0 1 0.095395 -0.08788s0.013628 0.02028 0.015899 0.04281c0.00227 0.02253-0.038612 0.06535-0.031798 0.10591l0.049969-0.06535h0.077224l0.072682 0.10366c0.027255 0 0.14309 0 0.11357-0.05183 0.074953 0 0.097666 0.12619 0.088581 0.18478 0.15899-0.07887 0.20896-0.02028 0.28618 0.08788l1.5218-0.10591-1.5218 0.10591 0.027256 0.04056 0.049969-0.04507c0.099938 0 0.26347 0.1014 0.26347 0.22534h0.12946a0.19306 0.19154 0 0 1 -0.011357 0.11042c0.077224-0.06309 0.16126-0.08563 0.19533 0.02704h0.079496c0-0.06309 0.059054-0.09464 0.072682-0.15323l0.079496 0.07436a0.16581 0.1645 0 0 1 -0.084038 0.03605 0.39066 0.38758 0 0 0 0.090852 0.13746v-0.09012c-0.015899 0 0.020442-0.01802 0.036341-0.01802a0.1976 0.19604 0 0 1 0.12492 0.04957l-0.081767 0.09014a0.77224 0.76614 0 0 1 0.20215 0.03381l0.10902-0.09239 0.079496 0.0969-0.081767 0.09239a2.9277 2.9046 0 0 1 0.34297 -0.04732l-0.013628 0.02704-0.022713 0.04281c0.10221 0 0.093124-0.08788 0.21577-0.01577a0.16126 0.15999 0 0 1 -0.015898 0.10591l0.054513-0.04281 0.034066 0.0383c0.065871 0 0.086309-0.11267 0.2135 0a0.11584 0.11492 0 0 0 -0.056783 0.09464h0.10221a0.25439 0.25238 0 0 1 0.02726 -0.10591l0.02272 0.1014h0.10221l0.01136-0.10591c0.06359 0 0.12265 0.1352 0.14082 0.18478l0.0159-0.08788h0.05678l0.02272 0.08112c0.04316 0 0.06132-0.04507 0.10221-0.04732l0.11811 0.09689 0.06587-0.06535a0.14536 0.14422 0 0 0 0.08177 0.1014v-0.09013c0.14536-0.09915 0.16126 0.03605 0.21123 0.11943l0.04997-0.04507 0.05451 0.03605 0.05224-0.04507c0 0.07662 0.37249 0.04958 0.3566-0.02479a0.72 0.71432 0 0 0 0.17489 0.18027l-0.04088-0.05183a0.44063 0.43715 0 0 1 0.08858 -0.1014l0.02272 0.10366c0.13628 0 0.17035 0.03155 0.29981 0.02253v-0.06985s0-0.01352 0.04316-0.01803c0.04316-0.0045 0.10448 0.0383 0.15672 0.04958l-0.06132 0.0676a0.43382 0.43039 0 0 0 0.15445 -0.1352l0.05678 0.03606 0.04769-0.04281c0.0477 0.04507 0.12946 0.03381 0.1817 0.07211l0.01363-0.08563a0.18398 0.18252 0 0 1 0.11129 0.11943c0.10448-0.07211 0.18852-0.23886 0.29754-0.06309 0.07722 0 0.24303-0.08112 0.293-0.02253-0.04997-0.11267 0.08177-0.09915 0.04542-0.04507l0.05224-0.04507 0.05678 0.03605 0.05224-0.04507 0.03634 0.0383a0.36568 0.36279 0 0 0 0.12719 -0.11492s0.03407 0.10365-0.02044 0.11267l0.04769 0.07662h0.14536a0.26347 0.26139 0 0 1 0.05451 -0.1307h0.07495a0.34297 0.34026 0 0 1 -0.01363 0.12844c0.09539-0.0383 0.22713-0.20055 0.32934-0.10591l0.01363-0.10816 0.11129 0.09915c0.08858-0.06986 0.14536-0.17802 0.27937-0.12844v-0.15098l0.03407 0.06084a0.20669 0.20506 0 0 1 0.15672 0.0338c0.07268-0.09689 0.45426 0.07887 0.36568-0.20055a0.19306 0.19154 0 0 1 0.10675 0.01577l-0.04316-0.05183 0.05451-0.09689 0.03407 0.0383c0.04315 0 0.0795-0.04958 0.09767-0.08337l-0.08631 0.04507-0.02726-0.10816 0.34297-0.02253a0.16581 0.1645 0 0 1 0.01817 -0.04507c0.02953-0.04732 0.07268-0.08337 0.08177-0.12168l-0.0477-0.05633 0.14536-0.02704c0.0636-0.09915 0-0.26815 0.17943-0.27266v-0.13069a0.11129 0.11041 0 0 1 0.16581 0.0383 0.14763 0.14647 0 0 1 0.09085 -0.07436l-0.06587-0.06309 0.02953-0.01803c0.09085-0.05633 0.17035-0.12168 0.26574-0.169l0.04088 0.03605c-0.09768-0.11266-0.04317-0.31322 0.12945-0.26139v-0.08112zm-0.71546 0.51602a0.15672 0.15548 0 0 0 -0.02044 -0.05859h-0.01817v-0.01803l0.01817 0.01803a0.15899 0.15774 0 0 1 0.02044 0.06084z" class="cls-6"/>
   <path d="m5.7083 19.654-0.03407 0.03155a0.045426 0.045067 0 0 0 0.03407 -0.03155z" class="cls-6"/>
   <path d="m6.6872 19.375 0.040884-0.05634a0.10448 0.10365 0 0 0 -0.040884 0.05634z" class="cls-6"/>
   <path d="m7.0574 19.551-0.029527 0.08788-0.059054-0.12394-0.013627 0.08563a0.28164 0.27942 0 0 1 -0.11129 -0.14647l-0.049969 0.06535h-0.077224c0 0.01802-0.018171-0.02253-0.018171-0.03155 0-0.009 0.043155-0.01577 0.038612-0.05634-0.00454-0.04056-0.061325-0.0293-0.054511-0.0676-0.095395-0.03381-0.099938-0.14422-0.040884-0.11042a0.3089 0.30646 0 0 0 -0.15899 -0.12168 0.3407 0.338 0 0 0 0.14763 -0.05633c-0.07041 0-0.18852 0.0676-0.20215-0.05634l-0.07041 0.06535a0.42473 0.42138 0 0 1 -0.081767 -0.10591l0.038612-0.0383-0.086309 0.04507-0.024985-0.10366h-0.1498l-0.015899-0.23661a0.19079 0.18928 0 0 1 -0.19079 0.04056l0.040884-0.0338v-0.09689a0.4747 0.47095 0 0 1 -0.1022 -0.15s-0.084038 0.08563-0.10448 0.07211a0.14082 0.13971 0 0 1 -0.077224 0l0.047698-0.05408 0.031798-0.03605-0.08631-0.01577a0.11811 0.11718 0 0 0 0.03407 -0.09239l-0.049969 0.06535h-0.0772c-0.134-0.108-0.025-0.146-0.0341-0.209h-0.1022a0.27256 0.2704 0 0 1 -0.022713 0.10591 1.6422 1.6292 0 0 1 -0.036341 -0.25238l-0.10675-0.01127 0.061325-0.0338a1.2333 1.2236 0 0 1 0.029528 -0.18928 0.30663 0.3042 0 0 0 -0.12719 0.15548l-0.020441-0.1014-0.05224 0.04507-0.097666-0.04958c0.040884-0.04056 0.05224-0.09915 0.097666-0.13745a0.11357 0.11267 0 0 1 -0.11811 -0.08337h-0.1317l-0.024985-0.10365-0.049969 0.04281-0.099938-0.04732a0.45426 0.45067 0 0 0 0.13628 -0.18478 1.0085 1.0005 0 0 1 -0.19533 0 0.28391 0.28167 0 0 1 0.099937 -0.13295l-0.074953 0.04056-0.077224-0.01352a0.10675 0.10591 0 0 0 0.036341 -0.08788l-0.10675-0.01127 0.063597-0.0383c-0.05224-0.03155-0.077224-0.09464-0.11811-0.13971l0.038612-0.03606-0.063597 0.04507a0.7518 0.74586 0 0 1 -0.03407 -0.18928h-0.084038c0.038612-0.01577 0-0.1645 0-0.18928a0.85174 0.84501 0 0 1 -0.19306 0.01577l0.011357-0.10365 0.031798 0.04056 0.10221-0.04281c-0.17716 0.01127-0.13628-0.1014-0.054511-0.11041v-0.08112a0.13855 0.13746 0 0 0 -0.068139 0.09013 0.15218 0.15098 0 0 1 -0.036341 -0.08112l-0.10675-0.01127a0.072682 0.072108 0 0 1 0.061325 -0.05634 0.22713 0.22534 0 0 0 -0.16126 -0.15548c0-0.02704 0.013628-0.04281 0.038612-0.02704-0.043155-0.04732-0.074953-0.13746 0-0.18252l-0.054511 0.04056h-0.074953c0-0.01577-0.013628-0.0383-0.020442-0.0676l-0.79723 0.05408a0.25439 0.25238 0 0 1 -0.036341 0.10816h0.068139a0.16353 0.16224 0 0 1 -0.015899 0.10816l0.088581-0.04507a0.10675 0.10591 0 0 1 -0.038612 0.15999 0.74953 0.74361 0 0 1 0.084038 0.22534 0.16353 0.16224 0 0 1 0.15218 0.04281 0.26574 0.26364 0 0 0 -0.14536 0.07662l0.08631 0.09013c-0.040884-0.04732 0-0.09239 0.047698-0.11041a0.22713 0.22534 0 0 1 0.068139 0.12394c0 0.02704-0.013628 0.04281-0.038612 0.0293 0.038612 0.08563 0.12946 0.10816 0.10221 0.22534h0.090852c0-0.01577 0.018171 0.02028 0.018171 0.03381 0 0.01352-0.040884 0.0383-0.038612 0.07662 0.00227 0.0383 0.049969 0.09239 0.056783 0.14422 0.031798 0 0.14082 0 0.12946-0.05183a0.29073 0.28843 0 0 1 0 0.22534h0.081767v-0.08112c0.081767 0.01577 0.088581 0.10816 0.14991 0.15323a0.62461 0.61968 0 0 0 -0.047698 0.14196c-0.022713-0.01577 0-0.04958-0.038612-0.0338l-0.022713 0.01127-0.03407 0.01802 0.07041 0.04281 0.065868-0.04507s0.015899 0.02028 0.018171 0.04281c0.00227 0.02253-0.038612 0.06535-0.031798 0.10816 0.13401-0.05858 0.1817 0.12619 0.16581 0.22534l0.063597-0.04507 0.031798 0.14647a0.27029 0.26815 0 0 1 0.22713 0.04507l-0.061325 0.0383a0.19533 0.19379 0 0 1 0.079496 0.1983l0.05224-0.06309 0.097666 0.01127a1.0244 1.0163 0 0 0 -0.10448 0.10367l0.040884 0.09689 0.015899-0.10816 0.095395 0.01126-0.040884 0.03155v0.1014l0.049969-0.04281 0.097666 0.01127-0.061325 0.03155 0.045426 0.03605 0.020442 0.01577a0.072682 0.072108 0 0 1 -0.059054 0.05858 1.1129 1.1041 0 0 1 0.081767 0.18252l0.043155-0.11041a0.30663 0.3042 0 0 1 0.040884 0.10365 0.19079 0.18928 0 0 1 0.14991 0.04732 0.12038 0.11943 0 0 0 -0.03407 0.09239c0.054511 0 0.099938 0.04056 0.15218 0.04958a0.11129 0.11041 0 0 0 -0.056783 0.09239l0.074953-0.0676h0.054511c0-0.01802 0.018171 0.02253 0.018171 0.03155a0.079496 0.078868 0 0 1 -0.03407 0.07436c0.17943-0.0338 0.14991 0.14196 0.2135 0.24336l0.07041-0.06985 0.074953 0.01352a0.27256 0.2704 0 0 1 -0.081767 0.10366c0.059054 0.08112 0.1976 0.25463 0.29527 0.11943 0.024984 0.02704 0.081767 0.11041 0.068139 0.15774l0.013628-0.01127c0.11584 0.06986 0.22713 0.07662 0.31571 0.14872l1.0857-0.07436c-0.056783-0.04958-0.015899-0.11042-0.10221-0.15999z" class="cls-6"/>
   <path d="m2.8941 15.891h-0.05224l0.049969 0.02028s0.00227-0.01126 0.00227-0.02028z" class="cls-6"/>
   <path d="m2.9214 15.808a0.12946 0.12844 0 0 1 0.020442 0.08112l0.79723-0.05408c-0.036341-0.12394-0.077224-0.34026-0.029527-0.37856l-0.065868 0.06535a0.11357 0.11267 0 0 1 0.0182 -0.157 0.22713 0.22534 0 0 0 -0.1158 -0.11l0.0636-0.036c-0.013628-0.02705-0.20896-0.18704-0.079496-0.20732a0.42701 0.42363 0 0 1 -0.099937 -0.17802 0.11357 0.11267 0 0 0 -0.08631 0.0676 0.35887 0.35603 0 0 1 0 -0.15323 0.10902 0.10816 0 0 0 0.090852 0.0338 0.65641 0.65122 0 0 0 -0.12038 -0.19154 0.056783 0.056334 0 0 1 0.038612 -0.06309l-0.093123-0.08788 0.038612-0.08788a0.30208 0.2997 0 0 1 -0.10902 -0.0293l0.10448-0.02253v-0.09915h-0.10221a0.27937 0.27716 0 0 1 -0.022713 0.10591c-0.022713-0.08562 0.013628-0.17351-0.015899-0.26139h0.12946v-0.09915l-0.049969 0.06535h-0.079496l-0.065868-0.07662a0.16126 0.15999 0 0 1 0.081767 -0.03605l-0.045426-0.06535a0.14991 0.14872 0 0 0 0.099937 -0.08337 0.85855 0.85177 0 0 1 -0.15445 -0.05183l0.0385-0.033a0.13174 0.1307 0 0 0 -0.1135 -0.11c0.049969-0.04507 0.081767-0.10365 0.14309-0.13746a0.27937 0.27716 0 0 1 -0.15445 -0.0293l0.14763-0.02704c-0.079496-0.1645-0.15899-0.09464-0.01817-0.28618l-0.15218-0.01352 0.059054-0.08788-0.10902-0.01352c0.054511-0.10591-0.047697-0.26364 0.08631-0.32899-0.20896 0.01352-0.072682-0.11492-0.081767-0.24111l0.10448-0.02704c-0.049969-0.14422 0-0.17126-0.022713-0.29068-0.11129 0.15999-0.16126-0.03155-0.045426-0.04507l-0.065868-0.04958v-0.07662a0.54057 0.5363 0 0 0 0.099937 -0.13294l-0.96076 0.06535c0 0.02028-0.015899 0.04281-0.024985 0.06535l0.068139-0.04281s0.015899 0.02253 0.018171 0.04281c0.00227 0.02028-0.095395 0.15098 0 0.11943l-0.077224 0.11492 0.086309 0.01352c-0.015899 0.05858-0.079496 0.11041-0.074953 0.17351 0.00454 0.06309 0.13174 0.12168-0.045426 0.26364l0.074953-0.04056 0.077224 0.01352-0.040884 0.03155 0.045426 0.07211a0.15672 0.15548 0 0 1 -0.081767 0.0383l-0.05224 0.18703a0.30663 0.3042 0 0 1 0.22713 0.08563l-0.10448 0.02253c0.049969 0.14422 0 0.17126 0.022713 0.29068l0.049969-0.06535 0.05224 0.01126v0.07887l-0.10448 0.02479 0.045426 0.05183-0.038612 0.05858c0.05224 0.08112 0.029527 0.13746 0.12265 0.19379l-0.061325 0.03381v0.1014l0.063597 0.01352-0.059054 0.03605v0.1014l0.088581-0.04507c0.063597 0.04732-0.022713 0.11718-0.018171 0.16224 0.00454 0.04507 0.043155 0 0.047698 0.04958 0.00454 0.04958-0.040884 0.0383-0.038612 0.07662 0.00227 0.03831 0.11584 0.10816 0.013628 0.1352h0.065868c0-0.01803 0.018171 0.02253 0.018171 0.0338 0 0.01126-0.043155 0.01577-0.038612 0.05634 0.00454 0.04056 0.11584 0.0383 0.011356 0.12394l0.10675 0.01127-0.061325 0.0338 0.065868 0.04958c-0.11129 0.13746-0.061325 0.18478 0.061325 0.25463l-0.038612 0.0338c0.056783 0.03606 0.015899 0.24111 0.022713 0.33575 0.15445 0 0.054511-0.01803 0.13174-0.05183l0.024985 0.1014 0.063597-0.06535 0.022713 0.09239a0.11357 0.11267 0 0 1 -0.15899 -0.01577l-0.074953 0.08562h0.13628l0.024984 0.10591 0.049969-0.04281 0.097666 0.01127-0.063597 0.03155a0.22713 0.22534 0 0 1 0.068139 0.08563 0.28391 0.28167 0 0 0 -0.14764 0.07662l0.040884 0.09689 0.013628-0.10816c0.16353 0.11267 0.10902 0.06084 0.047698 0.24787l0.05224 0.02028h0.05224a0.32934 0.32674 0 0 1 0.020442 -0.09915z" class="cls-6"/>
   <path d="m2.9532 11.772a0.42701 0.42363 0 0 1 0.038612 -0.05183c-0.031798-0.02479-0.16808-0.16675-0.059054-0.18252l-0.045426-0.05183a0.22713 0.22534 0 0 1 0.079496 -0.10365l-0.040884-0.0969-0.015899 0.10816-0.099937-0.05183a0.070411 0.069854 0 0 1 0.059054 -0.05634l-0.065868-0.06535a1.1516 1.1425 0 0 0 0.20442 -0.17125 0.31117 0.30871 0 0 1 -0.10902 -0.0293l0.10448-0.02253-0.068139-0.07211v-0.15999a0.32707 0.32448 0 0 1 0.15218 0c-0.049969-0.05633-0.05224-0.13746-0.097666-0.19604a0.14536 0.14422 0 0 1 0.081767 -0.03831c-0.12265-0.07436 0.081767-0.15548-0.054511-0.18928a0.66095 0.65573 0 0 0 0.19079 -0.06535l-0.15445-0.01352 0.061325-0.03381-0.068139-0.07211v-0.1595c-0.018171 0 0.022713-0.01802 0.031798-0.01802a0.084038 0.083375 0 0 1 0.077224 0.0338c-0.0113-0.189-0.0863-0.2115 0.0273-0.4932l0.090852 0.05859a0.26574 0.26364 0 0 0 -0.11357 -0.15548 1.2038 1.1943 0 0 1 0.13628 -0.2028l-0.08631-0.01352 0.013628-0.07661 0.068139 0.03831a1.2583 1.2484 0 0 1 0 -0.29744 0.068139 0.067601 0 0 1 0.056783 0.056334h0.081767a0.12946 0.12844 0 0 0 -0.090852 -0.065347 0.55874 0.55433 0 0 0 0.043155 -0.22534l0.072682 0.081121c0-0.024787 0-0.14647-0.045426-0.092388a0.71092 0.7053 0 0 1 0.14536 -0.099149 0.31798 0.31547 0 0 1 -0.11129 -0.031547 0.14536 0.14422 0 0 0 0.10221 -0.078868l-0.10902-0.011267 0.077224-0.078867 0.03407 0.04056 0.099938-0.038307-0.10902-0.01352a2.0442 2.028 0 0 0 0.2269 -0.3402l-0.088581 0.045067-0.027256-0.1352 0.10448-0.024787v-0.1307l0.1477-0.0293v-0.1014h-0.063597l0.059054-0.036054a0.20896 0.20731 0 0 1 -0.0682 -0.0856l0.1045-0.0225v-0.1488a0.11129 0.11041 0 0 0 0.095395 0.054081l-0.0681-0.0698c0.0204-0.0586 0.1044-0.0383 0.0567-0.124 0.0636-0.036 0.1499-0.036 0.1863-0.1081-0.056783 0.02704-0.10221 0.085628-0.10675 0a3.2525 3.2268 0 0 0 0.4224 -0.4507l-0.045426-0.045067c0.024985-0.081121 0.097666-0.1645 0.065868-0.25238h0.10902c0-0.024787 0-0.14422-0.047698-0.092388a0.095395 0.094641 0 0 1 0.018171 -0.036054c0.049969-0.056334 0.15899 0 0.16353-0.10816l-0.08631 0.047321a0.34978 0.34702 0 0 1 0 -0.15323 0.070411 0.069854 0 0 1 0.054511 0.058587l0.18852-0.01352c0-0.024787 0-0.169-0.049969-0.11267a2.0714 2.0551 0 0 1 0.1272 -0.2545l0.088581 0.058587a1.7784 1.7644 0 0 1 0.109 -0.3065l0.072682 0.078868c-0.0477-0.1059 0.0659-0.1645 0.1113-0.2433l0.036341 0.040561a0.43836 0.4349 0 0 0 0.1363 -0.1218l-0.0477-0.0586a0.92215 0.91487 0 0 1 0.2271 -0.036c0.0114-0.0676-0.0204-0.1127 0.0568-0.1555a0.1976 0.19604 0 0 1 -0.0999 -0.0924c0.0454-0.036 0.1794-0.0811 0.1385-0.1577 0.075-0.0248 0.1658-0.0361 0.209-0.1104l-0.088581 0.042814-0.022713-0.090135 0.13628-0.02704 0.061325 0.1014c-0.0431-0.1329 0.0704-0.1127 0.1158-0.2005a0.11357 0.11267 0 0 0 0.090852 0.0338v-0.1488l0.054511 0.038307a0.19533 0.19379 0 0 1 0.097666 -0.049574v-0.1013l-0.063597-0.02704c0.099938-0.076614 0.19079 0.01352 0.25893 0.074361l-0.0659-0.0745v-0.1374h0.1159a0.15899 0.15774 0 0 1 -0.0159 0.1059 0.21123 0.20956 0 0 1 0.0999 -0.0473 0.11584 0.11492 0 0 0 -0.0681 -0.0857 0.45426 0.45067 0 0 0 0.1544 -0.1757 1.0607 1.0523 0 0 0 0.109 0.1014 0.38385 0.38082 0 0 1 0.1341 -0.0564 0.29527 0.29294 0 0 1 -0.0568 -0.2118l0.19306-0.01352c-0.049969-0.11267 0.079496-0.096895 0.045426-0.045067l0.05224-0.045067 0.059054 0.038307a0.43155 0.42814 0 0 1 0.13855 -0.054081l-0.068139-0.072109a0.85401 0.84727 0 0 1 0.072682 -0.14196h0.05224a0.18625 0.18478 0 0 1 -0.013628 0.10816 0.37249 0.36955 0 0 0 0.12492 -0.15774 0.32025 0.31772 0 0 0 0.059054 0.14647v-0.1328c-0.024985-0.015773 0.097666-0.04056 0.077224 0.02028 0.13628-0.081121 0.25666-0.10816 0.12492-0.29294l0.05224-0.060841 0.099938 0.051827-0.059054 0.087881c0.029527-0.038307 0.15218-0.067601 0.11129 0l0.077224-0.04732-0.05224-0.099148-0.047697 0.045067-0.099938-0.063094c0.16126-0.056334 0.12947-0.018027 0.25439-0.036054 0-0.25688 0.27256-0.37406 0.32707-0.27942a0.29527 0.29294 0 0 1 0.020441 -0.19154 0.14082 0.13971 0 0 0 0.079496 0.099148v-0.087881l0.14991-0.029294v-0.087881c0-0.011267 0.029527-0.015774 0.043155-0.018027a0.081767 0.081121 0 0 1 0.065869 0.031548 0.16353 0.16224 0 0 1 -0.027256 -0.10591l0.1045-0.0225c0.05-0.2095 0.1931-0.2658 0.3202-0.4236h-0.1044c0 0.090135-0.11811 0.16675-0.19306 0.090135a0.13401 0.13295 0 0 0 0.10221 -0.085628h-0.099937a0.16126 0.15999 0 0 1 -0.10448 0.072107l0.065868 0.065347c0 0.01352-0.10675 0.0338-0.11357-0.02028h-0.081767c0 0.11267-0.07041 0.11943-0.14536 0.049574v0.092388a0.10902 0.10816 0 0 1 -0.16353 -0.0338h-0.1022a0.3407 0.338 0 0 0 0.11357 0.081121c-0.018171 0-0.25439 0.13295-0.22713 0.031547-0.074954 0.063094-0.049969 0.11041-0.14764 0.11718a0.1976 0.19604 0 0 0 -0.11811 -0.05408c0 0.065347 0.099938 0.14872 0.022713 0.20956l-0.0227-0.1013c-0.059054 0-0.10221 0.063094-0.11357 0.11492a0.19988 0.1983 0 0 0 -0.090852 -0.058588v0.10591l-0.056783-0.038307c-0.19306 0.18252-0.15218 0.049574-0.2453 0.060841 0 0.15098-0.099938 0.13971-0.15218 0.2659-0.10675 0-0.095395-0.085628-0.038612-0.14422l-0.12492 0.00901v0.1465l-0.034-0.0608-0.0499 0.0653-0.0364-0.0586h-0.1022c0.0909 0.2412-0.1158 0.2051-0.2453 0.1645a0.10902 0.10816 0 0 0 0.065868 0.085628 0.94486 0.9374 0 0 1 -0.20896 0.074361l0.065868 0.049574-0.074954 0.099148-0.074954-0.01352a0.097666 0.096895 0 0 0 0.031799 -0.090135c-0.018171 0.0338-0.14082 0.20731-0.17943 0.078867v0.067602l-0.10448 0.024787v0.10591l-0.056783-0.038307a0.42473 0.42138 0 0 1 -0.13855 0.054081c0 0.029294 0 0.14647 0.05224 0.12619a1.0834 1.0749 0 0 1 -0.33615 0.15098v0.067601l-0.10448 0.024787v0.10591l-0.056783-0.04056a0.32025 0.31772 0 0 1 -0.1771 0.0991v0.14872a0.11357 0.11267 0 0 0 -0.090852 -0.036054l0.065868 0.063094-0.14763-0.015774 0.043155 0.051827v0.096895l-0.031799-0.042814c-0.20896 0.01352-0.18852 0.083374-0.25439 0.25238a0.11584 0.11492 0 0 0 -0.090852 -0.00451v0.087881a0.38839 0.38533 0 0 0 -0.14991 0.060841 0.32934 0.32674 0 0 1 0.11129 0.031547l-0.10448 0.024792a0.22713 0.22534 0 0 1 -0.049969 0.14872 0.16353 0.16224 0 0 1 -0.040884 -0.083374l-0.095395 0.087881h0.090852c0-0.015773 0.018171 0.02028 0.018171 0.036054a0.19988 0.1983 0 0 1 -0.05224 0.12393l-0.0885-0.0811a0.28391 0.28167 0 0 1 -0.0932 0.1555l-0.0227-0.1014h-0.079496c0.12719 0.10816-0.022713 0.20506-0.063597 0.30195l-0.03407-0.058587h-0.1021a0.15218 0.15098 0 0 0 0.11357 0.065347 0.71773 0.71206 0 0 0 -0.05224 0.14196l-0.088581-0.058587 0.043155 0.074361a0.21123 0.20956 0 0 1 -0.18398 0.085628l0.045426 0.074361-0.054511 0.076614-0.03407-0.038307-0.14536 0.038307a0.39294 0.38983 0 0 1 0.15899 0.096895 1.3333 1.3227 0 0 1 -0.1817 0.060841l0.045426 0.072108c-0.0205 0.1419-0.1908 0.0608-0.1817 0.1915a0.054511 0.054081 0 0 0 0.047697 0.054081v0.076614c-0.05224 0.0338-0.14082 0.049574-0.16126 0.11492a0.11357 0.11267 0 0 0 -0.090852 -0.036054 0.22713 0.22534 0 0 1 0.049969 0.051827l0.018171 0.031547a0.61325 0.60841 0 0 0 -0.20896 0.12168l0.07041 0.069854-0.061325 0.0338v0.12844c-0.063597 0.022534-0.14536 0.02704-0.19079 0.078868l0.047697 0.065347a0.11584 0.11492 0 0 1 -0.12038 0.085628l0.043155 0.069854a4.261 4.2273 0 0 0 -0.2271 0.4283l0.10902 0.01352-0.14309 0.14647c-0.040884 0-0.065868-0.036054-0.10902-0.02704 0.059054 0.0338 0.077224 0.11267 0.12038 0.16224l-0.07041 0.01352-0.074953 0.01352c0 0.04056 0.043155 0.058587 0.047698 0.1014 0.00454 0.042814-0.03407 0.11718-0.029527 0.17802a0.85628 0.84952 0 0 1 -0.14309 0.094641l0.047697 0.060841-0.14763 0.029294a0.22713 0.22534 0 0 1 0.068139 0.085628l-0.10448 0.022534 0.045426 0.051827a0.12038 0.11943 0 0 0 -0.03407 0.092388 0.22713 0.22534 0 0 1 0.08631 -0.067601s0.015899 0.047321 0.018171 0.051827c0 0.10365-0.12492 0.13746-0.14309 0.067601a0.63824 0.6332 0 0 1 -0.1203 0.4936h0.07041c0-0.015773 0.018171 0.02028 0.018171 0.036054 0 0.11492-0.17035 0.099148-0.22713 0.169a0.17489 0.17351 0 0 1 0.15445 0.04732l-0.10448 0.05633a0.3089 0.30646 0 0 1 0.10902 0.02929c-0.059054 0.03831-0.065868 0-0.11811 0.08788l-0.068139-0.06084c0 0.08337-0.059054 0.10365-0.10221 0.1645v0.09689h0.088581a0.25212 0.25012 0 0 0 0.068139 0.13746l-0.10221 0.02028v0.14422l0.063597 0.01352-0.059054 0.03605v0.14872l-0.031798-0.0383h-0.1022l0.065868 0.04958 0.018171 0.26815c-0.090852 0.06309 0.022713 0.16675-0.14082 0.13746 0.043155 0.05409 0.08631 0.14647 0.013628 0.19154v0.09915l0.047697-0.06535 0.10221 0.08788-0.14763 0.02479c0 0.0293 0 0.14647 0.05224 0.12844l-0.10675 0.0293c0.068139 0.06084 0.11129 0.13295 0.015899 0.18928v0.09915l0.063597 0.01352v0.05633l-0.061325 0.02253 0.020442 0.29294h0.061325a0.65414 0.64897 0 0 0 -0.10902 0.18476z" class="cls-6"/>
  </g>
 </g>
</svg>
