<?xml version="1.0" encoding="UTF-8"?>
<svg width="24px" height="24px" viewBox="0 0 24 24" version="1.1" xmlns="http://www.w3.org/2000/svg" xmlns:xlink="http://www.w3.org/1999/xlink">
    <!-- Generator: Sketch 51.1 (57501) - http://www.bohemiancoding.com/sketch -->
    <title>Mobile</title>
    <desc>Created with Sketch.</desc>
    <defs></defs>
    <g id="Mobile" stroke="none" stroke-width="1" fill="none" fill-rule="evenodd">
        <polygon id="Shape" fill="#2D3E70" fill-rule="nonzero" points="10 20 14 20 19 20 19 12 22 12 12 3 2 12 5 12 5 20"></polygon>
        <rect id="Rectangle" fill="#FFFFFF" x="8" y="10" width="8" height="8" rx="1"></rect>
        <g id="ic_clear_black_24px" transform="translate(12.000000, 14.000000) rotate(-45.000000) translate(-12.000000, -14.000000) translate(9.000000, 11.000000)">
            <polygon id="Shape" fill="#2D3E70" fill-rule="nonzero" points="5 1.40285714 4.59714286 1 3 2.59714286 1.40285714 1 1 1.40285714 2.59714286 3 1 4.59714286 1.40285714 5 3 3.40285714 4.59714286 5 5 4.59714286 3.40285714 3"></polygon>
            <polygon id="Shape" points="0 0 6 0 6 6 0 6"></polygon>
        </g>
    </g>
</svg>