<?xml version="1.0" encoding="UTF-8"?>
<svg width="24px" height="24px" viewBox="0 0 24 24" version="1.1" xmlns="http://www.w3.org/2000/svg" xmlns:xlink="http://www.w3.org/1999/xlink">
    <!-- Generator: Sketch 51 (57462) - http://www.bohemiancoding.com/sketch -->
    <title>Mobile</title>
    <desc>Created with Sketch.</desc>
    <defs></defs>
    <g id="Mobile" stroke="none" stroke-width="1" fill="none" fill-rule="evenodd">
        <g id="balanced" transform="translate(3.000000, 4.000000)">
            <path d="M9,15 L9,0" id="Path-5" stroke="#2D4959"></path>
            <path d="M3,3 L15,1" id="Path-6" stroke="#2D4959"></path>
            <path d="M15.0441176,8 L12,8 C12.5,9.33333333 13.5147058,10 15.0441176,10 C16.5735294,10 17.5588235,9.33333333 18,8 L15.0441176,8 Z" id="Path-7" fill="#2D4959" fill-rule="nonzero"></path>
            <path d="M15.0441176,2 L12,7.82524272 C12.5,9.27508087 13.5147058,10 15.0441176,10 C16.5735294,10 17.5588235,9.27508087 18,7.82524272 L15.0441176,2 Z" id="Path-7" stroke="#2D4959"></path>
            <path d="M3.04411765,10 L0,10 C0.5,11.3333333 1.51470588,12 3.04411765,12 C4.57352942,12 5.55882353,11.3333333 6,10 L3.04411765,10 Z" id="Path-7" fill="#2D4959" fill-rule="nonzero"></path>
            <path d="M3.04411765,4 L0,9.82524269 C0.5,11.2750809 1.51470588,12 3.04411765,12 C4.57352942,12 5.55882353,11.2750809 6,9.82524269 L3.04411765,4 Z" id="Path-7" stroke="#2D4959"></path>
            <path d="M5,15 L13,15" id="Path-8" stroke="#2D4959" stroke-width="2"></path>
        </g>
    </g>
</svg>
