<?xml version="1.0" encoding="UTF-8" standalone="no"?>
<svg
   xmlns:dc="http://purl.org/dc/elements/1.1/"
   xmlns:cc="http://creativecommons.org/ns#"
   xmlns:rdf="http://www.w3.org/1999/02/22-rdf-syntax-ns#"
   xmlns:svg="http://www.w3.org/2000/svg"
   xmlns="http://www.w3.org/2000/svg"
   xmlns:sodipodi="http://sodipodi.sourceforge.net/DTD/sodipodi-0.dtd"
   xmlns:inkscape="http://www.inkscape.org/namespaces/inkscape"
   style="enable-background:new 0 0 100 100"
   xml:space="preserve"
   version="1.1"
   y="0px"
   x="0px"
   viewBox="0 0 100 125"
   id="svg10"
   sodipodi:docname="download.svg"
   inkscape:version="0.92.3 (2405546, 2018-03-11)"><defs
     id="defs14" /><sodipodi:namedview
     pagecolor="#ffffff"
     bordercolor="#666666"
     borderopacity="1"
     objecttolerance="10"
     gridtolerance="10"
     guidetolerance="10"
     inkscape:pageopacity="0"
     inkscape:pageshadow="2"
     inkscape:window-width="1920"
     inkscape:window-height="1055"
     id="namedview12"
     showgrid="false"
     inkscape:zoom="7.552"
     inkscape:cx="38.639654"
     inkscape:cy="34.819288"
     inkscape:window-x="0"
     inkscape:window-y="25"
     inkscape:window-maximized="1"
     inkscape:current-layer="svg10" /><metadata
     id="metadata2"><rdf:RDF><cc:Work
         rdf:about=""><dc:format>image/svg+xml</dc:format><dc:type
           rdf:resource="http://purl.org/dc/dcmitype/StillImage" /><dc:title /></cc:Work></rdf:RDF></metadata><g
     transform="translate(1.589 11.653)"
     id="g8"
     style="fill:#ffffff"><path
       d="m48.2 77.5c0.1 0.1 0.3 0.2 0.5 0.3 0.1 0.1 0.2 0.2 0.3 0.2 0.3 0.1 0.6 0.2 1 0.2 0.6 0.1 1.3-0.2 1.7-0.7 0 0 0.1 0 0.1-0.1l26.4-26.4c1-1 1-2.6 0-3.6s-2.6-1-3.6 0c-11.5 11.7-18.2 18.4-22.1 22.4v-64.8c0-1.4-1.1-2.5-2.5-2.5s-2.5 1.1-2.5 2.5v64.6l-22.1-22c-1-1-2.6-1-3.6 0s-1 2.6 0 3.6z"
       id="path4"
       style="fill:#ffffff" /><path
       d="m76.4 92.4h-52.8c-1.4 0-2.5 1.1-2.5 2.5s1.1 2.5 2.5 2.5h52.8c1.4 0 2.5-1.1 2.5-2.5 0-1.3-1.1-2.5-2.5-2.5z"
       id="path6"
       style="fill:#ffffff" /></g></svg>