<?xml version="1.0" encoding="UTF-8" standalone="no"?>
<svg xmlns:rdf="http://www.w3.org/1999/02/22-rdf-syntax-ns#" xmlns="http://www.w3.org/2000/svg" xml:space="preserve" height="75" width="75" version="1.1" y="0px" x="0px" xmlns:cc="http://creativecommons.org/ns#" xmlns:dc="http://purl.org/dc/elements/1.1/" viewBox="0 0 75 75"><metadata><rdf:RDF><cc:Work rdf:about=""><dc:format>image/svg+xml</dc:format><dc:type rdf:resource="http://purl.org/dc/dcmitype/StillImage"/><dc:title/></cc:Work></rdf:RDF></metadata><g transform="rotate(90 51.165 37.182)"><path d="m51.422 19.293c-0.25391-0.55713-0.82617-0.8623-1.3984-0.73682-0.60156 0.12988-1.0215 0.68213-1.0215 1.3428l-0.001 22.507-16.161-0.984c-0.4248-0.02002-0.8418 0.1792-1.0957 0.54736-0.28516 0.41455-0.33203 0.96045-0.12109 1.4272l16.958 37.311c0.21582 0.47412 0.66308 0.76416 1.1436 0.76416 0.08398 0 0.16895-0.0088 0.25391-0.02734 0.60156-0.12988 1.0215-0.68213 1.0215-1.3433l0.002-22.507 16.155 0.97754c0.43164 0.02539 0.84375-0.17773 1.0986-0.54736 0.28613-0.41504 0.33203-0.96191 0.12012-1.4277v0.000488z"/></g></svg>
