<?xml version="1.0" encoding="UTF-8"?>
<svg width="24px" height="24px" viewBox="0 0 24 24" version="1.1" xmlns="http://www.w3.org/2000/svg" xmlns:xlink="http://www.w3.org/1999/xlink">
    <!-- Generator: Sketch 51.1 (57501) - http://www.bohemiancoding.com/sketch -->
    <title>Mobile</title>
    <desc>Created with Sketch.</desc>
    <defs></defs>
    <g id="Mobile" stroke="none" stroke-width="1" fill="none" fill-rule="evenodd">
        <g id="relaxed" transform="translate(2.000000, 2.000000)">
            <g id="ic_directions_bike_black_24px">
                <polygon id="Shape" points="0 0 20 0 20 20 0 20"></polygon>
                <path d="M5.83333333,4.58333333 C6.75,4.58333333 7.5,3.83333333 7.5,2.91666667 C7.5,2 6.75,1.25 5.83333333,1.25 C4.91666667,1.25 4.16666667,2 4.16666667,2.91666667 C4.16666667,3.83333333 4.91666667,4.58333333 5.83333333,4.58333333 Z M4.16666667,10 C1.83333333,10 0,11.8333333 0,14.1666667 C0,16.5 1.83333333,18.3333333 4.16666667,18.3333333 C6.5,18.3333333 8.33333333,16.5 8.33333333,14.1666667 C8.33333333,11.8333333 6.5,10 4.16666667,10 Z M4.16666667,17.0833333 C2.58333333,17.0833333 1.25,15.75 1.25,14.1666667 C1.25,12.5833333 2.58333333,11.25 4.16666667,11.25 C5.75,11.25 7.08333333,12.5833333 7.08333333,14.1666667 C7.08333333,15.75 5.75,17.0833333 4.16666667,17.0833333 Z M15.8333333,10 C13.5,10 11.6666667,11.8333333 11.6666667,14.1666667 C11.6666667,16.5 13.5,18.3333333 15.8333333,18.3333333 C18.1666667,18.3333333 20,16.5 20,14.1666667 C20,11.8333333 18.1666667,10 15.8333333,10 Z M15.8333333,17.0833333 C14.25,17.0833333 12.9166667,15.75 12.9166667,14.1666667 C12.9166667,12.5833333 14.25,11.25 15.8333333,11.25 C17.4166667,11.25 18.75,12.5833333 18.75,14.1666667 C18.75,15.75 17.4166667,17.0833333 15.8333333,17.0833333 Z" id="Shape" fill="#2D4959" fill-rule="nonzero"></path>
            </g>
            <g id="Group" transform="translate(4.000000, 5.000000)" fill="#2D4959" fill-rule="nonzero">
                <path d="M12.5278998,3.2323296 L9.29210027,1.33743559 C8.97458803,1.15158116 8.57316241,1.16123889 8.26560857,1.36245446 L6.47308867,2.53400663 C5.21245773,2.11347674 3.99567482,1.12382466 3.12373199,0.475463385 C2.53008521,-0.0522902219 1.57639051,-0.192289413 1.1402261,0.320331201 C0.839002466,0.674169463 0.699815842,1.26062996 0.920754347,1.86351621 L1.19179386,1.14275992 C1.30349826,0.845651358 1.59430026,0.646184833 1.91574957,0.646184833 C2.00707391,0.646184833 2.09724029,0.662078278 2.1835468,0.69348494 C2.37708028,0.764206965 2.53101158,0.904586383 2.61716371,1.08914806 C2.70331583,1.27378578 2.71126714,1.48024846 2.6394737,1.67089374 L2.05694333,3.22054259 C2.11816074,3.27324191 2.17906936,3.32442032 2.2397464,3.37422992 L3.96657146,3.59955181 C4.17083536,3.62616763 4.35248047,3.72958908 4.47784879,3.89088093 C4.60321711,4.05217278 4.65740957,4.25179139 4.63039054,4.45308301 C4.61865656,4.54038288 4.59140593,4.62243564 4.55249852,4.69741619 C4.72974339,4.76623709 4.91632911,4.83429753 5.11434003,4.9027382 C5.56918618,5.02258543 5.97902632,4.98281378 6.31877138,4.85011493 C6.42252447,4.82456375 6.52380725,4.78251076 6.61806508,4.7209902 L8.82745013,3.27681603 L11.5421683,4.86623652 C11.6967944,4.95680633 11.8667054,5 12.0343779,5 C12.3634697,5 12.684147,4.83391731 12.864557,4.53498368 C13.1365228,4.08380758 12.9861427,3.50054098 12.5278998,3.2323296 Z" id="Shape"></path>
                <path d="M3.65625,3.75 L2.11634666,3.59493542 L1.625,3.33333333 L1.625,3.59493542 L2.4375,1.66666667 C2.55343907,1.35130147 2.42954842,0.95022545 2.11634666,0.833333333 C1.80314489,0.716669518 1.33484023,0.9346348 1.21875,1.25 L0.8125,2.08333333 L0.0374548342,3.79919222 C-0.0261831689,3.97247565 -0.00804407061,4.16645873 0.0866571379,4.32482625 C0.181358347,4.48304156 0.343174219,4.58988826 0.525169839,4.61424078 L3.37829884,4.99467288 C3.40528075,4.99824966 3.4321115,5 3.45863992,5 C3.68409381,5 4.46875,5 4.46875,4.32482625 C4.46875,3.98913756 3.98728854,3.79406285 3.65625,3.75 Z" id="Shape"></path>
            </g>
        </g>
    </g>
</svg>
