<?xml version="1.0" encoding="UTF-8" standalone="no"?>
<svg
   xmlns:dc="http://purl.org/dc/elements/1.1/"
   xmlns:cc="http://creativecommons.org/ns#"
   xmlns:rdf="http://www.w3.org/1999/02/22-rdf-syntax-ns#"
   xmlns:svg="http://www.w3.org/2000/svg"
   xmlns="http://www.w3.org/2000/svg"
   xmlns:sodipodi="http://sodipodi.sourceforge.net/DTD/sodipodi-0.dtd"
   xmlns:inkscape="http://www.inkscape.org/namespaces/inkscape"
   id="Laag_1"
   data-name="Laag 1"
   viewBox="0 0 76.889998 90.589996"
   version="1.1"
   sodipodi:docname="icon-genk.svg"
   width="76.889999"
   height="90.589996"
   inkscape:version="0.92.4 (unknown)">
  <metadata
     id="metadata165">
    <rdf:RDF>
      <cc:Work
         rdf:about="">
        <dc:format>image/svg+xml</dc:format>
        <dc:type
           rdf:resource="http://purl.org/dc/dcmitype/StillImage" />
        <dc:title>logo</dc:title>
      </cc:Work>
    </rdf:RDF>
  </metadata>
  <sodipodi:namedview
     pagecolor="#ffffff"
     bordercolor="#666666"
     borderopacity="1"
     objecttolerance="10"
     gridtolerance="10"
     guidetolerance="10"
     inkscape:pageopacity="0"
     inkscape:pageshadow="2"
     inkscape:window-width="1471"
     inkscape:window-height="750"
     id="namedview163"
     showgrid="false"
     fit-margin-top="0"
     fit-margin-left="0"
     fit-margin-right="0"
     fit-margin-bottom="0"
     inkscape:zoom="1.4766284"
     inkscape:cx="-74.148836"
     inkscape:cy="111.21685"
     inkscape:window-x="237"
     inkscape:window-y="97"
     inkscape:window-maximized="0"
     inkscape:current-layer="Laag_1" />
  <defs
     id="defs4">
    <style
       id="style2">.cls-1{fill:none;stroke:#bbbdbe;stroke-miterlimit:12;stroke-width:3px;}.cls-2{fill:#bbbdbe;}.cls-3{fill:#fff;}.cls-4{fill:#2a4859;}.cls-5{fill:#fcc200;fill-rule:evenodd;}.cls-6{fill:#97bf0d;}</style>
  </defs>
  <title
     id="title6">logo</title>
  <path
     class="cls-5"
     d="m 41.72,36.33 c -0.23,0 -0.41,0.19 -0.63,0.22 0,0.13 0.19,0.21 0.21,0.38 0.02,0.17 0,0.07 -0.24,0.08 -0.24,0.01 -0.27,-0.25 -0.49,-0.44 -0.11,0 -0.15,0.2 -0.38,0.21 -0.23,0.01 -0.11,-0.18 -0.34,-0.17 -0.23,0.01 0.06,0.19 -0.18,0.2 -0.24,0.01 -0.15,-0.18 -0.27,-0.17 -0.19,0.21 -0.26,0.5 -0.41,0.69 -0.07,-0.08 -0.06,-0.23 -0.09,-0.46 h -0.45 v 0.39 a 2.21,2.21 0 0 1 -0.66,0.13 v 0.39 a 2.2,2.2 0 0 1 -0.65,0.13 c 0,0.13 0,0.28 -0.05,0.37 -0.05,0.09 -0.14,-0.14 -0.17,-0.36 -0.25,0 -0.52,0.55 -0.66,0.9 -0.07,0 -0.13,-0.14 -0.15,-0.27 h -0.44 a 0.61,0.61 0 0 1 -0.46,0.32 c 0,0.32 -0.16,0.62 -0.15,0.85 0.01,0.23 0.21,0.22 0.23,0.39 -0.46,0.22 -0.11,0.53 -0.55,1 -0.07,-0.16 -0.1,-0.36 -0.26,-0.45 v 0.41 c 0,0.24 0.18,0 0.2,0.28 0.02,0.28 -0.17,0.28 -0.23,0.45 -0.07,0 -0.18,-0.18 -0.41,-0.14 a 1.42,1.42 0 0 0 0.5,0.38 l -0.06,0.42 c -0.06,0 -0.11,-0.05 -0.14,-0.18 l -0.36,0.14 a 0.94,0.94 0 0 1 0.59,0.25 c -0.09,0.06 -0.19,0.43 -0.62,0.5 v 0.36 h 0.39 c 0.09,0.17 0.28,0.32 0.3,0.56 a 1.13,1.13 0 0 1 -0.42,0.75 0.37,0.37 0 0 0 0.33,-0.18 h 0.33 a 5.91,5.91 0 0 1 -0.62,0.61 2.94,2.94 0 0 1 0.67,0.06 c 0,0.07 0,0.12 -0.17,0.15 0,0.22 0.19,0.21 0.21,0.45 0.02,0.24 -0.17,0.25 -0.14,0.48 a 0.69,0.69 0 0 1 0.73,0.27 1.78,1.78 0 0 0 -0.42,0.64 h 0.64 c 0,-0.13 0,-0.17 0.22,-0.29 a 1.88,1.88 0 0 1 0.56,1.05 c 0,0.24 -0.17,0.25 -0.14,0.47 0.13,0 0.14,-0.2 0.22,-0.29 0.08,-0.09 0.22,0 0.25,0.26 h 0.35 c 0,-0.13 0,-0.27 0.11,-0.28 0.11,-0.01 0.07,0.09 0.09,0.33 0,0.47 0,0.21 -0.33,0.62 h 0.36 c 0,-0.12 0,-0.17 0.21,-0.28 a 2.61,2.61 0 0 0 0.54,0.91 c 0.12,0 0.25,-0.13 0.31,-0.31 h 0.25 c 0.08,0.08 0.07,0.14 0.1,0.27 0.22,0 0.23,-0.2 0.38,-0.3 0.08,0.16 0.27,0.32 0.29,0.55 0.02,0.23 -0.17,0.25 -0.15,0.38 0.02,0.13 0.15,-0.2 0.22,-0.29 a 1.18,1.18 0 0 1 1.15,0.58 c 0.12,0 0.15,-0.11 0.21,-0.2 h 0.42 a 1.38,1.38 0 0 0 -0.42,0.62 c 0.24,-0.1 0.42,-0.41 0.67,-0.7 l 0.43,0.05 c 0,0.06 -0.18,0.14 -0.27,0.3 l 0.87,-0.06 c 0.09,0.18 0.11,0.38 0.27,0.47 a 3,3 0 0 1 0,-0.67 0.86,0.86 0 0 1 0.49,0.44 1.1,1.1 0 0 1 0.68,-0.52 c 0.24,0 0.11,0.18 0.35,0.17 0.24,-0.01 0.38,-0.46 0.79,-0.07 v -0.48 c 0,0 -0.08,-0.07 0.15,-0.08 0.23,-0.01 0.15,0 0.19,0.17 a 1.27,1.27 0 0 1 0.8,-0.26 c -0.06,-0.16 0.11,-0.44 0.22,-0.67 a 0.27,0.27 0 0 1 0.26,0.17 1.3,1.3 0 0 1 0.61,-0.24 c 0,-0.32 0.17,-0.57 0.15,-0.8 -0.02,-0.23 0,-0.33 -0.22,-0.37 a 2,2 0 0 1 0.63,-0.48 c 0,-0.12 -0.2,-0.13 -0.3,-0.28 0.49,-0.41 0.47,-0.61 0.89,-0.81 v -0.44 c -0.13,0 -0.19,0 -0.28,-0.06 v -0.25 c 0.08,-0.08 0.14,-0.07 0.27,-0.09 0.13,-0.02 -0.13,-0.26 -0.3,-0.32 V 45 c 0.08,-0.08 0.33,-0.09 0.46,-0.11 a 0.43,0.43 0 0 0 -0.2,-0.31 c 0.08,-0.17 0.16,-0.26 0.33,-0.61 -0.14,0 -0.37,0.14 -0.38,-0.09 -0.01,-0.23 0,-0.1 0.18,-0.14 -0.11,-0.14 -0.25,-0.43 -0.51,-0.49 0,-0.07 0.14,-0.12 0.27,-0.15 0.13,-0.03 -0.2,-0.15 -0.29,-0.22 -0.09,-0.07 0,-0.22 0.26,-0.26 a 3.72,3.72 0 0 0 -0.53,-0.89 1.13,1.13 0 0 1 0.42,-0.75 c -0.14,0 -0.25,0.08 -0.4,0.18 a 6.21,6.21 0 0 1 -0.59,-1.29 3.27,3.27 0 0 1 -0.07,0.68 c -0.07,0 -0.16,-0.18 -0.33,-0.23 0.17,-0.16 0.15,-0.44 0.33,-0.66 0,-0.11 -0.2,-0.2 -0.23,-0.42 -0.32,0 -0.86,-0.29 -0.88,-0.48 -0.02,-0.19 0.17,-0.2 0.15,-0.33 h -0.45 a 1,1 0 0 1 -0.1,0.66 8,8 0 0 1 -0.15,-1.11 3,3 0 0 1 -1.59,-0.76 c -0.12,0 -0.14,0.21 -0.21,0.3 h -0.34 c -0.08,-0.08 -0.06,0 -0.08,-0.23 -0.02,-0.23 0.07,-0.26 0.16,-0.41 -0.33,0 -0.41,0.19 -0.59,0.2 a 1.86,1.86 0 0 0 -0.75,-0.61 1.63,1.63 0 0 1 -0.06,0.48 c -0.07,0 -0.13,-0.14 -0.15,-0.27 -0.02,-0.13 -0.13,0.19 -0.38,0.3 -0.08,-0.08 -0.06,0 -0.07,-0.23 -0.01,-0.23 0.16,-0.26 0.25,-0.42 z"
     id="path42"
     inkscape:connector-curvature="0"
     style="fill:#fcc200;fill-rule:evenodd" />
  <polygon
     class="cls-4"
     points="343.93,87.72 343.94,87.72 343.93,87.72 "
     id="polygon44"
     style="fill:#2a4859"
     transform="translate(-286.44,-21.32)" />
  <polygon
     class="cls-4"
     points="319.8,89.4 319.8,89.41 319.8,89.4 "
     id="polygon46"
     style="fill:#2a4859"
     transform="translate(-286.44,-21.32)" />
  <path
     class="cls-4"
     d="m 53.33,63.37 v 0.28 h 0.26 a 0.77,0.77 0 0 0 -0.26,-0.28 z"
     id="path48"
     inkscape:connector-curvature="0"
     style="fill:#2a4859" />
  <path
     class="cls-4"
     d="m 25.07,62.68 0.19,-0.11 h -0.25 z"
     id="path50"
     inkscape:connector-curvature="0"
     style="fill:#2a4859" />
  <path
     class="cls-4"
     d="m 34.95,64.93 h 0.39 l -0.06,-0.07 h -0.34 z"
     id="path52"
     inkscape:connector-curvature="0"
     style="fill:#2a4859" />
  <path
     class="cls-4"
     d="m 61.8,62.25 a 4.45,4.45 0 0 0 0.38,-0.64 l 0.25,0.46 c 0,-0.42 0.31,-0.88 0.22,-1.28 0.16,-0.05 0.43,0 0.42,0.19 0.23,-0.11 0.67,-0.67 1,-0.5 L 64,60.41 a 3.05,3.05 0 0 0 0.33,-0.55 v 0 l 0.07,-0.09 0.21,0.07 0.21,0.07 -0.07,-0.08 -0.19,-0.15 0.36,-0.16 c 0,-0.36 0.15,-0.71 0.13,-1.07 l 0.46,-0.11 -0.19,-0.22 a 1.38,1.38 0 0 1 0.62,-0.5 v -0.64 l 0.23,0.17 0.43,-0.22 -0.29,-0.22 v 0 L 66.26,55.95 66.75,56 c -0.25,0.11 -0.13,0.43 0,0.59 0.15,-1.85 0.19,-0.73 1,-1.85 l -0.48,-0.07 v -0.34 l 0.46,-0.11 a 6.11,6.11 0 0 1 0,-1 l 0.14,0.18 h 0.45 l -0.29,-0.22 v -0.34 c 0.64,-0.28 0.5,-1.09 0.63,-1.65 l 0.41,0.16 c -0.05,-0.69 -0.2,-2 0.5,-2.42 l -0.31,-0.31 v -0.24 l 0.59,-1.11 c -0.44,-0.55 0,-0.59 -0.08,-1.12 l 0.46,-0.12 c -0.18,-0.38 -0.51,-1.16 0.1,-1.33 l -0.29,-0.36 -0.12,-0.15 0.36,-0.16 0.26,-0.5 -0.3,-0.21 0.26,-0.16 v -0.45 l -0.47,-0.12 0.46,-0.1 -0.08,-1.11 c -0.7,0 -0.06,-0.56 0.15,-0.73 -0.18,-0.46 -1,-1.27 -0.31,-1.67 L 69.74,38.5 V 38.16 C 69.95,38 70.3,37.98 70.37,37.68 h -0.58 l -0.08,-0.15 a 1.51,1.51 0 0 1 0.43,-0.58 l -0.31,-0.31 0.27,-0.15 -0.29,-0.22 0.26,-0.25 v -0.63 c -0.42,0 -0.91,-0.63 -0.54,-1 h -0.67 a 0.9,0.9 0 0 1 0.44,-0.46 l -0.29,-0.22 0.26,-0.16 v -0.64 h -0.39 l -0.32,-0.23 0.17,-0.25 a 1.62,1.62 0 0 0 -0.17,-0.75 l -0.07,0.48 -0.45,-0.33 0.27,-0.3 -0.48,-0.07 a 1,1 0 0 1 0.45,-0.47 l -0.51,-0.46 a 10.1,10.1 0 0 0 0.6,-0.82 l -0.23,0.28 H 67.8 c -0.07,0.18 -0.15,-0.34 0.08,-0.47 -0.27,0 -0.51,-0.17 -0.78,-0.14 l -0.08,-0.14 c 0.44,-0.73 -0.22,-0.45 -0.25,-0.89 l 0.18,-0.2 -0.24,-0.54 -0.22,0.19 A 0.84,0.84 0 0 1 66,26.99 l -0.37,0.21 -0.1,-0.33 0.46,-0.1 -0.23,-0.44 c -0.1,0 -0.64,0 -0.49,0.22 a 4.49,4.49 0 0 0 -0.66,-0.46 v 0 c -0.18,0 -0.31,-0.25 -0.38,-0.36 h -0.15 l 0.27,-0.3 c -0.21,0.05 -0.44,0.16 -0.67,0.21 v 0.04 h -0.12 a 0.67,0.67 0 0 1 -0.34,0 0.85,0.85 0 0 0 0.13,-0.17 0.32,0.32 0 0 1 0,-0.16 h 0.15 a 0.91,0.91 0 0 1 0.21,-0.27 l -0.32,0.18 c -0.5,-0.46 -1.46,-0.51 -1.3,-1.41 -0.42,0 -0.83,-0.12 -1.26,-0.11 -0.29,-0.5 -1,-0.65 -1.15,-1.26 a 0.77,0.77 0 0 1 -0.82,0.18 l 0.16,-0.31 h -0.29 l 0.07,-0.47 -0.23,0.19 a 5.27,5.27 0 0 0 -1.21,-0.1 1.79,1.79 0 0 0 -0.8,-0.69 l 0.14,-0.41 -0.39,0.5 h -0.34 l -0.11,-0.46 h -0.47 v -0.23 h -0.36 v 0.43 c 0.35,0.35 0.92,0.35 0.74,1 h 0.36 l -0.2,-0.21 0.39,-0.45 a 1.53,1.53 0 0 1 -0.13,1.14 1.44,1.44 0 0 0 0.56,-0.5 3.16,3.16 0 0 1 0.45,1.29 h 0.58 a 2.12,2.12 0 0 0 0.49,0.52 l -0.17,0.15 v 0.45 l 0.22,-0.29 c 0.38,0 0.76,0.51 1.13,0.66 l -0.26,0.39 0.41,-0.19 0.07,0.18 -0.11,0.43 0.29,-0.29 a 6.89,6.89 0 0 1 0.17,1.39 2.9,2.9 0 0 1 1.13,-0.08 l -0.18,0.15 c 0.15,0.27 0.47,0.36 0.7,0.54 a 1,1 0 0 0 -0.63,0.36 1.34,1.34 0 0 1 0.87,0.22 l -0.15,0.4 c 0.5,-0.06 0.68,0.51 1.09,0.68 l -0.37,0.17 a 1.28,1.28 0 0 1 0.26,0.8 l 0.29,-0.2 -0.07,0.64 0.48,0.06 a 2.34,2.34 0 0 0 -0.43,0.61 l 0.48,0.06 -0.27,0.15 0.29,0.22 -0.26,0.4 c 0.31,0 0.67,-0.43 0.94,-0.09 l -0.46,0.1 c 0,0.53 -0.48,0.72 0.22,1.11 l -0.18,-0.33 0.06,-0.34 h 0.59 l -0.17,0.23 0.2,0.23 -0.16,0.25 v 0.64 l 0.29,-0.29 c 0.19,0.49 -0.12,0.54 -0.25,0.95 l 0.22,-0.28 0.44,0.32 -0.45,0.38 c 0.1,0.46 0.72,0.62 0.74,1.11 0,0.13 -0.16,0.38 -0.13,0.61 a 3.58,3.58 0 0 1 0.87,0.22 l -0.18,0.14 0.2,0.31 a 2.43,2.43 0 0 0 -0.13,0.64 h -0.49 a 1.86,1.86 0 0 1 0.25,0.61 h 0.47 l -0.43,0.62 h 0.4 l 0.32,0.79 -0.35,0.3 0.2,0.22 a 1.64,1.64 0 0 1 -0.4,1.09 h 0.6 c 0.16,0.39 -0.18,2.13 -0.11,2.71 h -0.66 a 0.66,0.66 0 0 1 0.18,0.24 v 0 a 0.46,0.46 0 0 1 -0.14,0.56 l 0.39,0.08 -0.37,0.17 c 0.11,0.23 0.4,0.39 0.42,0.66 a 0.55,0.55 0 0 1 -0.61,0.48 v 0.45 l 0.32,-0.3 h 0.24 c 0.33,0.43 -0.4,1.18 -0.56,1.57 h -0.24 l -0.1,-0.2 0.18,-0.17 -0.44,0.22 0.3,0.22 v 0.34 l -0.46,0.28 c 0.1,0 0.65,0 0.52,-0.21 h 0.33 c -0.23,0.39 -0.79,0.44 -1,0.84 h 0.3 l 0.08,0.15 c -0.14,0.18 -0.63,0.92 -0.12,0.94 l -0.37,0.15 0.3,0.38 -0.46,0.1 a 1.39,1.39 0 0 0 0.22,0.57 c -0.16,0.2 -0.46,0.39 -0.33,0.69 l -0.65,0.12 -0.16,0.54 a 0.75,0.75 0 0 1 0.68,0.21 l -0.64,0.12 0.2,0.28 -0.65,0.13 v 0.66 l -0.4,-0.16 v 0.45 l 0.28,0.06 -0.27,0.16 a 3.61,3.61 0 0 1 0,0.85 l -0.14,-0.17 h -0.6 c 0.15,0.36 0,0.76 0.08,1.13 h -0.53 v 0.07 0.23 c -0.29,0.33 -1,-0.14 -1,0.6 0.45,-0.23 0.43,-0.44 1,-0.28 0,0.44 -0.43,0.69 -0.75,0.93 l -0.12,-0.47 c -0.36,0.45 -0.67,0.93 -1,1.4 l -0.4,-0.16 c 0.27,0.55 0,0.82 -0.44,1 a 4.56,4.56 0 0 1 -0.82,0.18 v 0.66 L 57.8,60.6 h -0.45 v 0.29 a 1.12,1.12 0 0 0 -0.65,0.37 h 0.67 a 4.75,4.75 0 0 1 -0.4,0.54 L 56.7,61.46 h -0.36 v 0.66 l -0.25,-0.26 h -0.34 a 3.41,3.41 0 0 1 -0.82,1.38 1.59,1.59 0 0 0 -0.26,-0.65 3.51,3.51 0 0 1 -0.19,0.76 l 6.45,-0.45 c 0.4,-0.19 0.83,-0.35 1.21,-0.58 z m 6.35,-18.06 a 0.47,0.47 0 0 1 -0.46,0.16 0.47,0.47 0 0 1 0.46,-0.16 z m -1.1,-3.44 a 0.47,0.47 0 0 1 -0.46,0.16 0.47,0.47 0 0 1 0.46,-0.17 z m -2.91,15.11 a 0.47,0.47 0 0 1 0.16,0.46 0.47,0.47 0 0 1 -0.16,-0.47 z"
     id="path54"
     inkscape:connector-curvature="0"
     style="fill:#2a4859" />
  <path
     class="cls-4"
     d="m 28.56,62.06 -0.1,0.28 h 0.71 a 1,1 0 0 1 -0.61,-0.28 z"
     id="path56"
     inkscape:connector-curvature="0"
     style="fill:#2a4859" />
  <path
     class="cls-4"
     d="m 23.44,61.26 h 0.35 c -0.51,-0.93 0.45,-0.41 0.48,-0.11 l -0.18,0.2 c 0,0.57 0.62,0.83 0.91,1.26 h 0.25 l 0.18,-0.11 v 0.09 0 a 1.13,1.13 0 0 0 0.31,0.55 l 0.36,-0.22 a 3.65,3.65 0 0 1 0.15,0.84 l 0.27,-0.21 -0.06,0.56 c 0.42,-0.45 1,0.05 1.35,0.34 a 1.54,1.54 0 0 0 -0.65,0.26 9.86,9.86 0 0 1 1.06,0 l -0.36,0.39 a 3.74,3.74 0 0 1 1,0.24 v 0 l 0.56,0.21 A 1.4,1.4 0 0 0 29,66.18 c 0.94,-0.59 0.72,-0.16 1.61,0 l -0.27,0.31 c 0.13,0 0.62,0 0.58,-0.22 l 0.11,0.46 0.21,-0.29 a 1,1 0 0 1 0.48,0.62 0.7,0.7 0 0 1 0.67,0.2 c -0.23,0.14 -0.52,0.18 -0.63,0.45 0.32,-0.33 1.36,0 1.57,0.38 v 0 l 0.37,-0.3 a 2.21,2.21 0 0 0 0.08,0.27 l 6,-0.42 a 0.91,0.91 0 0 0 0.13,-0.37 h 0.45 v 0.36 0.05 H 39.71 V 67.6 l -6,0.42 a 0.92,0.92 0 0 0 0.25,0.37 l 0.43,-0.18 -0.49,-0.14 a 1.05,1.05 0 0 1 1.16,0.29 l -0.25,0.43 a 1.07,1.07 0 0 0 0.47,-0.68 0.86,0.86 0 0 1 0.48,0.62 c 0.39,0 1,-0.2 1.07,0.4 l 0.33,-0.3 h 0.23 c 0.1,0.27 0.38,0.42 0.56,0.63 a 1.38,1.38 0 0 1 0.12,-0.68 c 0.08,0.33 0.39,0.56 0.42,0.91 h 0.35 l -0.21,-0.38 a 1.59,1.59 0 0 1 0.68,0 l -0.26,0.4 a 0.63,0.63 0 0 1 0.52,0.18 4.37,4.37 0 0 0 0.53,-0.51 2.63,2.63 0 0 1 -0.08,0.65 l 0.24,-0.19 0.15,0.17 c 0.25,0 0.44,-0.22 0.58,-0.41 a 2.85,2.85 0 0 1 -0.07,0.85 2.67,2.67 0 0 0 0.66,-0.89 l 0.16,0.36 0.39,-0.2 0.1,0.45 0.22,-0.29 0.16,0.26 h 0.45 l 0.24,-0.48 0.24,0.17 0.28,-0.2 a 1.09,1.09 0 0 0 0.39,0.64 V 69.88 C 44.47,69.79 44.83,69.8 45,69.56 a 2.6,2.6 0 0 1 -0.08,0.65 l 0.24,-0.19 h 0.34 l 0.12,0.37 c 0.46,-0.34 1.16,-0.28 1.51,-0.77 l 0.16,0.26 h 0.45 l 0.06,-0.28 0.16,0.26 h 0.45 l -0.3,-0.38 c 0.32,-0.3 0.94,0.1 1.19,-0.34 l 0.16,0.36 c 0.23,0 0.4,-0.2 0.62,-0.23 l 0.05,-0.47 0.15,0.27 h 0.44 c 0.2,-0.35 0.48,-0.42 0.71,0 h 0.42 c 0.53,-0.4 1.78,-0.6 1.73,-1.46 l 0.46,0.36 c 0.08,-0.05 1.17,-0.83 0.82,-0.25 0.35,-0.13 0.53,-0.56 0.65,-0.9 0.44,0.34 0.62,0.13 0.84,-0.07 v 0 c 0.21,-0.19 0.47,-0.38 1,-0.07 v 0 l -0.19,-0.32 c 0.18,-0.28 0.56,-0.52 0.83,-0.21 V 65.8 L 57.7,65.59 a 10.24,10.24 0 0 1 1.6,-0.2 l -0.29,-0.22 v -0.53 c 0.25,-0.19 0.65,-0.24 0.71,-0.6 l 0.39,0.26 -0.18,-0.31 a 3.18,3.18 0 0 1 0.9,-0.59 l -6.45,0.45 a 1.93,1.93 0 0 0 0,0.2 0.89,0.89 0 0 1 -0.3,-0.18 v 0 c -0.1,-0.08 -0.19,-0.18 -0.3,-0.25 a 1.24,1.24 0 0 1 0,0.28 0.84,0.84 0 0 1 -0.13,0.4 1.52,1.52 0 0 0 -0.09,-0.62 H 53.3 v 0.21 L 53.08,63.7 52.99,63.62 v 0.06 0.31 l -0.67,-0.06 0.19,0.22 -0.23,0.44 h -0.33 l -0.08,-0.14 v -0.43 a 1.1,1.1 0 0 1 -0.42,0.79 l -0.26,-0.45 v 0.41 l -0.47,0.11 -0.12,0.47 -0.1,-0.46 h -0.44 a 2.52,2.52 0 0 0 -0.17,0.6 l -0.19,0.08 c -0.18,-0.14 -0.58,-0.35 -0.6,0 l -0.11,-0.46 -0.22,0.29 -0.27,-0.27 -0.39,0.5 -0.42,-0.05 0.18,-0.14 -0.14,-0.36 a 1,1 0 0 1 -0.28,0.6 C 46.91,65.16 46.52,66 46.37,66.42 A 0.61,0.61 0 0 1 46,65.8 l -0.48,-0.06 0.14,-0.41 -0.38,0.5 -0.41,-0.15 0.21,0.28 -0.33,0.1 -0.1,-0.37 h -0.43 c -0.19,0.21 -0.46,0.4 -0.53,0.7 h -0.24 c -0.16,-0.23 -0.3,-0.51 -0.56,-0.63 l 0.19,0.29 a 3.89,3.89 0 0 1 -1.14,0.44 L 42,66.01 a 0.79,0.79 0 0 1 -0.83,0.18 l 0.35,-0.16 v -0.46 c -0.77,1.21 -1.58,-0.08 -2.5,0 -0.2,0.2 -0.58,0.38 -0.76,0.05 h -1.1 c 0.18,-0.17 0.24,-0.44 0.43,-0.59 -0.27,0 -0.46,0.25 -0.52,0.48 l -0.15,-0.27 -0.36,0.44 c 0.12,-0.74 -0.87,-0.44 -1.24,-0.79 h -0.39 c 0,0.33 -0.25,0.2 -0.34,0 v 0 c -0.06,-0.13 0,-0.28 0.28,-0.31 v -0.46 a 6.62,6.62 0 0 0 -0.47,0.7 l -0.15,-0.17 -0.23,0.19 H 33.6 l 0.43,-0.6 -0.31,-0.18 -0.22,0.19 -0.47,-0.34 -0.21,0.2 a 0.89,0.89 0 0 1 -0.47,-0.43 l -0.21,0.29 A 3.78,3.78 0 0 1 31.5,63.66 l 0.18,-0.15 -0.17,-0.35 -0.06,0.39 c -0.51,-0.28 -0.93,-0.24 -0.88,-1 l -0.51,-0.26 -0.21,0.3 -0.15,-0.26 a 1.85,1.85 0 0 0 -0.51,-0.09 h -0.71 v 0.11 a 0.47,0.47 0 0 1 0,-0.1 l -2.49,0.17 2.49,-0.17 a 0.91,0.91 0 0 1 0.12,-0.74 c -0.44,0.22 -0.73,-0.4 -1.15,-0.4 a 0.92,0.92 0 0 1 -0.1,0.66 l -0.11,-0.65 h -0.4 c -0.21,-0.4 0.12,-0.54 0.3,-0.84 a 4.05,4.05 0 0 1 -0.59,0.2 v 0.47 l -0.33,-0.06 0.16,-0.39 c -0.1,0 -1,-0.36 -0.7,0 -0.32,-0.31 -0.75,-0.63 -0.22,-1 a 1.17,1.17 0 0 0 -0.55,0.21 c -0.19,0 -0.37,-0.16 -0.6,-0.13 l -0.06,-0.11 -1.91,0.13 v 0.27 a 2.64,2.64 0 0 1 1.1,1.39 z M 44,68.07 a 0.48,0.48 0 0 1 0.46,-0.16 0.48,0.48 0 0 1 -0.45,0.16 z m 1.77,-0.3 h -0.45 v -0.26 h 0.45 z m 1.93,0 a 0.48,0.48 0 0 1 0.46,-0.16 0.48,0.48 0 0 1 -0.45,0.2 z m 0.47,-0.21 c 0,-0.22 -0.23,-0.3 -0.22,-0.43 h 0.35 c 0.13,0.2 0.32,0.2 0.33,0.43 z m -10,-1.25 a 0.47,0.47 0 0 1 -0.46,0.16 0.48,0.48 0 0 1 0.45,-0.12 z m -4.89,-0.63 v -0.35 a 1.56,1.56 0 0 1 0.47,0.32 z m -7.84,-4.46 c 0.12,0 0.26,0 0,0.46 z"
     id="path58"
     inkscape:connector-curvature="0"
     style="fill:#2a4859" />
  <path
     class="cls-4"
     d="m 20.86,57.04 c 0.06,0 0.08,0.15 0.08,0.27 v 0 0 c 0,0.08 0,0.15 0,0.18 l -0.07,-0.07 -0.17,0.27 a 2,2 0 0 1 0.58,0.2 v -0.6 h 0.35 v 0.2 h 0.23 a 2,2 0 0 1 -0.28,-0.74 h -0.36 c 0,0.16 -0.11,0.26 -0.36,0.29 z"
     id="path60"
     inkscape:connector-curvature="0"
     style="fill:#2a4859" />
  <path
     class="cls-4"
     d="m 22.1,57.47 h -0.25 l 0.13,0.19 a 2.1,2.1 0 0 0 0.12,-0.19 z"
     id="path62"
     inkscape:connector-curvature="0"
     style="fill:#2a4859" />
  <path
     class="cls-4"
     d="m 21.31,58.16 v -0.12 l -0.09,0.07 c 0,0.24 0.26,0.57 0.15,0.81 l 0.14,-0.19 h 0.33 l -0.07,0.47 0.22,-0.19 a 0.78,0.78 0 0 0 0.46,0.42 l -0.27,0.24 v 0.07 l 1.91,-0.13 c -0.23,-0.45 0,-0.53 0,-1 h -0.45 v 0.08 h 0.1 v 0.26 h -0.25 l -0.06,0.12 -0.39,-0.36 h -0.16 v -0.08 a 6,6 0 0 1 -0.93,-0.94 3.86,3.86 0 0 0 -0.33,0.46 z"
     id="path64"
     inkscape:connector-curvature="0"
     style="fill:#2a4859" />
  <path
     class="cls-4"
     d="m 20.61,57.18 0.27,0.28 0.07,-0.11 v 0 l -0.28,-0.21 h 0.06 v 0 l 0.4,-0.27 h 0.07 c 0,-0.17 -0.2,-0.36 -0.49,-0.46 l 0.19,0.29 -0.65,0.13 0.3,0.32 -0.27,0.3 z"
     id="path66"
     inkscape:connector-curvature="0"
     style="fill:#2a4859" />
  <path
     class="cls-4"
     d="m 21.63,57.96 a 0.47,0.47 0 0 0 -0.17,-0.46 0.47,0.47 0 0 0 0.17,0.46 z"
     id="path68"
     inkscape:connector-curvature="0"
     style="fill:#2a4859" />
  <path
     class="cls-4"
     d="m 21.29,57.93 v 0.11 l 0.09,-0.07 z"
     id="path70"
     inkscape:connector-curvature="0"
     style="fill:#2a4859" />
  <path
     class="cls-4"
     d="m 20.74,57.05 h 0.12 a 0.11,0.11 0 0 0 -0.12,0 z"
     id="path72"
     inkscape:connector-curvature="0"
     style="fill:#2a4859" />
  <path
     class="cls-4"
     d="m 23.38,58.97 h 0.09 l 0.09,-0.29 h -0.2 a 0.83,0.83 0 0 1 -0.11,-0.37 c -0.19,0 -0.29,0.16 -0.38,0.29 l 0.11,0.1 a 0.48,0.48 0 0 1 0.4,0.27 z"
     id="path74"
     inkscape:connector-curvature="0"
     style="fill:#2a4859" />
  <path
     class="cls-4"
     d="m 64.67,26.07 0.39,-0.31 a 6.72,6.72 0 0 1 -0.79,0 c 0.12,0.04 0.35,0.13 0.4,0.31 z"
     id="path76"
     inkscape:connector-curvature="0"
     style="fill:#2a4859" />
  <path
     class="cls-4"
     d="m 63.56,25.68 h 0.1 v -0.37 h -0.2 l -0.1,0.17 a 0.65,0.65 0 0 0 0.2,0.2 z"
     id="path78"
     inkscape:connector-curvature="0"
     style="fill:#2a4859" />
  <path
     class="cls-4"
     d="m 55.76,22.56 v -0.45 c -0.13,0 -0.24,-0.19 -0.37,-0.16 -0.13,0.03 0.11,0.16 0.2,0.23 0.09,0.07 -0.18,0.19 -0.15,0.41 z"
     id="path80"
     inkscape:connector-curvature="0"
     style="fill:#2a4859" />
  <path
     class="cls-4"
     d="m 64.68,26.12 c 0,0 0,0 0,0 z"
     id="path82"
     inkscape:connector-curvature="0"
     style="fill:#2a4859" />
  <path
     class="cls-4"
     d="M 64.24,25.74 Z"
     id="path84"
     inkscape:connector-curvature="0"
     style="fill:#2a4859" />
  <path
     class="cls-4"
     d="m 26.77,36.42 0.29,0.22 c -0.22,0.19 -0.44,0.53 -0.26,0.81 v -0.3 c 0.13,0 0.38,0 0.48,0.07 L 27.1,37 a 1.75,1.75 0 0 0 0.3,-1 c -0.08,0 0.1,-0.08 0.14,-0.08 a 3.57,3.57 0 0 0 0.81,0.13 l -0.29,-0.23 v -0.34 l 0.46,-0.11 a 3.6,3.6 0 0 1 0,-0.85 l 0.15,0.18 c 0.3,-0.14 0.62,-0.24 0.9,-0.4 l -0.49,-0.08 0.05,-0.42 a 0.48,0.48 0 0 0 0.4,0.16 v -0.37 l 0.32,0.35 a 4.26,4.26 0 0 1 0,-0.86 0.48,0.48 0 0 0 0.4,0.16 v -0.35 h -0.28 c 0.08,-0.26 0.46,-0.18 0.24,-0.56 a 4.55,4.55 0 0 1 1,-0.15 l -0.19,-0.22 c 0.34,-0.86 0.82,-0.48 1.29,-0.52 l -0.2,-0.23 v -0.34 c 0.27,-0.11 0.71,-0.21 0.92,0.06 0.13,-0.26 0.57,-0.25 0.38,-0.63 0.49,-0.27 1.27,-0.27 1.54,-0.84 h 0.25 l 0.09,0.27 0.33,-0.3 0.31,0.27 v -0.4 c 1.13,-0.93 1.34,0.47 2.21,-0.89 l 0.42,0.05 a 0.44,0.44 0 0 0 -0.14,0.41 1,1 0 0 1 0.69,-0.52 c 0.12,0 0.2,0.06 0.14,0.18 a 2.05,2.05 0 0 0 0.56,-0.42 c 0,0 0,0 0,0.08 v 0.11 c 0,0.18 -0.17,0.29 -0.14,0.47 l 0.22,-0.29 0.16,0.27 c 0.23,-0.11 0.4,-0.5 0.66,-0.52 0.26,-0.02 0.59,0.42 0.74,-0.06 0.18,0 0,0.54 -0.08,0.66 0.35,0 1.17,-0.38 1.35,-0.09 l 0.22,-0.2 0.26,0.17 c 0.3,-0.2 1,-0.88 1.29,-0.33 l -0.46,0.1 v 0.35 a 0.55,0.55 0 0 1 0.5,0.26 l 0.2,-0.29 c 0.19,0.18 1,0.51 1.05,0.73 -0.09,0 0,0.43 0,0.48 v -0.27 c 0.37,-0.24 0.74,0 1,0.23 h 0.34 l 0.05,-0.38 0.43,0.24 -0.17,0.14 0.2,0.32 -0.16,0.32 c 0.12,0 0.85,0 0.69,-0.23 l 0.87,0.94 a 0.35,0.35 0 0 1 -0.15,0.33 h 0.35 a 1,1 0 0 1 0.1,-0.66 l 0.11,0.64 0.44,0.17 c -0.42,-0.68 0.26,-0.38 0.5,-0.15 v 0.25 a 0.66,0.66 0 0 0 -0.45,0.36 c 0.2,0 0.39,0 0.5,0.17 l 0.22,-0.2 0.43,0.05 -0.27,0.3 c 0.85,-0.06 0.44,0.47 0.33,0.48 v 0.45 l 0.21,-0.29 a 1.79,1.79 0 0 1 0.63,0.31 l -0.17,0.15 v 0.45 h 0.34 a 0.49,0.49 0 0 1 0.67,-0.27 c -0.15,0.24 -0.42,0.31 -0.62,0.49 v 0.44 h 0.67 L 52.7,35.1 c 0.68,0 0.36,0.47 0.22,0.49 0.13,0.21 0.4,0.53 0.7,0.5 0,0.12 -0.06,0.19 -0.17,0.12 l 0.2,0.23 v 0.34 l -0.46,0.28 c 0.65,0 0.48,-0.44 1.15,0.08 l -0.46,0.09 v 0.45 l 0.38,-0.21 0.09,0.32 -0.46,0.11 a 1.91,1.91 0 0 0 0.67,0.59 l -0.18,-0.24 v -0.42 c 0.14,0.22 0.64,0.42 0.66,0.67 0,0.07 -0.42,0.63 0,0.55 a 3.38,3.38 0 0 0 -0.61,0.75 l 0.24,-0.19 0.43,0.24 0.12,1.66 c -0.59,0.09 0.44,0.84 -0.13,1 a 1.24,1.24 0 0 1 0.25,0.79 c 0.2,-0.19 0.41,0 0.48,0.21 l -0.45,0.1 v 0.64 a 1.18,1.18 0 0 1 0.47,0.1 4.65,4.65 0 0 1 -0.93,0.34 c 0.6,0.94 0.43,1.1 0.54,2.14 a 0.47,0.47 0 0 0 -0.39,-0.16 l 0.29,0.21 a 2.1,2.1 0 0 1 -0.43,0.61 l 0.48,0.06 c -0.12,0.18 -0.37,0.5 -0.63,0.47 0,0.11 0,0.68 0.22,0.52 l -0.24,0.34 -0.39,-0.36 c -0.08,0.32 -0.4,0.56 -0.44,0.87 a 0.51,0.51 0 0 0 0.39,-0.29 c 0.06,0 0.07,0.22 0.07,0.23 0,0.23 -0.48,0.68 -0.6,0.92 l 0.24,-0.18 h 0.42 a 2.91,2.91 0 0 0 -0.23,0.62 l -0.4,-0.26 c 0.08,0.31 1,0.81 0.31,1.12 l -0.26,-0.46 -0.19,0.31 0.2,0.22 -0.05,0.43 -0.29,-0.27 0.19,0.4 -0.45,0.1 0.29,0.22 v 0.33 a 2,2 0 0 0 -1,1.46 1,1 0 0 1 0.39,-0.29 c 0.3,0.42 -0.16,0.63 -0.23,1 l -0.15,-0.27 -0.22,0.29 -0.41,-0.26 v 0.45 l 0.48,0.25 c 0,0.37 -0.6,0.4 -0.42,0.85 a 0.68,0.68 0 0 1 -0.33,0.08 0.94,0.94 0 0 0 -0.52,-0.24 l 0.2,0.32 c -0.24,0.43 -0.29,1 -0.71,1.33 l -0.1,-0.45 h -0.46 c 0.74,0.7 0.15,0.82 -0.17,1.33 A 1,1 0 0 0 49.5,58.43 l -0.18,0.45 0.38,-0.2 0.1,0.33 -0.46,0.1 a 0.91,0.91 0 0 1 -0.1,0.66 1.06,1.06 0 0 0 -0.36,-0.64 l -0.07,0.48 -0.31,-0.16 0.19,0.21 c -0.2,0.2 -0.16,0.56 -0.42,0.8 l 0.34,-0.18 0.16,0.17 0.64,-0.18 -0.67,-0.06 0.23,-0.44 a 0.31,0.31 0 0 1 0.25,0.26 h 0.34 c 0.17,-0.41 0.78,-0.56 1,-1 l 0.3,0.27 -0.19,-0.39 a 1.3,1.3 0 0 1 1,0 l -0.18,-0.24 0.17,-0.15 -0.2,-0.32 c 0.08,-0.33 0.52,-0.43 0.81,-0.39 a 0.81,0.81 0 0 1 0.2,-0.67 1.57,1.57 0 0 0 0.25,0.65 l 0.06,-0.68 0.39,0.16 a 3.25,3.25 0 0 1 0.35,-0.66 1.14,1.14 0 0 1 -0.67,-0.12 c 0.42,-0.21 1,-0.27 1.16,-0.81 l 0.3,0.17 a 0.58,0.58 0 0 1 0.27,-0.41 c -0.2,-0.22 -0.45,-0.6 -0.28,-0.91 l 0.47,0.43 h 0.53 a 1.55,1.55 0 0 1 -0.07,-0.85 l 0.3,0.17 a 1.13,1.13 0 0 1 0.44,-0.74 0.69,0.69 0 0 1 0,-1 l 0.15,0.18 0.45,-0.17 -0.49,-0.07 a 5.15,5.15 0 0 1 1.69,-1.8 l -0.21,-0.21 0.17,-0.15 -0.2,-0.32 0.03,-0.32 0.14,0.18 h 0.45 a 0.66,0.66 0 0 0 0.16,-0.46 l -0.28,0.29 a 4.18,4.18 0 0 1 -0.39,-0.58 l 0.46,-0.1 A 1,1 0 0 0 57.88,48.5 c 0.06,-0.2 0.38,-0.85 0.66,-0.84 0.1,0 0.22,0 0.17,0.17 l 0.34,-0.36 -0.23,0.18 c -0.58,-0.21 -0.56,-0.51 -0.43,-1.12 a 0.31,0.31 0 0 1 0.25,0.26 h 0.35 v -0.45 h -0.37 a 1,1 0 0 1 0.34,-0.47 l -0.2,-0.22 c 0.39,0.2 0.11,-1.22 0.09,-1.44 -0.02,-0.22 -0.6,-0.33 0.36,-1.54 l -0.39,0.19 c -0.14,-0.33 -0.21,-0.68 0.15,-0.89 l -0.3,-0.3 a 2.7,2.7 0 0 0 0.42,-0.81 l -0.53,-0.18 v -0.52 l 0.46,-0.26 -0.67,-0.05 0.21,-0.17 -0.2,-0.31 a 0.81,0.81 0 0 1 0.44,-0.38 0.86,0.86 0 0 1 -0.35,-0.88 l -0.38,-0.05 a 1.13,1.13 0 0 1 0.35,-0.37 l -0.23,-0.43 -0.22,0.2 h -0.42 l 0.44,-0.6 -0.48,-0.05 c 0.2,-0.19 0.16,-0.56 0.42,-0.8 h -0.67 l 0.16,-0.25 -0.2,-0.23 0.35,-0.4 -0.39,-0.07 0.17,-0.15 c 0,-0.42 -0.47,-0.58 -0.07,-1.09 L 57.04,34 56.61,33.95 56.88,33.64 c -0.5,0 -0.77,-0.19 -0.33,-0.63 -0.24,0 -0.44,-0.19 -0.66,-0.26 a 0.48,0.48 0 0 0 0.29,0.39 1.2,1.2 0 0 0 -0.6,0.29 c 0,0 0,0 0,-0.08 v -0.11 c 0,-0.1 0,-0.23 0.16,-0.21 v -0.64 l -0.47,-0.05 a 0.32,0.32 0 0 1 0.26,-0.25 v -0.34 c -0.08,-0.05 -0.32,-0.2 -0.3,-0.34 a 1.09,1.09 0 0 0 0.24,-0.52 l -0.32,0.19 a 1.32,1.32 0 0 0 -0.63,-0.13 v -0.47 h -0.66 a 0.5,0.5 0 0 0 0.25,-0.42 l -0.31,0.3 -0.35,-0.34 c 0.33,0.17 0.15,-0.65 0.14,-0.78 l -0.22,0.2 c -0.39,-0.19 -0.42,-0.7 -0.87,-0.87 l 0.17,-0.14 V 27.98 C 52.42,28.27 51.98,28.35 52,27.83 h -0.4 l -0.11,-0.47 -0.27,0.21 v -0.58 c -0.22,0.2 -0.82,0.66 -1.1,0.31 l 0.46,-0.1 a 1.92,1.92 0 0 1 0.15,-0.64 h -0.36 c 0.2,0.19 0,0.39 -0.21,0.47 l -0.11,-0.46 c -0.11,0 -0.54,0 -0.4,0.21 -0.12,-0.14 -0.36,-0.42 -0.3,-0.63 l -0.22,0.29 h -0.24 c 0,0.08 -0.08,-0.1 -0.08,-0.14 a 0.35,0.35 0 0 1 0.15,-0.33 1.14,1.14 0 0 1 -0.66,-0.09 0.57,0.57 0 0 0 0.45,-0.36 H 48.3 c 0,0.44 -0.66,0.33 -0.69,-0.07 0,-0.12 0.07,-0.2 0.18,-0.14 l -0.38,-0.42 v 0.67 c -0.41,-0.08 -0.54,-0.65 -0.49,-1 a 0.57,0.57 0 0 1 -0.82,0 l -0.06,0.67 c -0.25,-0.07 -0.73,-0.53 -0.27,-0.64 -0.42,-0.06 -1,0.28 -1.08,-0.43 l 0.16,-0.18 a 1.28,1.28 0 0 1 -0.79,0.26 c 0.46,0.85 -0.25,0.45 -0.48,0.15 a 1.53,1.53 0 0 0 0.43,-0.62 h -0.45 a 0.79,0.79 0 0 1 -0.24,0.48 L 42.9,24.2 43.17,24.06 V 23.61 H 42.91 V 24 c -0.57,0.41 -0.66,-0.08 -0.9,-0.37 l 0.16,-0.17 c -0.29,0.1 -0.28,0.48 -0.54,0.7 a 1.17,1.17 0 0 0 -0.34,-0.64 c -0.53,0.48 -0.66,0 -1,0.07 -0.34,0.07 -0.57,0.89 -1.25,0.09 a 0.41,0.41 0 0 1 -0.23,0.4 l -0.12,-0.55 h -0.36 c 0.12,0.51 -0.27,0.52 -0.49,0.88 A 4.15,4.15 0 0 1 37.21,24.1 l 0.18,-0.15 -0.17,-0.35 a 5.32,5.32 0 0 1 -0.24,0.88 h -0.52 a 1.81,1.81 0 0 0 -0.27,-0.66 c -0.08,0.25 -0.16,0.57 -0.41,0.7 l -0.11,-0.46 c -0.38,0.16 -1.13,0 -1.15,0.55 a 2.66,2.66 0 0 1 -0.36,-0.45 c -0.83,-0.07 -0.77,0.73 -1.17,1.22 l 0.07,-0.66 a 1.85,1.85 0 0 1 -0.8,0.44 l 0.2,0.31 -0.06,0.34 -0.14,-0.18 h -0.45 l -0.05,0.47 -0.3,-0.27 0.18,0.32 c -0.15,0.23 -0.55,0.55 -0.79,0.24 l 0.37,0.46 a 2,2 0 0 1 -0.58,0.37 7.68,7.68 0 0 1 -0.47,-0.63 c 0,0.56 0.64,1.79 -0.72,2.06 l 0.2,0.23 c 0.05,0.81 -1.08,0.2 -1.07,0.94 a 0.51,0.51 0 0 0 0.39,-0.3 c 0.06,0 0.07,0.22 0.07,0.23 a 2,2 0 0 1 -1.48,1.93 c 0,0.11 0,0.49 0.13,0.56 h -0.76 c 0.26,0.29 0.5,0.6 0.72,0.92 l -0.45,0.1 c 0,0.29 0.24,0.5 0.32,0.76 l -0.46,0.11 c 0,0.38 -0.36,1 0.07,1.26 l -0.46,0.1 a 1.83,1.83 0 0 1 -0.16,0.63 L 27,36.19 a 0.31,0.31 0 0 1 -0.23,0.23 z"
     id="path86"
     inkscape:connector-curvature="0"
     style="fill:#2a4859" />
  <path
     class="cls-4"
     d="m 58.68,78.25 a 1.09,1.09 0 0 0 0.4,-0.33 c -0.24,-0.02 -0.35,0.2 -0.4,0.33 z"
     id="path88"
     inkscape:connector-curvature="0"
     style="fill:#2a4859" />
  <path
     class="cls-4"
     d="m 53.74,75.09 a 0.47,0.47 0 0 0 0.46,-0.16 0.47,0.47 0 0 0 -0.46,0.16 z"
     id="path90"
     inkscape:connector-curvature="0"
     style="fill:#2a4859" />
  <path
     class="cls-4"
     d="m 50.36,75.79 a 4.22,4.22 0 0 0 0.38,0.2 c -0.02,-0.1 -0.18,-0.22 -0.38,-0.2 z"
     id="path92"
     inkscape:connector-curvature="0"
     style="fill:#2a4859" />
  <path
     class="cls-4"
     d="m 56.02,74.68 0.9,-0.06 -0.09,-0.11 c -0.11,0.03 -0.49,0.17 -0.81,0.17 z"
     id="path94"
     inkscape:connector-curvature="0"
     style="fill:#2a4859" />
  <path
     class="cls-4"
     d="m 71.69,68.78 c 0,0 0.21,0.11 0.38,0.2 -0.02,-0.1 -0.14,-0.22 -0.38,-0.2 z"
     id="path96"
     inkscape:connector-curvature="0"
     style="fill:#2a4859" />
  <path
     class="cls-4"
     d="M 59.97,72.68 Z"
     id="path98"
     inkscape:connector-curvature="0"
     style="fill:#2a4859" />
  <path
     class="cls-4"
     d="m 26.56,70.68 c 0,-0.09 0,-0.17 0.18,-0.21 l -0.77,0.05 c -0.26,-0.38 -1,-0.86 -0.36,-1.29 -0.3,0.11 -0.39,0.45 -0.56,0.68 a 1.8,1.8 0 0 0 -1,-0.67 l 0.16,-0.4 h -0.39 a 2.75,2.75 0 0 0 -0.63,-1 0.59,0.59 0 0 0 -0.2,-0.09 l 0.27,-0.38 A 3.61,3.61 0 0 1 22.1,67.16 l 0.17,-0.24 -0.18,-0.64 -0.07,0.68 -0.16,-0.37 h -0.4 l -0.11,-0.46 -0.47,-0.05 0.27,-0.31 h -0.47 l -0.06,-0.85 v -0.1 l -0.15,0.12 -0.24,0.19 a 1.35,1.35 0 0 1 -0.08,-0.16 l -4,0.28 a 2.33,2.33 0 0 0 0.38,0.4 l -0.37,0.18 c 0.29,0.35 0.84,0.47 0.65,1 l 0.39,-0.29 c 0,0.14 0.12,0.47 -0.09,0.51 a 2.32,2.32 0 0 0 0.7,0.59 l -0.24,0.48 0.38,-0.3 0.07,0.3 v 0.15 h 0.46 a 2.6,2.6 0 0 0 -0.39,0.59 0.8,0.8 0 0 0 0.47,-0.47 h 0.24 c 0,0.09 0.13,0.42 -0.09,0.32 0.18,0.12 1.12,0.82 0.55,1 h 0.3 c 0.32,0.45 0.71,0.86 1.06,1.29 z m -3.49,-2.16 a 0.48,0.48 0 0 1 -0.16,-0.46 0.47,0.47 0 0 1 0.13,0.45 z"
     id="path100"
     inkscape:connector-curvature="0"
     style="fill:#2a4859" />
  <polygon
     class="cls-4"
     points="358.05,83.12 358.05,83.13 "
     id="polygon102"
     style="fill:#2a4859"
     transform="translate(-286.44,-21.32)" />
  <path
     class="cls-4"
     d="m 76.81,51.94 h -0.3 l 0.38,0.22 a 0.35,0.35 0 0 0 -0.08,-0.22 z"
     id="path104"
     inkscape:connector-curvature="0"
     style="fill:#2a4859" />
  <path
     class="cls-4"
     d="m 76.07,51.99 c -0.05,0.09 -0.12,0.19 -0.18,0.28 l -0.28,-0.25 v 0 0 l 0.17,0.31 a 2.41,2.41 0 0 0 -0.13,0.63 l -0.48,0.18 h 0.48 c -0.31,0.21 -0.32,0.64 -0.6,0.87 l 0.21,0.22 v 0.34 c -0.24,0.11 -0.56,0.29 -0.62,0.57 l 0.23,-0.28 0.23,0.05 v 0.53 c -0.21,0.16 -0.36,-0.09 -0.67,-0.06 l 0.2,0.23 a 2,2 0 0 1 -0.39,1.26 c 0.2,-0.18 0.42,0 0.49,0.21 a 3.81,3.81 0 0 1 -0.84,0.14 v 0.66 l -0.26,-0.27 -0.5,0.55 c 0.17,0.19 0.36,0.6 0.11,0.8 L 72.9,58.51 a 20,20 0 0 1 -0.93,2 l 0.38,0.05 a 2.2,2.2 0 0 1 -0.38,0.75 v 0 a 2.56,2.56 0 0 1 -0.37,0.39 0.47,0.47 0 0 1 0.16,0.45 0.47,0.47 0 0 1 -0.16,-0.45 2.22,2.22 0 0 1 -1.12,0.56 v 0.57 l -0.3,-0.16 c 0.31,0.28 0.16,0.77 0.27,1.13 h -0.67 a 0.75,0.75 0 0 1 -0.06,0.68 v 0 a 0.53,0.53 0 0 1 -0.53,0.21 l -0.06,0.48 -0.3,-0.27 a 4.77,4.77 0 0 1 0,1 l -0.39,-0.26 -0.19,0.31 0.2,0.28 -0.65,0.13 -0.05,0.47 -0.4,-0.16 v 0.56 l -0.31,-0.36 c 0,0 -0.31,1.24 -0.49,0.7 l -0.25,0.22 -0.53,0.47 h 0.46 l 0.06,-0.27 0.33,0.05 c -0.22,0.67 -1.16,0.63 -1.68,1.67 l -0.39,-0.26 0.18,0.31 a 3.43,3.43 0 0 0 -0.69,0.67 l -0.16,-0.26 h -0.46 a 2.1,2.1 0 0 0 0.5,0.35 l -0.53,0.3 -0.17,-0.37 c -0.39,0.34 -0.73,0.74 -1.08,1.12 -0.9,0.06 -0.57,-0.42 -1,0.92 -0.19,-0.19 -0.44,-0.32 -0.62,-0.53 v 0.29 a 0.56,0.56 0 0 0 -0.46,0.32 1.27,1.27 0 0 0 0.6,-0.24 0.3,0.3 0 0 0 0.31,0.18 v 0.45 c -0.22,0 -0.24,-0.16 -0.47,-0.14 -0.23,0.02 -0.22,0.21 -0.45,0.21 v -0.44 c -0.2,0.32 -0.33,0.78 -0.56,1 l -0.1,-0.46 h -0.54 a 2,2 0 0 1 -0.33,0.68 l -0.31,-0.16 v 0.29 l -0.15,0.08 -0.34,-0.17 -0.6,0.64 -0.08,0.08 -0.06,-0.07 -0.9,0.06 a 1.67,1.67 0 0 1 -0.31,0 v 0 c -0.09,0 -0.16,0 -0.17,-0.09 v 0.1 0.27 l -0.15,-0.17 c -0.49,0.07 -0.9,0.71 -1.41,0.75 l -0.18,-0.17 c -0.2,0.13 -1.22,0.73 -1.32,0.28 a 2.83,2.83 0 0 0 -0.45,0.69 l -0.25,-0.17 -0.13,0.2 -0.63,-0.62 c 0,0.22 -0.49,0.93 -0.73,0.91 -0.1,0 -0.22,0 -0.2,-0.17 l -0.13,0.2 -0.28,-0.36 a 1.45,1.45 0 0 1 -1.48,0.1 v 0.31 c -0.25,0.1 -0.72,0.23 -0.9,-0.06 l -0.22,0.2 -0.39,-0.16 -0.12,0.49 a 4.35,4.35 0 0 0 -0.57,-0.92 l -0.08,0.49 -0.14,-0.17 H 45.4 c -0.1,0.92 -1.24,-0.15 -1.24,0.46 l -0.1,-0.33 c 0.14,-0.17 0.36,-0.12 0.45,-0.35 h -0.46 l -0.3,0.48 -0.1,-0.45 c -0.23,0 -0.39,0.32 -0.48,0.49 -0.18,-0.17 -0.45,-0.23 -0.61,-0.43 a 3.48,3.48 0 0 1 -0.4,1 c -0.1,-0.15 -0.46,-0.77 -0.11,-0.82 -0.23,-0.34 -0.79,-0.19 -1.1,0 a 1.47,1.47 0 0 1 -0.49,-0.62 h -0.34 l -0.33,0.49 -0.36,-0.44 h -0.45 l -0.12,0.28 -0.11,-0.46 c -0.4,0 -0.71,0.54 -0.93,0 v -0.11 l -0.13,0.12 -0.09,0.08 h -0.42 v 0 l 0.25,-0.41 c -0.2,0 -0.35,0.24 -0.44,0.42 v 0.08 L 36.8,75.91 v 0 a 3.12,3.12 0 0 0 -0.44,-0.07 v -0.48 c -0.17,0 -1,0 -0.95,0.25 L 35.33,75.42 35.47,74.95 35,74.9 35.26,74.59 A 3,3 0 0 0 34.42,75.3 L 34.35,75.07 34.6,74.64 33.73,74.7 A 3.91,3.91 0 0 1 33.4,73.86 l -0.22,0.19 -0.41,-0.15 0.2,0.28 -0.33,0.1 -0.25,-0.36 -0.06,0.38 c -0.38,-0.21 -0.46,-0.67 -0.71,-1 -0.29,0.55 -0.66,-0.34 -0.84,0.25 l -0.12,-0.46 c -0.43,0.22 -0.71,-0.22 -0.88,-0.55 l 0.44,-0.45 a 8.87,8.87 0 0 1 -0.92,0.24 l -0.11,0.47 -0.12,-0.65 c -0.14,0 -0.62,0 -0.57,0.23 -0.45,-0.5 -0.12,-0.59 -0.16,-1.12 l -0.23,0.29 c -0.56,0 -0.58,-0.35 -0.17,-0.63 l -0.4,0.19 -0.1,-0.46 -0.22,0.29 a 0.81,0.81 0 0 1 -0.66,-0.26 l -5.91,0.41 a 7.73,7.73 0 0 1 0.48,0.64 l -0.17,0.16 0.22,-0.19 a 5.39,5.39 0 0 1 1.16,1 l -0.46,0.27 c 0.43,0 0.81,-0.24 1.24,-0.26 a 4.45,4.45 0 0 0 0.64,1 h 0.57 l 0.13,0.65 h 0.56 a 3.64,3.64 0 0 1 -0.34,0.59 7.34,7.34 0 0 1 1.33,0 l -0.25,0.41 0.32,-0.3 h 0.24 c 0.15,0.17 0.38,0.21 0.57,0.32 l -0.17,0.15 v 0.53 A 1.67,1.67 0 0 1 27.57,76 l -0.17,0.3 a 4.59,4.59 0 0 0 0.79,0.37 v 0 c 0.18,0.06 0.34,0.07 0.38,0 v 0 a 0.21,0.21 0 0 0 0,-0.12 l 0.09,0.12 v 0 c 0.2,0.28 0.35,0.61 0.57,0.89 a 1.62,1.62 0 0 0 0.54,-0.42 c 0.09,0.28 0.1,0.63 0.34,0.83 0.41,-0.42 0.77,-0.12 1.13,0.17 l -0.15,0.41 c 0.14,-0.15 0.61,-0.36 0.68,0 l 0.55,-0.51 0.07,0.23 -0.26,0.42 c 0.94,0.42 0.81,-0.3 1.34,0 l -0.17,0.15 c 0,0.62 1,0.29 1.35,0.43 v 0.06 l -0.21,0.35 c 0.17,0 0.32,-0.2 0.41,-0.37 v 0 l 0.06,-0.13 a 0.68,0.68 0 0 0 0.15,0.11 v 0 a 1.59,1.59 0 0 1 0.46,0.32 2.15,2.15 0 0 1 -0.13,-0.34 h -0.25 0.25 c -0.06,-0.26 0.1,-0.2 0.3,0 a 2.2,2.2 0 0 1 0.52,0.69 v -0.67 c 0.21,0.08 0.59,0.55 0.19,0.64 h 0.57 l -0.07,0.47 0.23,-0.19 0.16,0.18 c 0.33,-0.16 0.53,-0.5 0.83,-0.71 a 0.49,0.49 0 0 1 -0.17,0.7 v 0.45 a 6.06,6.06 0 0 1 1,-0.55 l 0.12,0.46 c 0.15,-0.25 0.47,-0.31 0.66,-0.52 h 0.42 l -0.45,0.49 0.48,0.28 -0.29,-0.29 c 0.21,-0.16 0.37,-0.11 0.52,-0.38 a 1.84,1.84 0 0 1 0.63,0.31 l -0.26,0.3 0.33,-0.19 a 3.79,3.79 0 0 0 0.91,0.12 l -0.06,0.48 C 42.33,81.09 42.84,81 43.1,80.6 l 0.33,0.06 -0.18,0.14 0.19,0.44 c -0.07,-1 0.55,-0.37 0.91,-0.07 0.19,-0.11 0.43,-0.27 0.47,-0.51 0.85,0.91 1.62,-0.28 1.79,0.34 l 0.34,-0.22 -0.21,-0.39 c 0.35,-0.24 1,0.06 1.35,0.11 a 1.55,1.55 0 0 1 -0.35,0.55 1.59,1.59 0 0 0 0.68,-0.64 l 0.34,0.44 0.06,-0.48 h 0.24 c 0.44,1 0.67,0.14 1.14,-0.27 l 0.12,0.65 h 0.45 l -0.29,-0.22 0.33,-0.44 h 0.24 l 0.12,0.47 c 0.29,-0.14 0.45,-0.46 0.64,-0.7 0.19,0.18 0.47,0.17 0.67,0.33 l 0.21,-0.2 0.41,0.16 v -0.31 a 2,2 0 0 1 0.59,-0.4 1.63,1.63 0 0 0 0.27,0.65 c 0,-0.28 0.29,-0.43 0.35,-0.7 l 0.31,0.27 v -0.4 c 0.1,0 0.42,-0.14 0.34,0.09 0.2,-0.18 0.49,-0.22 0.67,-0.43 l 0.16,0.36 0.29,-0.2 0.36,0.45 c 0.08,-0.45 1.06,-1.79 1.46,-1.06 v -0.66 l 0.42,0.05 -0.26,0.4 a 1.47,1.47 0 0 0 0.57,-0.56 v 0 l 0.11,-0.13 h 0.53 l 0.07,0.12 0.19,0.34 a 1,1 0 0 1 0.12,-0.36 v 0 a 5.81,5.81 0 0 0 0.39,-0.63 h 0.33 l 0.27,0.46 a 4.2,4.2 0 0 1 0.23,-0.68 l 0.39,0.16 A 2.56,2.56 0 0 1 61.5,76.1 l 0.26,0.28 c 0.11,-0.15 0.74,-0.9 0.81,-0.35 l 0.23,-0.2 0.25,0.17 a 1.89,1.89 0 0 0 0.85,-0.72 l 0.3,0.27 c -0.43,-0.91 0.39,-1.44 1.07,-1 v -0.26 -0.41 l 0.15,0.27 h 0.45 l 0.24,-0.49 0.38,0.17 c 0.13,-0.44 0.31,-1 0.83,-1.12 l 0.17,0.18 -0.2,-0.23 0.24,-0.43 0.39,0.17 0.19,-0.21 -0.19,-0.22 v -0.42 a 3.54,3.54 0 0 0 0.6,0.43 c -0.05,-1 1.1,-0.8 1.13,-1.6 l 0.32,0.36 v -0.59 a 2.32,2.32 0 0 0 0.69,-1 h 0.41 c -0.27,0 -0.08,0.29 0,0.41 0,-0.66 0.63,-1.09 0.85,-1.68 l 0.15,0.27 h 0.63 l -0.16,-0.43 -0.05,-0.14 0.46,-0.11 c 0,-0.21 -0.56,-1 -0.09,-0.84 l 0.41,0.16 a 1.05,1.05 0 0 1 0.4,-0.69 2.3,2.3 0 0 1 -0.07,0.66 c 0.27,-0.25 0.49,-0.65 0.1,-0.92 l 0.5,-0.45 0.34,0.15 c 0,-0.09 0,-0.64 -0.21,-0.4 a 1.39,1.39 0 0 1 0.62,-0.5 v -0.13 -0.67 c -0.57,0.11 -0.13,-0.77 0.36,0 l -0.39,-0.51 c 0.15,-0.47 0.32,-0.6 0.82,-0.49 a 1.12,1.12 0 0 1 -0.25,-1.36 v 0 a 2.1,2.1 0 0 0 0.1,-0.78 l -0.48,-0.11 a 1.2,1.2 0 0 0 0.64,-0.33 l -0.42,-0.49 0.36,-0.16 -0.2,-0.31 a 3.11,3.11 0 0 0 0.72,-2 L 76,57.08 l 0.18,-0.2 -0.21,-0.22 0.16,-0.17 -0.2,-0.22 0.05,-0.43 0.39,0.26 a 2,2 0 0 1 0.17,-0.64 l -0.49,-0.07 0.45,-0.46 -0.2,-0.21 a 1.76,1.76 0 0 1 0.33,-0.66 L 76.4,53.64 c -0.36,0.51 -0.82,0.24 0,-0.4 l 0.16,0.17 -0.19,-0.23 0.16,-0.39 -0.38,-0.06 0.21,-0.41 z m -54.82,19.5 a 1.74,1.74 0 0 1 -0.39,-0.42 h 0.36 z m 1.07,1 v -0.37 a 1.8,1.8 0 0 0 0.65,0.18 z m 19,8.16 a 0.48,0.48 0 0 1 0.46,-0.16 0.48,0.48 0 0 1 -0.42,0.13 z m 8.35,-0.08 a 0.48,0.48 0 0 1 -0.17,-0.46 0.48,0.48 0 0 1 0.21,0.43 z m -2.58,-3.62 a 0.47,0.47 0 0 1 0.17,0.45 0.47,0.47 0 0 1 -0.13,-0.48 z m -1.37,-0.07 a 0.48,0.48 0 0 1 -0.46,0.16 0.48,0.48 0 0 1 0.5,-0.19 z m -4.66,0.13 a 0.48,0.48 0 0 1 -0.46,0.16 0.48,0.48 0 0 1 0.5,-0.19 z m -0.73,-0.62 v 0.64 c -0.18,-0.2 -0.28,-0.47 -0.4,-0.61 z m -7.19,-2 v 0.45 a 2,2 0 0 1 -0.48,-0.42 z m -3.48,2.69 h -0.44 v -0.26 h 0.44 z m 33.66,-1.67 v -0.45 h 0.64 c -0.24,0.13 -0.5,0.22 -0.64,0.44 z m 8,-7.42 h -0.45 v -0.26 h 0.45 z m 1.42,-8.73 h 0.45 v 0.26 h -0.45 z m 0.21,0.92 a 0.47,0.47 0 0 1 -0.16,-0.46 0.47,0.47 0 0 1 0.17,0.45 z m 2.56,-2 a 0.48,0.48 0 0 1 0.46,-0.16 0.48,0.48 0 0 1 -0.41,0.14 z"
     id="path106"
     inkscape:connector-curvature="0"
     style="fill:#2a4859" />
  <path
     class="cls-4"
     d="m 20.16,65.03 c -0.21,-0.57 -0.2,-1.46 -1,-1.46 l 0.28,-0.15 A 1.53,1.53 0 0 1 18.9,62.63 l -0.34,0.05 a 1.3,1.3 0 0 0 -0.49,-0.52 l 0.17,-0.15 v -0.44 l -0.49,-0.29 0.45,-0.37 a 4,4 0 0 1 -0.86,0 l 0.17,-0.3 c -0.19,0.19 -0.41,0 -0.48,-0.21 l 0.46,-0.11 v -0.63 h -0.45 l -0.12,0.28 c -0.26,0 0.08,-0.67 0.07,-0.72 0,-0.44 -0.64,-0.29 -0.89,-0.5 L 16.75,58.6 V 58.17 C 16.56,58 16.27,58.01 16.07,57.86 l 0.46,-0.09 v -0.45 l -0.76,0.05 a 4.15,4.15 0 0 1 0.06,-0.66 L 15.6,56.9 h -0.42 a 3.05,3.05 0 0 0 0.22,-0.59 v 0 0 0 l 0.35,0.24 0.11,-0.27 0.08,-0.19 -0.23,0.18 a 0.73,0.73 0 0 1 -0.49,-0.8 l -0.28,0.2 -0.1,-0.32 0.35,-0.35 c -0.52,0.22 -0.44,-0.36 -0.21,-0.22 -0.25,-0.36 -0.86,-0.87 -0.28,-1.26 l -0.32,0.18 -0.35,-0.36 c 0,-0.34 0.34,-0.58 0.32,-0.92 -0.02,-0.34 -0.23,-0.7 -0.28,-1.06 a 1,1 0 0 1 -0.66,-0.11 l 0.45,-0.09 -0.3,-0.32 0.28,-0.17 c -0.71,-0.42 -0.32,-0.45 -0.35,-0.94 l -0.2,-0.18 a 2.75,2.75 0 0 1 0.44,-0.53 c -1,0.07 -0.35,-0.57 -0.07,-0.94 h -0.47 l 0.17,-0.26 a 1,1 0 0 1 -0.23,-0.51 l -2.44,0.17 2.44,-0.17 A 0.51,0.51 0 0 1 13.18,47 l 0.41,0.15 V 46.7 c -0.24,0 -0.44,-0.17 -0.67,-0.23 0.12,-0.75 0.21,-0.76 -0.1,-1.51 l 0.37,-0.17 a 1.93,1.93 0 0 0 -0.43,-0.68 v -0.35 l 0.36,-0.1 c -0.19,-0.21 -0.33,-0.61 0,-0.81 -0.63,0.48 -0.37,-0.19 -0.22,-0.49 l -0.21,-0.32 0.61,-0.82 -0.48,-0.06 0.15,-0.44 h 0.49 C 13.23,40.56 13.2,40.14 12.83,40.31 l -0.07,-0.19 c 0.17,-0.28 0.44,-0.69 0.8,-0.74 a 1.37,1.37 0 0 0 -0.7,-0.55 l 0.46,-0.09 a 3.38,3.38 0 0 1 0.06,-0.64 l -3.2,0.22 v 0.46 L 9.77,38.53 a 1.33,1.33 0 0 0 0.5,0.56 L 9.6,39.03 c 0.18,0.2 0.22,0.5 0.43,0.68 l -0.37,0.16 c 0,0.09 0,0.68 0.22,0.49 -0.17,0.18 -0.21,0.43 -0.39,0.6 a 1.22,1.22 0 0 0 0.54,-0.47 c 0.13,0.35 0,0.52 -0.28,0.71 l 0.2,0.21 a 5.45,5.45 0 0 1 -0.79,0.93 h 0.36 c -0.14,-0.68 0.84,0.13 0,0.22 l 0.29,0.21 a 1.92,1.92 0 0 1 -0.42,0.67 v 0.44 c 0.68,0 0.68,0.43 0.23,0.48 v 0.35 l 0.28,0.06 v 0.35 l -0.46,0.11 0.2,0.23 -0.18,0.15 c 0,0.1 0,0.68 0.23,0.51 L 9.34,46.53 H 9.7 c -0.14,-0.68 0.84,0.13 0,0.22 l 0.29,0.22 a 1,1 0 0 1 -0.2,0.54 v 0 c -0.1,0.19 -0.12,0.36 0.28,0.6 v 0.34 L 9.6,48.57 c 0.55,0.86 0.68,0.59 0.31,1.64 l 0.48,0.06 a 0.85,0.85 0 0 1 -0.43,0.65 l 0.3,0.21 -0.26,0.4 0.33,-0.19 h 0.33 l -0.35,0.36 v 0.44 l 0.38,0.05 v 0.35 l -0.36,0.1 c 0,0.26 0.28,1.6 0.11,1.73 l 0.42,0.47 -0.36,0.33 c 0.52,0 0.51,-0.41 1.05,0 l 0.01,0.51 -0.31,-0.16 a 5.49,5.49 0 0 1 0.44,1 v 0 c 0.05,0.22 0,0.37 -0.16,0.3 0.68,0.71 0.23,0.54 0.29,1.27 l 0.23,-0.29 0.44,0.33 -0.06,0.33 -0.4,-0.14 0.51,0.39 -0.17,0.39 0.67,0.06 -0.27,0.15 0.3,0.32 -0.27,0.15 a 0.89,0.89 0 0 1 -0.15,0.69 l 0.23,0.42 0.38,-0.3 0.12,0.65 c 0.14,0 0.62,0 0.58,-0.23 0,0.14 0.13,0.47 -0.09,0.51 a 0.83,0.83 0 0 1 0.07,1 h 0.59 c 0.12,0.33 0.55,0.82 0.17,1.14 0.52,-0.23 0.43,0.35 0.2,0.22 a 3.16,3.16 0 0 0 0.7,0.47 l -0.17,0.15 v 0.45 a 1,1 0 0 1 0.72,0.46 z m -7,-4.87 A 0.47,0.47 0 0 1 13,59.7 a 0.47,0.47 0 0 1 0.21,0.46 z"
     id="path108"
     inkscape:connector-curvature="0"
     style="fill:#2a4859" />
  <path
     class="cls-4"
     d="m 15.12,65.23 a 0.46,0.46 0 0 0 0.46,-0.16 0.47,0.47 0 0 0 -0.46,0.16 z"
     id="path110"
     inkscape:connector-curvature="0"
     style="fill:#2a4859" />
  <path
     class="cls-4"
     d="m 14.3,53.24 c 0.23,-0.42 0.08,-0.48 0,-0.46 z"
     id="path112"
     inkscape:connector-curvature="0"
     style="fill:#2a4859" />
  <path
     class="cls-4"
     d="m 76.56,51.96 h 0.3 c -0.15,-0.16 -0.39,-0.11 0,-0.86 a 0.57,0.57 0 0 1 -0.5,-0.17 l -0.42,0.23 v 0.45 l 0.28,0.05 a 1.21,1.21 0 0 1 -0.14,0.35 h 0.4 v 0 z m -0.15,-0.39 a 0.47,0.47 0 0 1 -0.16,-0.46 0.47,0.47 0 0 1 0.11,0.46 z"
     id="path114"
     inkscape:connector-curvature="0"
     style="fill:#2a4859" />
  <path
     class="cls-4"
     d="m 75.56,51.18 c 0.05,0.14 -0.15,0.35 -0.24,0.64 0.14,0 0.25,-0.09 0.45,-0.23 -0.05,-0.01 -0.12,-0.45 -0.21,-0.41 z"
     id="path116"
     inkscape:connector-curvature="0"
     style="fill:#2a4859" />
  <path
     class="cls-4"
     d="m 16.04,22.96 c 0.17,0 0.18,0.18 0.31,0.16 0.13,-0.02 -0.11,-0.15 -0.2,-0.23 a 1.46,1.46 0 0 1 0.12,-0.37 c -0.21,0.17 -0.58,0.19 -1,0.45 a 5.59,5.59 0 0 1 0.67,0.37 c 0.05,-0.14 0.02,-0.29 0.1,-0.38 z"
     id="path118"
     inkscape:connector-curvature="0"
     style="fill:#2a4859" />
  <path
     class="cls-4"
     d="m 12.35,28.48 a 0.47,0.47 0 0 0 -0.46,0.16 0.47,0.47 0 0 0 0.46,-0.16 z"
     id="path120"
     inkscape:connector-curvature="0"
     style="fill:#2a4859" />
  <path
     class="cls-4"
     d="m 12.95,37.04 a 0.59,0.59 0 0 1 0.65,0.17 c 0,-0.32 0,-0.92 0.42,-1 v -0.35 h -0.47 a 0.82,0.82 0 0 0 -0.07,-1 l 0.47,-0.12 -0.31,-0.48 0.24,-0.52 c -0.19,0.19 -0.41,0 -0.49,-0.22 l 0.46,-0.1 c 0,-0.23 0.17,-0.42 0.15,-0.65 h -0.45 l -0.1,0.47 -0.12,-0.59 a 1.67,1.67 0 0 0 0.65,-0.27 L 13.49,32.3 v -0.33 l 0.14,-0.08 0.33,0.15 0.18,-0.22 C 13.67,31.32 13.57,31.11 14,30.53 l 0.25,0.45 v -0.46 c -0.35,0.12 -0.09,-0.55 0,-0.66 h -0.37 c 0.22,-0.45 0.64,-0.81 0.76,-1.31 -0.38,0.51 -0.83,0.22 0,-0.41 l 0.17,0.17 -0.2,-0.23 0.16,-0.24 -0.2,-0.23 0.17,-0.15 -0.19,-0.22 c 0.07,-0.58 0.94,-1.7 0.32,-2.18 0.23,-0.28 0.45,-0.36 0.32,-0.77 h 0.47 a 1.48,1.48 0 0 0 -0.22,-0.57 l 0.16,-0.25 -0.23,0.2 -0.41,-0.16 v 0.6 l -0.47,0.11 0.29,0.22 a 1.94,1.94 0 0 1 -0.59,1.09 h 0.38 a 9.35,9.35 0 0 0 -0.75,0.68 l -0.26,-0.53 -0.19,0.31 0.2,0.23 -0.17,0.15 0.22,0.57 -0.46,0.11 0.3,0.38 a 1.58,1.58 0 0 1 -0.67,0 l 0.13,-0.41 c -0.12,0.19 -0.42,0.34 -0.4,0.6 0.02,0.26 0.31,0.28 0.32,0.5 0.01,0.22 -0.34,0.36 -0.24,0.66 a 2.45,2.45 0 0 0 -0.84,0.29 0.58,0.58 0 0 1 0.66,0.84 L 12.25,29.55 H 11.8 l 0.19,0.21 a 3.62,3.62 0 0 1 -0.62,0.63 l 0.49,0.07 -0.17,0.14 0.21,0.32 -0.18,0.15 c 0,0.13 0,0.65 0.23,0.56 l -0.65,0.13 0.19,0.21 a 0.86,0.86 0 0 1 -0.62,0.49 c 0,0.23 -0.17,0.42 -0.14,0.65 l 0.22,-0.29 0.23,0.05 v 0.34 c -0.24,0.11 -0.56,0.28 -0.62,0.57 h 0.67 a 0.39,0.39 0 0 0 -0.25,0.55 l -0.65,0.12 -0.18,0.22 a 4.26,4.26 0 0 0 0.51,0.55 l -0.65,0.11 c 0.26,0.23 0,1 0.24,0.87 l -0.62,0.63 0.49,0.12 -0.45,0.38 c 0.22,0 0.66,-0.21 0.67,0.16 l -0.39,0.5 -0.42,-0.25 v 0.46 h 0.38 v 0 l 3.2,-0.22 a 1.31,1.31 0 0 0 -0.16,-0.94 z m 0.16,-0.72 c 0.22,-0.13 0.31,-0.19 0.26,-0.4 0.13,0 0.14,0.81 0.14,0.81 h -0.37 z m -2.42,-0.06 h -0.45 a 2.22,2.22 0 0 1 0.4,-0.67 z m -0.35,-1.32 a 0.48,0.48 0 0 1 0.46,-0.16 0.47,0.47 0 0 1 -0.47,0.16 z m 1.5,-4.48 A 0.48,0.48 0 0 1 12.3,30.3 0.47,0.47 0 0 1 11.83,30.46 Z M 13,37.92 a 0.47,0.47 0 0 1 -0.16,-0.46 0.47,0.47 0 0 1 0.14,0.46 z"
     id="path122"
     inkscape:connector-curvature="0"
     style="fill:#2a4859" />
  <path
     class="cls-6"
     d="m 45.04,85.68 h -0.45 v 0.2 l 0.21,0.05 a 2,2 0 0 0 0.24,-0.25 z"
     id="path124"
     inkscape:connector-curvature="0"
     style="fill:#97bf0d" />
  <path
     class="cls-6"
     d="m 60.94,82.82 a 5,5 0 0 0 -1.2,0.53 l 1.31,-0.09 h -0.37 z"
     id="path126"
     inkscape:connector-curvature="0"
     style="fill:#97bf0d" />
  <path
     class="cls-6"
     d="m 31.65,83.54 a 0.68,0.68 0 0 0 -0.27,0 l 0.14,0.08 a 0.29,0.29 0 0 0 0.13,-0.08 z"
     id="path128"
     inkscape:connector-curvature="0"
     style="fill:#97bf0d" />
  <path
     class="cls-6"
     d="m 61.86,83.21 h 0.08 a 0.28,0.28 0 0 0 -0.08,-0.08 c 0,0 0,0.05 0,0.08 z"
     id="path130"
     inkscape:connector-curvature="0"
     style="fill:#97bf0d" />
  <path
     class="cls-6"
     d="m 65.17,81.17 c -0.18,-0.18 -0.45,-0.23 -0.61,-0.43 l 0.18,0.34 a 0.65,0.65 0 0 1 -0.36,0.16 1,1 0 0 1 -0.4,0.68 c -0.16,0 0,-0.54 0.09,-0.65 h -0.36 l -0.18,0.19 c 0,0.2 0.25,0.39 0.41,0.5 l -0.29,0.44 c -0.74,-1.43 -1.26,-0.18 -1.71,0.5 l -0.15,-0.17 h -0.44 l -0.24,0.48 h -0.06 l -1.31,0.09 a 0.85,0.85 0 0 0 -0.33,0.42 1.1,1.1 0 0 1 -0.45,-0.35 c -0.62,0.2 -1,0.59 -1.73,0.51 v 0.47 l -0.25,-0.17 -0.42,0.5 A 0.69,0.69 0 0 1 56.4,84.32 l -0.23,0.2 a 0.52,0.52 0 0 0 -0.41,-0.15 v 0.58 c 0,0 0,0.06 -0.19,0.08 a 0.22,0.22 0 0 1 -0.22,-0.26 h -0.64 l 0.21,0.39 -0.53,0.3 a 0.74,0.74 0 0 1 -0.17,-0.37 2.11,2.11 0 0 0 -0.64,-0.24 l 0.2,0.33 -0.23,0.33 c -0.32,-0.2 -0.75,-0.14 -1.08,-0.3 v 0.36 l 0.28,0.12 C 52.3,85.88 51.46,85.9 51.36,85.28 A 8.76,8.76 0 0 0 50.7,85.9 0.52,0.52 0 0 0 50.29,85.75 v 0.47 L 49.47,85.8 c -0.15,0 -0.41,0.5 -0.65,0.06 v 0.66 c -0.45,-0.24 -1,-0.34 -1.37,-0.76 l -0.37,0.41 a 0.4,0.4 0 0 1 -0.27,-0.35 c -0.29,0.11 -0.25,0.46 -0.39,0.68 l -0.47,-0.44 -0.21,0.21 H 45.4 l -0.1,-0.2 0.18,-0.17 -0.21,0.19 a 0.72,0.72 0 0 0 -0.4,-0.15 1.6,1.6 0 0 1 -0.19,0.19 V 85.89 A 0.42,0.42 0 0 1 44.5,85.77 c 0.34,0.57 -0.82,0.24 -1.4,0.48 A 2.7,2.7 0 0 0 42.69,85.9 l -0.05,0.38 c -0.37,-0.25 -1,-0.24 -1.07,-0.8 l 0.18,-0.17 a 0.88,0.88 0 0 1 -0.43,0.22 l 0.29,0.22 c 0.06,0.82 -0.55,0.25 -1.05,0.3 L 40.43,85.4 c -0.33,0 -0.72,-0.18 -1,0 l 0.39,0.08 -0.16,0.31 c 0.2,-0.19 0.4,0 0.49,0.2 a 2.07,2.07 0 0 1 -1,0.06 l 0.27,-0.4 c -0.14,0 -0.63,0 -0.58,0.22 -0.16,-0.16 0,-0.66 0,-0.85 -0.35,0.24 -0.69,0.47 -1,0.73 -0.06,0 -0.07,-0.22 -0.07,-0.23 a 0.45,0.45 0 0 1 0.15,-0.33 c -0.19,0.12 -0.53,0.17 -0.4,-0.07 -0.19,0.11 -0.43,0.29 -0.48,0.51 a 2,2 0 0 1 -0.36,-0.47 l 0.16,-0.18 c -0.36,0.34 -1.46,0.57 -1.48,0.29 a 0.4,0.4 0 0 1 0.05,-0.2 v 0 a 0.43,0.43 0 0 0 0.07,-0.29 0.89,0.89 0 0 1 -0.36,0.3 v 0 a 2.34,2.34 0 0 0 -0.35,0.22 1.49,1.49 0 0 1 -0.13,-0.19 v 0 c -0.1,-0.17 -0.21,-0.4 -0.14,-0.55 l -0.35,0.3 a 3,3 0 0 0 -1.2,-0.19 l 0.18,-0.14 -0.18,-0.64 -0.08,0.39 h -0.34 l -0.1,-0.2 0.18,-0.17 -0.21,0.19 c -0.25,-0.18 -0.52,-0.33 -0.79,-0.48 a 0.58,0.58 0 0 1 -0.33,0.05 0.34,0.34 0 0 1 0.19,-0.14 6.1,6.1 0 0 1 -0.94,-0.64 l -0.21,0.21 -0.15,-0.18 c -0.12,0 -0.64,0 -0.51,0.22 h -0.43 l 0.27,-0.15 v -0.36 c -0.15,0 -0.82,0 -0.75,0.24 -0.11,-0.29 -0.33,-0.52 -0.44,-0.82 l -0.22,0.2 A 0.51,0.51 0 0 0 27.68,82.1 v 0.37 c -0.27,-0.17 -0.56,-0.56 -0.2,-0.81 l -0.23,0.18 a 5.08,5.08 0 0 1 -0.89,-0.31 l -0.06,0.38 c -0.18,-0.14 -0.48,-0.5 -0.32,-0.72 l -0.1,0.09 c -0.14,-0.1 -0.29,-0.14 -0.27,-0.34 l -0.22,0.19 a 0.73,0.73 0 0 1 -0.37,-0.44 h -0.59 c 0,0 -0.06,0 -0.08,-0.19 -0.02,-0.19 0.17,-0.29 0.14,-0.47 a 1,1 0 0 1 -0.39,0.3 L 24,79.87 23.79,80.06 a 1,1 0 0 0 -0.76,-0.13 0.5,0.5 0 0 1 -0.07,-0.1 l -4.78,0.33 a 1.27,1.27 0 0 1 0.39,0.73 h 0.47 l 0.06,0.85 0.23,-0.2 a 2.51,2.51 0 0 0 0.62,0.21 c -0.16,0.26 -0.51,0.32 -0.62,0.62 a 5.91,5.91 0 0 1 1.62,0 l -0.27,0.4 c 0.14,0 0.63,0 0.58,-0.22 l 0.13,0.65 a 3.51,3.51 0 0 1 0.85,0 l -0.18,0.15 0.17,0.35 a 0.42,0.42 0 0 1 0.23,-0.4 l 0.13,0.64 h 0.37 l -0.36,0.33 h 0.35 a 1,1 0 0 1 0.42,-0.39 c 0,0 0.06,0.09 0.07,0.19 0.01,0.1 -0.17,0.29 -0.14,0.47 l 0.22,-0.29 h 0.34 l 0.32,0.46 c 0.12,0 0.63,0 0.5,-0.23 0.33,0 0.43,0.56 0.39,0.82 0.7,-0.35 0.92,-0.09 1.26,0.39 l 6.7,-0.47 -6.7,0.47 0.12,0.18 0.22,-0.2 c 0.44,0 1.16,0.45 1.16,1 h 0.57 a 0.85,0.85 0 0 1 -0.05,0.49 c 0.34,-0.28 0.71,-0.38 0.86,0.12 h 0.35 c 0,-0.28 0.26,-0.42 0.32,-0.68 l 0.35,0.33 a 0.73,0.73 0 0 1 -0.37,0.16 1.72,1.72 0 0 0 0.4,0.61 v -0.4 c -0.07,0 0.09,-0.08 0.16,-0.08 a 0.87,0.87 0 0 1 0.55,0.22 l -0.36,0.4 a 3.4,3.4 0 0 1 0.89,0.15 l 0.48,-0.41 0.35,0.43 -0.36,0.41 a 12.89,12.89 0 0 1 1.51,-0.21 l -0.06,0.12 -0.1,0.19 c 0.45,0 0.41,-0.39 0.95,-0.07 a 0.71,0.71 0 0 1 -0.07,0.47 l 0.24,-0.19 0.15,0.17 c 0.29,0 0.38,-0.5 0.94,0 a 0.51,0.51 0 0 0 -0.25,0.42 h 0.45 a 1.12,1.12 0 0 1 0.12,-0.47 l 0.1,0.45 h 0.45 l 0.05,-0.47 c 0.28,0 0.54,0.6 0.62,0.82 l 0.07,-0.39 h 0.25 l 0.1,0.36 c 0.19,0 0.27,-0.2 0.45,-0.21 l 0.52,0.43 0.29,-0.29 A 0.64,0.64 0 0 0 39.11,90 v -0.4 c 0.64,-0.44 0.71,0.16 0.93,0.53 l 0.22,-0.2 0.24,0.16 0.23,-0.2 c 0,0.34 1.64,0.22 1.57,-0.11 a 3.17,3.17 0 0 0 0.77,0.8 l -0.18,-0.23 a 1.94,1.94 0 0 1 0.39,-0.45 l 0.1,0.46 c 0.6,0 0.75,0.14 1.32,0.1 v -0.31 c 0,0 0,-0.06 0.19,-0.08 0.19,-0.02 0.46,0.17 0.69,0.22 l -0.27,0.3 a 1.91,1.91 0 0 0 0.68,-0.6 l 0.25,0.16 0.21,-0.19 c 0.21,0.2 0.57,0.15 0.8,0.32 l 0.06,-0.38 a 0.81,0.81 0 0 1 0.49,0.53 c 0.46,-0.32 0.83,-1.06 1.31,-0.28 0.34,0 1.07,-0.36 1.29,-0.1 -0.22,-0.5 0.36,-0.44 0.2,-0.2 l 0.23,-0.2 0.25,0.16 0.23,-0.2 0.16,0.17 a 1.61,1.61 0 0 0 0.56,-0.51 c 0,0 0.15,0.46 -0.09,0.5 l 0.21,0.34 h 0.64 a 1.16,1.16 0 0 1 0.24,-0.58 h 0.33 A 1.51,1.51 0 0 1 53.3,90.1 c 0.42,-0.17 1,-0.89 1.45,-0.47 l 0.06,-0.48 0.49,0.44 c 0.39,-0.31 0.64,-0.79 1.23,-0.57 v -0.67 l 0.15,0.27 a 0.91,0.91 0 0 1 0.69,0.15 c 0.32,-0.43 2,0.35 1.61,-0.89 a 0.85,0.85 0 0 1 0.47,0.07 l -0.19,-0.23 0.24,-0.43 0.15,0.17 c 0.19,0 0.35,-0.22 0.43,-0.37 l -0.38,0.2 -0.12,-0.48 1.51,-0.1 a 0.73,0.73 0 0 1 0.08,-0.2 v 0 c 0.13,-0.21 0.32,-0.37 0.36,-0.54 l -0.21,-0.25 0.64,-0.12 c 0.28,-0.44 0,-1.19 0.79,-1.21 v -0.58 a 0.49,0.49 0 0 1 0.73,0.17 0.65,0.65 0 0 1 0.4,-0.33 l -0.29,-0.28 0.13,-0.08 c 0.4,-0.25 0.75,-0.54 1.17,-0.75 l 0.18,0.16 c -0.43,-0.5 -0.19,-1.39 0.57,-1.16 v -0.36 z m -3.15,2.29 A 0.69,0.69 0 0 0 61.93,83.2 h -0.08 c 0,0 0,-0.06 0,-0.08 l 0.08,0.08 a 0.7,0.7 0 0 1 0.09,0.27 z"
     id="path132"
     inkscape:connector-curvature="0"
     style="fill:#97bf0d" />
  <path
     class="cls-6"
     d="m 16.56,79.57 -0.15,0.14 a 0.2,0.2 0 0 0 0.15,-0.14 z"
     id="path134"
     inkscape:connector-curvature="0"
     style="fill:#97bf0d" />
  <path
     class="cls-6"
     d="m 20.87,78.33 0.18,-0.25 a 0.46,0.46 0 0 0 -0.18,0.25 z"
     id="path136"
     inkscape:connector-curvature="0"
     style="fill:#97bf0d" />
  <path
     class="cls-6"
     d="m 22.5,79.11 -0.13,0.39 -0.26,-0.55 -0.06,0.38 a 1.24,1.24 0 0 1 -0.49,-0.65 l -0.22,0.29 H 21 c 0,0.08 -0.08,-0.1 -0.08,-0.14 0,-0.04 0.19,-0.07 0.17,-0.25 -0.02,-0.18 -0.27,-0.13 -0.24,-0.3 v 0 C 20.43,78.13 20.41,77.64 20.67,77.79 A 1.36,1.36 0 0 0 19.97,77.25 1.5,1.5 0 0 0 20.62,77 c -0.31,0 -0.83,0.3 -0.89,-0.25 l -0.31,0.29 a 1.87,1.87 0 0 1 -0.36,-0.47 l 0.17,-0.17 -0.38,0.2 -0.11,-0.46 h -0.66 l -0.07,-1.05 a 0.84,0.84 0 0 1 -0.84,0.18 l 0.18,-0.15 V 74.69 A 2.09,2.09 0 0 1 16.9,74.03 c 0,0 -0.37,0.38 -0.46,0.32 a 0.62,0.62 0 0 1 -0.34,0 l 0.21,-0.24 0.14,-0.16 -0.38,-0.07 a 0.52,0.52 0 0 0 0.15,-0.41 L 16,73.76 h -0.34 c -0.59,-0.48 -0.11,-0.65 -0.15,-0.93 h -0.45 a 1.2,1.2 0 0 1 -0.1,0.47 7.23,7.23 0 0 1 -0.16,-1.12 l -0.47,-0.05 0.27,-0.15 a 5.43,5.43 0 0 1 0.13,-0.84 1.35,1.35 0 0 0 -0.56,0.69 l -0.09,-0.45 -0.23,0.2 -0.43,-0.22 c 0.18,-0.18 0.23,-0.44 0.43,-0.61 a 0.5,0.5 0 0 1 -0.52,-0.37 h -0.58 l -0.11,-0.46 -0.22,0.19 -0.44,-0.21 a 2,2 0 0 0 0.6,-0.82 4.44,4.44 0 0 1 -0.86,0 1.25,1.25 0 0 1 0.44,-0.59 l -0.33,0.18 -0.34,-0.06 a 0.47,0.47 0 0 0 0.16,-0.39 L 11.18,68.17 11.46,68 c -0.23,-0.14 -0.34,-0.42 -0.52,-0.62 l 0.17,-0.16 -0.28,0.2 a 3.31,3.31 0 0 1 -0.15,-0.84 h -0.37 c 0.17,-0.07 0,-0.73 0,-0.84 a 3.75,3.75 0 0 1 -0.85,0.07 l 0.05,-0.46 0.14,0.18 0.45,-0.19 C 9.32,65.39 9.5,64.89 9.86,64.85 V 64.49 A 0.61,0.61 0 0 0 9.56,64.89 0.67,0.67 0 0 1 9.4,64.53 L 8.93,64.48 A 0.32,0.32 0 0 1 9.2,64.23 1,1 0 0 0 8.49,63.54 c 0,-0.12 0.06,-0.19 0.17,-0.12 -0.19,-0.21 -0.33,-0.61 0,-0.81 L 8.42,62.79 H 8.09 C 8.09,62.72 8.03,62.62 8,62.49 l -3.51,0.24 a 1.12,1.12 0 0 1 -0.16,0.48 h 0.3 a 0.72,0.72 0 0 1 -0.07,0.48 l 0.39,-0.2 a 0.47,0.47 0 0 1 -0.17,0.71 3.3,3.3 0 0 1 0.37,1 0.72,0.72 0 0 1 0.67,0.19 1.17,1.17 0 0 0 -0.64,0.34 l 0.38,0.4 c -0.18,-0.21 0,-0.41 0.21,-0.49 a 1,1 0 0 1 0.3,0.55 c 0,0.12 -0.06,0.19 -0.17,0.13 0.17,0.38 0.57,0.48 0.45,1 h 0.4 c 0,-0.07 0.08,0.09 0.08,0.15 0,0.06 -0.18,0.17 -0.17,0.34 0.01,0.17 0.22,0.41 0.25,0.64 0.14,0 0.62,0 0.57,-0.23 a 1.28,1.28 0 0 1 0,1 h 0.36 v -0.36 c 0.36,0.07 0.39,0.48 0.66,0.68 a 2.75,2.75 0 0 0 -0.21,0.63 c -0.1,-0.07 0,-0.22 -0.17,-0.15 l -0.1,0.05 -0.15,0.08 0.31,0.19 0.29,-0.2 c 0,0 0.07,0.09 0.08,0.19 0.01,0.1 -0.17,0.29 -0.14,0.48 0.59,-0.26 0.8,0.56 0.73,1 l 0.28,-0.2 0.14,0.65 a 1.19,1.19 0 0 1 1,0.2 l -0.27,0.17 a 0.86,0.86 0 0 1 0.35,0.88 l 0.23,-0.28 0.43,0.05 a 4.51,4.51 0 0 0 -0.46,0.46 l 0.18,0.43 0.07,-0.48 0.42,0.05 -0.18,0.14 v 0.45 l 0.22,-0.19 0.43,0.05 -0.27,0.14 0.2,0.16 0.09,0.07 a 0.32,0.32 0 0 1 -0.26,0.26 4.9,4.9 0 0 1 0.36,0.81 l 0.19,-0.49 a 1.35,1.35 0 0 1 0.18,0.46 0.84,0.84 0 0 1 0.66,0.21 0.53,0.53 0 0 0 -0.15,0.41 c 0.24,0 0.44,0.18 0.67,0.22 a 0.49,0.49 0 0 0 -0.25,0.41 l 0.33,-0.3 h 0.24 c 0,-0.08 0.08,0.1 0.08,0.14 a 0.35,0.35 0 0 1 -0.15,0.33 c 0.79,-0.15 0.66,0.63 0.94,1.08 l 0.31,-0.31 0.33,0.06 a 1.2,1.2 0 0 1 -0.36,0.46 c 0.26,0.36 0.87,1.13 1.3,0.53 0.11,0.12 0.36,0.49 0.3,0.7 l 0.06,-0.05 c 0.51,0.31 1,0.34 1.39,0.66 l 4.78,-0.33 C 22.7,79.6 22.88,79.33 22.5,79.11 Z"
     id="path138"
     inkscape:connector-curvature="0"
     style="fill:#97bf0d" />
  <path
     class="cls-6"
     d="M 4.17,62.87 H 3.94 l 0.22,0.09 c 0,0 0.01,-0.05 0.01,-0.09 z"
     id="path140"
     inkscape:connector-curvature="0"
     style="fill:#97bf0d" />
  <path
     class="cls-6"
     d="m 4.29,62.5 a 0.57,0.57 0 0 1 0.09,0.36 L 7.89,62.62 C 7.73,62.07 7.55,61.11 7.76,60.94 L 7.47,61.23 A 0.5,0.5 0 0 1 7.55,60.53 1,1 0 0 0 7.04,60.04 L 7.32,59.88 C 7.26,59.76 6.4,59.05 6.97,58.96 a 1.88,1.88 0 0 1 -0.44,-0.79 0.5,0.5 0 0 0 -0.38,0.3 1.58,1.58 0 0 1 0,-0.68 0.48,0.48 0 0 0 0.4,0.15 2.89,2.89 0 0 0 -0.53,-0.85 0.25,0.25 0 0 1 0.17,-0.28 L 5.78,56.42 5.95,56.03 A 1.33,1.33 0 0 1 5.47,55.9 L 5.93,55.8 V 55.36 H 5.48 a 1.23,1.23 0 0 1 -0.1,0.47 C 5.28,55.45 5.44,55.06 5.31,54.67 H 5.88 V 54.23 L 5.66,54.52 H 5.31 L 5.02,54.18 A 0.71,0.71 0 0 1 5.38,54.02 L 5.18,53.73 A 0.66,0.66 0 0 0 5.62,53.36 3.78,3.78 0 0 1 4.94,53.13 L 5.11,52.99 A 0.58,0.58 0 0 0 4.61,52.5 C 4.83,52.3 4.97,52.04 5.24,51.89 A 1.23,1.23 0 0 1 4.56,51.76 L 5.21,51.64 C 4.86,50.91 4.51,51.22 5.13,50.37 L 4.46,50.31 4.72,49.92 4.24,49.86 C 4.48,49.39 4.03,48.69 4.62,48.4 3.7,48.46 4.3,47.89 4.26,47.33 l 0.46,-0.12 c -0.22,-0.64 0,-0.76 -0.1,-1.29 -0.49,0.71 -0.71,-0.14 -0.2,-0.2 L 4.13,45.5 v -0.34 a 2.38,2.38 0 0 0 0.44,-0.59 l -4.23,0.29 c 0,0.09 -0.07,0.19 -0.11,0.29 l 0.3,-0.19 c 0,0 0.07,0.1 0.08,0.19 0.01,0.09 -0.42,0.67 0,0.53 l -0.34,0.51 0.38,0.06 c -0.07,0.26 -0.35,0.49 -0.33,0.77 0.02,0.28 0.58,0.54 -0.2,1.17 l 0.33,-0.18 0.34,0.06 -0.18,0.14 0.2,0.32 A 0.69,0.69 0 0 1 0.45,48.7 l -0.23,0.83 a 1.35,1.35 0 0 1 1,0.38 l -0.46,0.1 c 0.22,0.64 0,0.76 0.1,1.29 l 0.22,-0.29 0.23,0.05 v 0.35 l -0.46,0.11 0.2,0.23 -0.17,0.26 c 0.23,0.36 0.13,0.61 0.54,0.86 l -0.27,0.15 v 0.45 l 0.28,0.06 -0.26,0.16 v 0.45 l 0.39,-0.2 c 0.28,0.21 -0.1,0.52 -0.08,0.72 0.02,0.2 0.19,0 0.21,0.22 0.02,0.22 -0.18,0.17 -0.17,0.34 0.01,0.17 0.51,0.48 0.06,0.6 h 0.29 c 0,-0.08 0.08,0.1 0.08,0.15 0,0.05 -0.19,0.07 -0.17,0.25 0.02,0.18 0.51,0.17 0.05,0.55 l 0.47,0.05 -0.27,0.15 0.29,0.22 c -0.49,0.61 -0.27,0.82 0.27,1.13 l -0.17,0.15 c 0.25,0.16 0.07,1.07 0.1,1.49 0.68,0 0.24,-0.08 0.58,-0.23 l 0.11,0.45 0.28,-0.29 0.1,0.41 a 0.5,0.5 0 0 1 -0.7,-0.07 l -0.33,0.38 h 0.6 l 0.11,0.47 0.22,-0.19 0.43,0.05 -0.28,0.14 a 1,1 0 0 1 0.3,0.38 1.25,1.25 0 0 0 -0.65,0.34 l 0.18,0.43 0.06,-0.48 c 0.72,0.5 0.48,0.27 0.21,1.1 l 0.23,0.09 H 4.2 A 1.45,1.45 0 0 1 4.29,62.5 Z"
     id="path142"
     inkscape:connector-curvature="0"
     style="fill:#97bf0d" />
  <path
     class="cls-6"
     d="M 4.43,44.59 A 1.88,1.88 0 0 1 4.6,44.36 C 4.46,44.25 3.86,43.62 4.34,43.55 L 4.14,43.32 A 1,1 0 0 1 4.49,42.86 L 4.31,42.43 4.24,42.91 3.8,42.68 A 0.31,0.31 0 0 1 4.06,42.43 L 3.77,42.14 a 5.07,5.07 0 0 0 0.9,-0.76 1.37,1.37 0 0 1 -0.48,-0.13 l 0.46,-0.1 -0.3,-0.32 v -0.71 a 1.44,1.44 0 0 1 0.67,0 C 4.8,39.87 4.79,39.51 4.59,39.25 A 0.64,0.64 0 0 1 4.95,39.08 C 4.41,38.75 5.31,38.39 4.71,38.24 A 2.91,2.91 0 0 0 5.55,37.95 L 4.87,37.89 5.14,37.74 4.84,37.42 v -0.71 c -0.08,0 0.1,-0.08 0.14,-0.08 a 0.37,0.37 0 0 1 0.34,0.15 C 5.27,35.94 4.94,35.84 5.44,34.59 l 0.4,0.26 a 1.17,1.17 0 0 0 -0.5,-0.69 5.3,5.3 0 0 1 0.6,-0.9 l -0.38,-0.06 0.06,-0.34 0.3,0.17 a 5.54,5.54 0 0 1 0,-1.32 0.3,0.3 0 0 1 0.25,0.25 h 0.36 a 0.57,0.57 0 0 0 -0.4,-0.29 2.46,2.46 0 0 0 0.19,-1 l 0.32,0.36 c 0,-0.11 0,-0.65 -0.2,-0.41 A 3.13,3.13 0 0 1 7.08,30.18 1.4,1.4 0 0 1 6.59,30.04 0.64,0.64 0 0 0 7.04,29.69 L 6.56,29.64 6.9,29.29 7.05,29.47 7.49,29.3 7.01,29.24 a 9,9 0 0 0 1,-1.51 L 7.62,27.93 7.5,27.33 7.96,27.22 V 26.64 L 8.61,26.51 V 26.06 H 8.48 8.33 L 8.59,25.9 a 0.92,0.92 0 0 1 -0.3,-0.38 l 0.46,-0.1 V 24.76 A 0.49,0.49 0 0 0 9.17,25 l -0.3,-0.31 c 0.09,-0.26 0.46,-0.17 0.25,-0.55 0.28,-0.16 0.66,-0.16 0.82,-0.48 -0.25,0.12 -0.45,0.38 -0.47,0 a 14.32,14.32 0 0 0 1.86,-2 l -0.2,-0.2 c 0.11,-0.36 0.43,-0.73 0.29,-1.12 h 0.48 c 0,-0.11 0,-0.64 -0.21,-0.41 a 0.42,0.42 0 0 1 0.08,-0.16 v 0 c 0.22,-0.25 0.7,0 0.72,-0.48 l -0.38,0.21 a 1.54,1.54 0 0 1 0,-0.68 0.31,0.31 0 0 1 0.24,0.26 l 0.83,-0.06 c 0,-0.11 0,-0.75 -0.22,-0.5 a 9.12,9.12 0 0 1 0.56,-1.13 l 0.39,0.26 a 7.83,7.83 0 0 1 0.48,-1.36 l 0.32,0.35 C 14.5,16.17 15,15.91 15.2,15.56 l 0.16,0.18 a 1.93,1.93 0 0 0 0.6,-0.54 l -0.21,-0.26 a 4.06,4.06 0 0 1 1,-0.16 c 0.05,-0.3 -0.09,-0.5 0.25,-0.69 a 0.87,0.87 0 0 1 -0.44,-0.41 c 0.2,-0.16 0.79,-0.36 0.61,-0.7 0.33,-0.11 0.73,-0.16 0.92,-0.49 l -0.39,0.19 -0.1,-0.4 0.6,-0.12 0.27,0.45 c -0.19,-0.59 0.31,-0.5 0.51,-0.89 a 0.5,0.5 0 0 0 0.4,0.15 v -0.66 l 0.24,0.17 a 0.86,0.86 0 0 1 0.43,-0.22 v -0.45 l -0.28,-0.12 c 0.44,-0.34 0.84,0.06 1.14,0.33 L 20.62,10.59 V 9.98 h 0.51 A 0.7,0.7 0 0 1 21.06,10.45 0.93,0.93 0 0 1 21.5,10.24 0.51,0.51 0 0 0 21.2,9.86 2,2 0 0 0 21.88,9.08 4.67,4.67 0 0 0 22.36,9.53 1.69,1.69 0 0 1 22.95,9.28 1.3,1.3 0 0 1 22.7,8.34 l 0.85,-0.06 c -0.22,-0.5 0.35,-0.43 0.2,-0.2 l 0.23,-0.2 0.26,0.17 a 1.9,1.9 0 0 1 0.61,-0.24 l -0.3,-0.32 a 3.76,3.76 0 0 1 0.32,-0.63 h 0.23 a 0.82,0.82 0 0 1 -0.06,0.48 1.64,1.64 0 0 0 0.55,-0.7 1.41,1.41 0 0 0 0.26,0.65 V 6.7 c -0.11,-0.07 0.43,-0.18 0.34,0.09 0.6,-0.36 1.13,-0.48 0.55,-1.3 l 0.23,-0.27 0.44,0.23 -0.26,0.39 c 0.13,-0.17 0.67,-0.3 0.49,0 L 27.98,5.63 27.75,5.19 27.54,5.39 27.1,5.11 c 0.71,-0.25 0.57,-0.08 1.12,-0.16 0,-1.14 1.2,-1.66 1.44,-1.24 A 1.3,1.3 0 0 1 29.75,2.86 0.62,0.62 0 0 0 30.1,3.3 V 2.91 L 30.76,2.78 V 2.39 c 0,-0.05 0.13,-0.07 0.19,-0.08 a 0.36,0.36 0 0 1 0.29,0.14 0.72,0.72 0 0 1 -0.12,-0.47 l 0.46,-0.1 C 31.8,0.95 32.43,0.7 32.99,0 h -0.46 c 0,0.4 -0.52,0.74 -0.85,0.4 a 0.59,0.59 0 0 0 0.45,-0.38 h -0.44 a 0.71,0.71 0 0 1 -0.46,0.32 l 0.29,0.29 c 0,0.06 -0.47,0.15 -0.5,-0.09 h -0.36 c 0,0.5 -0.31,0.53 -0.64,0.22 V 1.17 A 0.48,0.48 0 0 1 29.3,1.02 h -0.45 a 1.5,1.5 0 0 0 0.5,0.36 c -0.08,0 -1.12,0.59 -1,0.14 C 28.02,1.8 28.13,2.01 27.7,2.04 A 0.87,0.87 0 0 0 27.18,1.8 c 0,0.29 0.44,0.66 0.1,0.93 l -0.1,-0.45 c -0.26,0 -0.45,0.28 -0.5,0.51 A 0.88,0.88 0 0 0 26.28,2.53 V 3 L 26.03,2.83 c -0.85,0.81 -0.67,0.22 -1.08,0.27 0,0.67 -0.44,0.62 -0.67,1.18 -0.47,0 -0.42,-0.38 -0.17,-0.64 L 23.56,3.68 V 4.33 L 23.41,4.06 23.19,4.35 23.03,4.09 H 22.58 C 22.98,5.16 22.07,5 21.5,4.82 A 0.48,0.48 0 0 0 21.79,5.2 4.16,4.16 0 0 1 20.87,5.53 L 21.16,5.75 20.83,6.19 20.5,6.13 a 0.43,0.43 0 0 0 0.14,-0.4 c -0.08,0.15 -0.62,0.92 -0.79,0.35 v 0.3 L 19.39,6.49 V 6.96 L 19.14,6.79 a 1.87,1.87 0 0 1 -0.61,0.24 c 0,0.13 0,0.65 0.23,0.56 a 4.77,4.77 0 0 1 -1.48,0.67 v 0.3 L 16.82,8.67 V 9.14 L 16.57,8.96 A 1.41,1.41 0 0 1 15.79,9.4 v 0.66 A 0.5,0.5 0 0 0 15.39,9.9 l 0.29,0.28 -0.65,-0.07 0.19,0.23 v 0.43 l -0.14,-0.19 c -0.92,0.06 -0.83,0.37 -1.12,1.12 a 0.51,0.51 0 0 0 -0.4,-0.02 v 0.39 a 1.71,1.71 0 0 0 -0.66,0.27 1.45,1.45 0 0 1 0.49,0.14 l -0.46,0.11 a 1,1 0 0 1 -0.22,0.66 0.72,0.72 0 0 1 -0.18,-0.37 l -0.42,0.39 h 0.4 c 0,-0.07 0.08,0.09 0.08,0.16 a 0.88,0.88 0 0 1 -0.23,0.55 l -0.39,-0.36 a 1.25,1.25 0 0 1 -0.41,0.69 l -0.1,-0.45 h -0.35 c 0.56,0.48 -0.1,0.91 -0.28,1.34 l -0.15,-0.26 h -0.45 a 0.67,0.67 0 0 0 0.5,0.29 3.16,3.16 0 0 0 -0.23,0.63 l -0.39,-0.26 0.19,0.33 a 0.93,0.93 0 0 1 -0.81,0.38 l 0.2,0.33 -0.24,0.34 -0.15,-0.17 -0.64,0.17 a 1.73,1.73 0 0 1 0.7,0.43 5.87,5.87 0 0 1 -0.8,0.27 L 8.76,18 c -0.09,0.63 -0.84,0.27 -0.8,0.85 a 0.24,0.24 0 0 0 0.21,0.24 v 0.34 c -0.23,0.15 -0.62,0.22 -0.71,0.51 a 0.5,0.5 0 0 0 -0.4,-0.16 1,1 0 0 1 0.22,0.23 v 0 l 0.08,0.14 A 2.7,2.7 0 0 0 6.44,20.69 L 6.75,21 6.48,21.15 v 0.57 c -0.28,0.1 -0.64,0.12 -0.84,0.35 l 0.21,0.29 a 0.51,0.51 0 0 1 -0.53,0.38 l 0.19,0.31 a 18.76,18.76 0 0 0 -1,1.9 l 0.48,0.06 -0.63,0.65 c -0.18,0 -0.29,-0.16 -0.48,-0.12 0.26,0.15 0.34,0.5 0.53,0.72 L 4.1,26.32 3.77,26.38 c 0,0.18 0.19,0.26 0.21,0.45 0.02,0.19 -0.15,0.52 -0.13,0.79 a 3.77,3.77 0 0 1 -0.63,0.42 l 0.21,0.27 -0.65,0.13 a 1,1 0 0 1 0.3,0.38 l -0.46,0.1 0.2,0.23 a 0.53,0.53 0 0 0 -0.15,0.41 1,1 0 0 1 0.38,-0.3 c 0,0 0.07,0.21 0.08,0.23 0,0.46 -0.55,0.61 -0.63,0.3 a 2.81,2.81 0 0 1 -0.53,2.19 h 0.31 c 0,-0.07 0.08,0.09 0.08,0.16 0,0.51 -0.75,0.44 -1,0.75 a 0.77,0.77 0 0 1 0.68,0.21 l -0.46,0.25 a 1.36,1.36 0 0 1 0.48,0.13 c -0.26,0.17 -0.29,0 -0.52,0.39 L 1.24,33.6 c 0,0.37 -0.26,0.46 -0.45,0.73 v 0.43 h 0.39 a 1.11,1.11 0 0 0 0.3,0.61 l -0.45,0.09 v 0.64 l 0.28,0.06 -0.26,0.16 v 0.66 L 0.91,36.81 H 0.46 l 0.29,0.22 0.08,1.19 c -0.4,0.28 0.1,0.74 -0.62,0.61 0.19,0.24 0.38,0.65 0.06,0.85 v 0.44 l 0.21,-0.29 0.45,0.39 -0.65,0.11 c 0,0.13 0,0.65 0.23,0.57 l -0.47,0.13 c 0.3,0.27 0.49,0.59 0.07,0.84 v 0.44 l 0.28,0.06 v 0.25 l -0.27,0.1 0.09,1.3 H 0.48 A 2.88,2.88 0 0 0 0,44.84 Z"
     id="path144"
     inkscape:connector-curvature="0"
     style="fill:#97bf0d" />
</svg>
